<?xml version="1.0" encoding="utf-8"?>
<!-- Generator: Adobe Illustrator 19.1.0, SVG Export Plug-In . SVG Version: 6.00 Build 0)  -->
<svg version="1.1" id="Layer_1" xmlns="http://www.w3.org/2000/svg" xmlns:xlink="http://www.w3.org/1999/xlink" x="0px" y="0px"
	 viewBox="0 0 162.9 163.6" style="enable-background:new 0 0 162.9 163.6;" xml:space="preserve">
<style type="text/css">
	.st0{fill:#E6E6E6;}
	.st1{fill:#3A3A3A;}
</style>
<circle class="st0" cx="81.5" cy="81.3" r="81.4"/>
<g>
	<g>
		<g>
			<polygon class="st1" points="9.4,106.5 9.3,106.3 81.6,79.4 16.5,85.7 16.5,85.5 83.2,79 			"/>
		</g>
		<g>
			<polygon class="st1" points="41.7,130.4 41.6,130.3 81.8,79.8 20.6,124.7 20.5,124.6 83,78.7 			"/>
		</g>
		<g>
			<polygon class="st1" points="76,136.5 75.8,136.4 82.2,79.9 58.1,135.3 57.9,135.3 82.6,78.6 82.5,79.2 			"/>
		</g>
		<g>
			<path class="st1" d="M76.2,133.9c-0.1,0-8.6-3.3-17.4-0.1l-0.1,0l0,0c-0.1-0.1-6.1-6.3-16.1-4.3l-0.1,0l0-0.1
				c0,0-0.4-2.6-2.5-5.1c-1.9-2.3-5.5-4.9-12.1-4.6l-0.2,0l0.1-0.2c0,0,1.2-2.6,0.7-5.9C28,110.6,26,106.3,19,103l-0.1,0l0-0.1
				c0.1-0.1,5.6-12.5,0.5-17.5l0.1-0.1c5,4.8,0.1,16.5-0.4,17.6c7,3.3,9,7.7,9.4,10.8c0.4,2.9-0.4,5.2-0.7,5.9
				c6.7-0.3,10.3,2.4,12.1,4.7c1.8,2.2,2.4,4.5,2.5,5.1c9.6-1.9,15.6,3.7,16.1,4.3c8.9-3.2,17.4,0.1,17.5,0.1L76.2,133.9z"/>
		</g>
		<g>
			<path class="st1" d="M65.7,118.5L65.7,118.5c-3.5-6.3-11.3-3.2-11.3-3.1l-0.2,0.1l0-0.2c0.2-1.8-0.2-3.2-1.3-4.4
				c-2.8-2.9-9.1-2.5-9.1-2.5l-0.2,0l0.1-0.2c1.3-2.7,1.5-5.1,0.5-7.1c-1.8-3.7-6.9-4.8-7-4.8l-0.2,0l0.1-0.1c2.1-2.3,3.1-4.7,2.9-7
				c-0.3-3.3-2.9-5.3-2.9-5.4l0.1-0.2c0,0,2.7,2.1,3,5.5c0.2,2.3-0.7,4.7-2.8,7c0.9,0.2,5.3,1.5,6.9,4.9c1,2,0.8,4.4-0.4,7.1
				c1,0,6.6-0.1,9.1,2.6c1.1,1.1,1.5,2.6,1.3,4.4c1.1-0.4,8-2.6,11.3,3.1c0.8-0.5,7.2-3.8,12.5,0.1l-0.1,0.2
				C72.6,114.4,65.9,118.4,65.7,118.5L65.7,118.5z"/>
		</g>
		<g>
			<path class="st1" d="M71.5,105.3l0-0.2c-0.1-1.6-0.6-2.7-1.5-3.1c-2.1-1.1-5.7,1.2-5.8,1.3l-0.2,0.1l0.1-0.2
				c0.4-1.8,0.2-3.1-0.6-3.9c-1.8-1.8-6.1-0.6-6.2-0.6L57,98.6l0.2-0.2c1.4-2,1.8-3.7,1.2-5c-1.2-2.4-5.5-2.7-5.6-2.7l-0.2,0
				l0.2-0.2c2.1-1.9,3-3.7,2.8-5.3c-0.3-2.1-2.5-3.2-2.6-3.2l0.1-0.2c0.1,0,2.3,1.2,2.7,3.4c0.2,1.6-0.7,3.4-2.7,5.3
				c0.9,0.1,4.4,0.6,5.5,2.8c0.6,1.3,0.3,3-1,5c1-0.2,4.4-0.9,6.1,0.7c0.9,0.8,1.1,2.1,0.8,3.9c0.8-0.5,3.8-2.1,5.8-1.1
				c1,0.5,1.5,1.5,1.6,3.1c0.6-0.5,2.6-2.2,4.8-1.9c1.2,0.1,2.3,0.9,3.1,2.2l-0.2,0.1c-0.8-1.3-1.8-2-3-2.1c-2.4-0.3-4.8,2-4.8,2
				L71.5,105.3z"/>
		</g>
		<g>
			<path class="st1" d="M76.8,92.9l0-0.2c0-0.8-0.3-1.3-0.8-1.6c-1.1-0.5-2.9,0.6-2.9,0.6l-0.2,0.1l0.1-0.3c0.3-1,0.3-1.7-0.1-2.2
				c-0.9-0.9-3.3-0.1-3.3-0.1l-0.3,0.1l0.2-0.3c0.9-1.2,1.1-2.2,0.8-2.9c-0.7-1.2-3.1-1.1-3.1-1.1l-0.3,0L67,85
				c1.1-1.1,1.6-2,1.4-2.8c-0.3-1-1.6-1.4-1.6-1.4l0.1-0.2c0.1,0,1.5,0.4,1.8,1.6c0.2,0.8-0.2,1.7-1.3,2.8c0.7,0,2.4,0.1,3,1.2
				c0.4,0.7,0.2,1.7-0.6,2.9c0.7-0.2,2.5-0.6,3.3,0.2c0.4,0.4,0.5,1.2,0.2,2.1c0.5-0.3,1.9-0.9,2.9-0.4c0.5,0.3,0.8,0.8,0.9,1.5
				c0.6-0.4,2.6-1.6,4,0.1l-0.2,0.1c-1.6-1.8-3.9,0-3.9,0L76.8,92.9z"/>
		</g>
		<g>
			<path class="st1" d="M79.4,86.5l0-0.2c0-0.4-0.2-0.7-0.4-0.8c-0.5-0.3-1.4,0.3-1.4,0.3l-0.2,0.1l0.1-0.3c0.1-0.5,0.1-0.9-0.1-1.1
				c-0.5-0.4-1.6-0.1-1.6-0.1l-0.3,0.1l0.2-0.3c0.4-0.6,0.5-1,0.4-1.3c-0.3-0.6-1.5-0.6-1.5-0.6l-0.3,0l0.2-0.2
				c0.6-0.6,0.9-1,0.8-1.4c-0.1-0.5-0.8-0.7-0.8-0.7l0.1-0.2c0,0,0.8,0.2,0.9,0.8c0.1,0.4-0.1,0.9-0.7,1.5c0.4,0,1.2,0.2,1.5,0.7
				c0.2,0.4,0.1,0.8-0.2,1.3c0.4-0.1,1.2-0.2,1.6,0.2c0.2,0.2,0.3,0.6,0.2,1c0.3-0.2,0.9-0.4,1.4-0.2c0.3,0.1,0.4,0.4,0.5,0.7
				c0.2-0.2,0.7-0.5,1.2-0.5c0.4,0,0.7,0.3,0.9,0.7l-0.2,0.1c-0.2-0.3-0.5-0.5-0.7-0.6c-0.6-0.1-1.2,0.6-1.2,0.6L79.4,86.5z"/>
		</g>
	</g>
	<g>
		<g>
			<polygon class="st1" points="76,136.5 75.8,136.4 82.3,78.8 102.2,136.1 102,136.1 82.4,79.7 			"/>
		</g>
		<g>
			<polygon class="st1" points="127.7,121.1 81.9,78.9 82.4,79.1 137.8,101.9 137.7,102.1 82.9,79.5 127.9,120.9 			"/>
		</g>
		<g>
			<polygon class="st1" points="145.6,87.6 81.5,79.2 82.4,79.1 148.7,72.7 148.7,72.9 83.3,79.2 145.6,87.4 			"/>
		</g>
		<g>
			<path class="st1" d="M76.3,133.8l-0.1-0.2c7.5-6,22.1-5.1,23.1-5.1c5.5-7,11.5-10,15.6-11.3c4-1.2,6.9-1.1,7.5-1.1
				c0.6-5.5,4.4-9.3,7.5-11.4c3.1-2.1,6.1-3.2,6.7-3.4c-1.2-7.4,6.3-13.6,7.1-14.2c-2.9-6.5,1.9-14.1,1.9-14.2l0.2,0.1
				c0,0.1-4.7,7.6-1.9,14.1l0,0.1l-0.1,0c-0.1,0.1-8.4,6.5-7.1,14.1l0,0.1l-0.1,0c-0.1,0-13.1,4.2-14.2,14.7l0,0.1l-0.1,0
				c0,0-3.1-0.3-7.5,1.1c-4,1.3-10,4.3-15.5,11.2l0,0l-0.1,0C99.1,128.8,84,127.7,76.3,133.8z"/>
		</g>
		<g>
			<path class="st1" d="M78.2,118.5l-0.1-0.1c0.1-0.1,8.1-7.4,16-3.7c0.3-0.5,1.5-2.8,3.9-4.9c2.4-2.2,6.6-4.7,12.3-3.9
				c0.1-1.1,1.5-9.5,10.2-10.6c-0.4-0.9-2-6.1,5.3-10.2c-0.5-0.7-3.5-5.3,1.7-10.3l0.1,0.1c-5.5,5.4-1.7,10.1-1.7,10.2l0.1,0.1
				l-0.1,0.1c-8,4.3-5.3,10-5.3,10.1l0.1,0.1l-0.1,0c-9.2,1-10.2,10.5-10.2,10.6l0,0.1l-0.1,0c-11-1.5-16.2,8.7-16.2,8.8l0,0.1
				l-0.1,0C86.3,111.1,78.3,118.4,78.2,118.5z"/>
		</g>
		<g>
			<path class="st1" d="M79.4,104.9l-0.2-0.1c0.1-0.1,5-6.1,10.7-2.2c0.3-0.7,1.6-4,4.5-5.5c1.8-0.9,3.8-1,6.1-0.3
				c-0.1-0.6-0.3-2.9,1.1-4.7c1.1-1.4,3-2.2,5.6-2.3c-0.4-0.5-1.5-2.1-0.9-3.8c0.5-1.4,2-2.4,4.5-3c-0.5-0.4-1.7-1.4-1.6-2.9
				c0-1.4,1.1-2.7,3.2-3.9l0.1,0.2c-2,1.2-3.1,2.4-3.1,3.7c0,1.7,1.7,2.8,1.7,2.8l0.2,0.1l-0.2,0.1c-2.6,0.6-4.1,1.6-4.5,2.9
				c-0.6,1.8,1,3.7,1,3.7l0.1,0.2l-0.2,0c-2.6,0.1-4.5,0.8-5.7,2.2c-1.6,2-1.1,4.7-1.1,4.7l0,0.2l-0.2-0.1c-2.3-0.7-4.3-0.6-6.1,0.3
				c-3.2,1.7-4.4,5.5-4.4,5.6l0,0.1l-0.1-0.1C84.3,98.9,79.4,104.8,79.4,104.9z"/>
		</g>
		<g>
			<path class="st1" d="M81,92.8l-0.2-0.1c0-0.1,1-1.6,2.6-2c0.9-0.2,1.8,0,2.8,0.6c0.1-0.5,0.6-2.1,1.9-2.9
				c0.9-0.5,2.1-0.6,3.5-0.1c-0.1-0.5-0.2-1.7,0.5-2.6c0.6-0.7,1.6-1.1,3-1c-0.2-0.3-0.6-1.1-0.3-1.9c0.3-0.7,1-1.2,2.3-1.6
				c-0.2-0.2-0.6-0.8-0.5-1.5c0-0.7,0.5-1.4,1.4-2.1l0.1,0.2c-0.8,0.6-1.3,1.2-1.3,1.9c0,0.8,0.6,1.4,0.6,1.4l0.1,0.1l-0.2,0
				c-1.3,0.3-2,0.8-2.3,1.5c-0.3,0.9,0.4,1.9,0.4,1.9l0.1,0.2l-0.2,0c-1.4-0.1-2.4,0.2-3,0.9c-0.9,1-0.5,2.6-0.5,2.6l0,0.2l-0.2-0.1
				c-1.4-0.5-2.5-0.5-3.5,0c-1.5,0.9-1.9,2.9-1.9,3l0,0.2l-0.1-0.1c-0.9-0.7-1.9-0.9-2.7-0.7C81.9,91.2,81,92.8,81,92.8z"/>
		</g>
		<g>
			<path class="st1" d="M81.7,86.2l-0.2-0.1c0,0,0.5-0.9,1.4-1c0.5-0.1,0.9,0,1.4,0.4c0.1-0.3,0.5-1.1,1.2-1.5
				c0.5-0.2,1-0.3,1.6-0.1c0-0.3,0-0.8,0.3-1.3c0.3-0.4,0.8-0.6,1.5-0.6c-0.1-0.2-0.2-0.6-0.1-0.9c0.1-0.4,0.5-0.7,1.1-0.8
				c-0.2-0.1-0.4-0.4-0.4-0.7c0-0.4,0.3-0.8,1-1.2l0.1,0.2c-0.6,0.3-0.9,0.7-0.9,1c0,0.4,0.5,0.7,0.5,0.7l0.2,0.1l-0.2,0.1
				c-0.6,0.2-1,0.4-1.2,0.8c-0.2,0.4,0.2,0.9,0.2,0.9l0.1,0.2l-0.2,0c-0.7,0-1.2,0.1-1.5,0.5c-0.4,0.5-0.3,1.3-0.3,1.3l0,0.2
				l-0.2-0.1c-0.6-0.2-1.1-0.2-1.6,0c-0.8,0.4-1.1,1.5-1.1,1.5l0,0.2l-0.1-0.1c-0.5-0.4-0.9-0.5-1.4-0.4
				C82.2,85.4,81.7,86.2,81.7,86.2z"/>
		</g>
	</g>
	<g>
		<g>
			<polygon class="st1" points="81.7,79.4 82.3,79.1 150.5,51.9 150.6,52.1 83.1,79 148.7,72.7 148.7,72.9 			"/>
		</g>
		<g>
			<polygon class="st1" points="81.9,79.8 117.1,28 117.3,28.1 82.9,78.7 136.2,33.7 136.4,33.9 			"/>
		</g>
		<g>
			<polygon class="st1" points="82.2,80 88.4,22 88.6,22 82.6,78.4 103.1,23.1 103.2,23.2 			"/>
		</g>
		<g>
			<path class="st1" d="M145.5,73.2c-6.2-4.8-3.8-16.5-3.6-17.6c-7.2-3.3-9.9-7.7-10.9-10.8c-0.9-2.9-0.5-5.3-0.4-5.9
				c-5.9,0.3-9.4-2.4-11.4-4.7c-1.9-2.2-2.6-4.6-2.8-5.1c-1.1,0.3-2.2,0.4-3.3,0.4c-6.1,0-10.1-4.2-10.6-4.7
				c-7.3,3.2-14.4-0.1-14.4-0.1l0.1-0.2c0.1,0,7.1,3.3,14.3,0.1l0.1,0l0,0.1c0.1,0.1,5.5,6.3,13.8,4.3l0.1,0l0,0.1
				c0,0,0.7,2.6,2.7,5.1c1.9,2.3,5.4,4.9,11.3,4.6l0.1,0l0,0.1c0,0-0.7,2.6,0.4,5.9c1,3.1,3.6,7.4,10.9,10.7l0.1,0l0,0.1
				c0,0.1-2.8,12.5,3.5,17.5L145.5,73.2z"/>
		</g>
		<g>
			<path class="st1" d="M127.7,74.8c0,0-3.4-2.4-4.1-6.1c-0.4-2.1,0.2-4.3,1.8-6.5c-0.9-0.2-5.4-1.5-7.4-5c-1.1-2-1.3-4.3-0.4-6.9
				c-0.9,0-5.8,0.1-8.4-2.4c-1.2-1.1-1.8-2.7-1.8-4.5c-1,0.4-7,2.6-10.2-3.1c-0.8,0.5-6.3,3.8-10.8-0.1l0.1-0.2
				c4.8,4.1,10.6,0.1,10.7,0l0.1-0.1l0.1,0.1c3.3,6.2,10,3.1,10.1,3.1l0.2-0.1l0,0.2c-0.1,1.9,0.5,3.4,1.7,4.6
				c2.8,2.7,8.4,2.3,8.4,2.3l0.2,0l-0.1,0.1c-0.9,2.6-0.8,5,0.3,6.9c2.2,3.8,7.4,5,7.5,5l0.2,0l-0.1,0.1c-1.6,2.1-2.2,4.3-1.8,6.4
				c0.6,3.6,3.9,5.9,4,6L127.7,74.8z"/>
		</g>
		<g>
			<path class="st1" d="M111.9,76.7c-0.1,0-2.7-1.2-3.1-3.6c-0.3-1.6,0.4-3.3,2.2-5.1c-0.9-0.1-4.5-0.6-5.7-2.9
				c-0.7-1.3-0.5-3,0.6-5c-0.9,0.2-4,0.9-5.7-0.6c-0.9-0.8-1.3-2.2-1-4c-0.7,0.5-3.3,2-5.2,1.2c-1-0.5-1.5-1.5-1.7-3.2
				c-0.5,0.5-2.4,2.1-4.3,1.9c-1.1-0.1-2.1-0.9-2.9-2.2l0.2-0.1c0.7,1.3,1.7,2,2.8,2.1c2.2,0.2,4.3-2,4.3-2l0.2-0.2l0,0.2
				c0.1,1.7,0.7,2.8,1.6,3.2c2,0.9,5.1-1.3,5.2-1.3l0.2-0.1l0,0.2c-0.3,1.9,0,3.2,0.9,4c1.9,1.7,5.7,0.5,5.8,0.5l0.3-0.1l-0.1,0.2
				c-1.2,2-1.4,3.7-0.7,5c1.3,2.5,5.7,2.8,5.7,2.8l0.2,0l-0.2,0.2c-1.8,1.8-2.5,3.5-2.3,5c0.4,2.3,2.9,3.4,3,3.4L111.9,76.7z"/>
		</g>
		<g>
			<path class="st1" d="M98,77.8c-0.1,0-1.6-0.4-1.9-1.6c-0.2-0.8,0.2-1.7,1.1-2.7c-0.7,0-2.4-0.1-3.1-1.2c-0.4-0.7-0.2-1.7,0.5-2.9
				c-0.7,0.2-2.4,0.6-3.2-0.2C91.1,68.7,91,68,91.2,67c-0.5,0.3-1.8,0.9-2.7,0.5c-0.5-0.2-0.8-0.8-0.9-1.6c-0.4,0.3-1.3,0.8-2.3,0.7
				c-0.6-0.1-1.1-0.4-1.6-0.9l0.2-0.1c0.4,0.5,0.9,0.8,1.4,0.8c1.2,0.1,2.2-0.8,2.3-0.8l0.2-0.1l0,0.2c0.1,0.8,0.3,1.3,0.8,1.6
				c1,0.5,2.7-0.6,2.7-0.6l0.2-0.2l-0.1,0.3c-0.3,1-0.2,1.8,0.2,2.2c0.9,0.9,3.2,0.1,3.2,0.1l0.3-0.1L95,69.3
				c-0.8,1.2-1,2.2-0.6,2.9c0.7,1.2,3.1,1.1,3.1,1.1l0.3,0l-0.2,0.2c-1,1-1.5,2-1.3,2.7c0.3,1.1,1.7,1.5,1.7,1.5L98,77.8z"/>
		</g>
		<g>
			<path class="st1" d="M90.4,78.5c0,0-0.8-0.2-1-0.9c-0.1-0.4,0.1-0.9,0.6-1.4c-0.4,0-1.2-0.2-1.5-0.8c-0.2-0.4-0.1-0.8,0.2-1.3
				c-0.4,0.1-1.2,0.2-1.6-0.2c-0.2-0.2-0.3-0.6-0.2-1c-0.3,0.2-0.9,0.4-1.4,0.2c-0.3-0.1-0.4-0.4-0.5-0.7c-0.2,0.2-0.7,0.5-1.2,0.5
				c-0.3,0-0.6-0.3-0.9-0.7l0.2-0.1c0.2,0.3,0.4,0.5,0.7,0.6c0.6,0.1,1.1-0.6,1.1-0.6l0.2-0.2l0,0.2c0,0.4,0.2,0.7,0.4,0.8
				c0.5,0.2,1.4-0.3,1.4-0.3l0.2-0.1l-0.1,0.3c-0.1,0.5-0.1,0.9,0.1,1.1c0.5,0.4,1.6,0.1,1.6,0.1l0.3-0.1l-0.2,0.3
				c-0.4,0.6-0.5,1-0.3,1.3c0.3,0.6,1.5,0.7,1.6,0.7l0.3,0l-0.2,0.2c-0.6,0.5-0.8,1-0.8,1.4c0.1,0.5,0.8,0.7,0.8,0.7L90.4,78.5z"/>
		</g>
	</g>
	<g>
		<g>
			<polygon class="st1" points="82.4,79.8 67.4,22.4 67.6,22.3 82.3,78.7 88.4,22 88.6,22 			"/>
		</g>
		<g>
			<polygon class="st1" points="82.8,79.5 32.9,56.5 33,56.4 82,78.9 44.8,37.5 45,37.4 			"/>
		</g>
		<g>
			<polygon class="st1" points="16.5,85.7 16.5,85.5 81.5,79.2 22.9,71 22.9,70.8 83.3,79.2 			"/>
		</g>
		<g>
			<path class="st1" d="M19.6,85.4l-0.2-0.1c0.1-0.1,6.2-7.6,5-14.1l0-0.1l0.1,0c0.1-0.1,9-6.5,9.3-14.2l0-0.1l0.1,0
				c0.1,0,12.2-4.2,14.7-14.7l0-0.1l0.1,0c0,0,2.6,0.3,6.4-1.1c3.5-1.3,8.8-4.3,14-11.2l0,0l0.1,0c0.1,0,12.5,1.1,19-5l0.1,0.2
				c-6.3,6-18.1,5.1-19.1,5.1c-5.3,7-10.6,10-14.1,11.3c-3.4,1.2-5.9,1.2-6.4,1.1C46.3,52.4,35,56.6,34,57
				c-0.4,7.4-8.6,13.7-9.3,14.2C25.9,77.7,19.7,85.3,19.6,85.4z"/>
		</g>
		<g>
			<path class="st1" d="M37.2,83.8l-0.1-0.2c6.2-5.4,3.3-10.1,3.3-10.2l-0.1-0.1l0.1-0.1c8.1-4.3,6.5-10.1,6.4-10.1l0-0.1l0.1,0
				c8.5-1,10.4-10.5,10.5-10.6l0-0.1l0.1,0c9.6,1.5,14.8-8.7,14.9-8.8l0-0.1l0.1,0.1c6.7,3.7,13.8-3.5,13.8-3.6l0.1,0.1
				c-0.1,0.1-7.2,7.4-14,3.7c-0.6,1-5.7,10.2-14.9,8.9c-0.2,1-2.4,9.5-10.5,10.6c0.2,0.9,1.1,6.1-6.5,10.2
				C41,74.2,43.1,78.7,37.2,83.8z"/>
		</g>
		<g>
			<path class="st1" d="M52.5,82.2L52.4,82c2.2-1.2,3.4-2.6,3.5-3.9c0.1-1.6-1.4-2.6-1.4-2.6l-0.2-0.1l0.2-0.1
				c2.6-0.6,4.1-1.6,4.7-3c0.7-1.8-0.6-3.6-0.7-3.6l-0.1-0.2l0.2,0c2.4-0.1,4.2-0.8,5.4-2.1c1.7-2,1.4-4.8,1.4-4.8l0-0.2l0.2,0.1
				c1.9,0.7,3.7,0.7,5.3-0.1c3.2-1.6,4.6-5.7,4.6-5.7l0-0.1l0.1,0.1c1.4,1.1,2.8,1.5,4.3,1.3c3-0.4,5.3-3.3,5.3-3.4l0.2,0.1
				c0,0-2.3,3-5.4,3.5c-1.5,0.2-3-0.2-4.4-1.3c-0.3,0.7-1.7,4.2-4.7,5.7c-1.6,0.8-3.4,0.9-5.4,0.2c0,0.6,0.1,3-1.5,4.8
				c-1.2,1.4-3,2.1-5.4,2.2c0.3,0.5,1.2,2.1,0.6,3.7c-0.5,1.4-2.1,2.5-4.6,3.1c0.4,0.3,1.4,1.3,1.3,2.7C56,79.5,54.8,80.9,52.5,82.2
				z"/>
		</g>
		<g>
			<path class="st1" d="M66.9,80.8l-0.1-0.2c0.9-0.6,1.4-1.3,1.4-2c0.1-0.8-0.5-1.4-0.5-1.4l-0.1-0.1l0.2,0c1.3-0.3,2.1-0.8,2.3-1.5
				c0.4-0.9-0.3-1.9-0.3-1.9l-0.1-0.2l0.2,0c1.3,0.1,2.3-0.2,2.9-0.9c0.9-1,0.6-2.6,0.6-2.6l0-0.2l0.2,0.1c1.3,0.5,2.4,0.5,3.2,0
				c1.5-0.9,1.9-3,1.9-3l0-0.2l0.1,0.1c0.9,0.6,1.7,0.9,2.5,0.7c1.5-0.3,2.4-1.9,2.4-1.9l0.2,0.1c0,0.1-0.9,1.7-2.5,2
				c-0.8,0.2-1.7,0-2.6-0.6c-0.1,0.5-0.6,2.2-2,3c-0.9,0.5-2,0.5-3.2,0.1c0.1,0.5,0.1,1.7-0.7,2.6c-0.6,0.7-1.6,1-2.9,1
				c0.2,0.3,0.5,1.1,0.2,1.9c-0.3,0.7-1.1,1.3-2.3,1.6c0.2,0.2,0.5,0.7,0.4,1.4C68.3,79.4,67.8,80.2,66.9,80.8z"/>
		</g>
		<g>
			<path class="st1" d="M74.3,80.1l-0.1-0.2c0.6-0.3,0.9-0.7,0.9-1c0-0.4-0.4-0.7-0.4-0.7l-0.2-0.1l0.2-0.1c0.6-0.2,1-0.4,1.2-0.8
				c0.2-0.4-0.1-0.9-0.1-0.9l-0.1-0.2l0.2,0c0.7,0,1.2-0.1,1.5-0.5c0.4-0.5,0.3-1.3,0.3-1.3l0-0.2l0.2,0.1c0.6,0.2,1.1,0.2,1.5,0
				c0.8-0.4,1.1-1.5,1.1-1.5l0-0.2l0.1,0.1c0.4,0.4,0.9,0.5,1.3,0.4c0.7-0.1,1.2-0.9,1.2-0.9l0.2,0.1c0,0-0.5,0.9-1.4,1
				c-0.4,0.1-0.9,0-1.4-0.4c-0.1,0.3-0.5,1.2-1.2,1.5c-0.4,0.2-1,0.2-1.5,0.1c0,0.3,0,0.9-0.4,1.3c-0.3,0.4-0.8,0.6-1.5,0.6
				c0.1,0.2,0.2,0.6,0.1,0.9c-0.1,0.4-0.5,0.7-1.1,0.8c0.2,0.1,0.4,0.4,0.4,0.7C75.3,79.3,75,79.7,74.3,80.1z"/>
		</g>
	</g>
</g>
</svg>
