<?xml version="1.0" encoding="utf-8"?>
<!-- Generator: Adobe Illustrator 19.1.0, SVG Export Plug-In . SVG Version: 6.00 Build 0)  -->
<svg version="1.1" id="Layer_1" xmlns="http://www.w3.org/2000/svg" xmlns:xlink="http://www.w3.org/1999/xlink" x="0px" y="0px"
	 viewBox="0 0 162.9 162.9" style="enable-background:new 0 0 162.9 162.9;" xml:space="preserve">
<style type="text/css">
	.st0{fill:#E6E6E6;}
	.st1{fill:#3A3A3A;}
</style>
<circle class="st0" cx="81.4" cy="81.4" r="81.4"/>
<g>
	<path class="st1" d="M36.2,32.5c0,0,38.9-21.5,44-26.9l41.9,26.9h-18.4c0,0-0.8,33.8-3.8,40.7H61.5l-5.4-41.4L36.2,32.5z"/>
	<path class="st1" d="M79.1,57.8L16.2,88.5l16.1,6.9c0,0,21.5,45.3,23,67.5h55.2c0,0,15.3-63.7,19.9-72.1l16.1-5.4L79.1,57.8z"/>
	<polygon class="st0" points="75,119 66.1,120.7 65.2,120.9 56.6,122.5 50.1,108.4 49.8,107.6 46.2,99.8 58.1,95.9 59,95.7 
		71.9,91.4 73.1,102 73.2,102.9 	"/>
	<g>
		<polygon class="st1" points="66.1,120.7 65.2,120.9 61,105.8 60.7,105 58.1,95.9 59,95.7 61.6,104.8 61.8,105.6 		"/>
	</g>
	<g>
		<polygon class="st1" points="73.2,102.9 61.8,105.6 61,105.8 50.1,108.4 49.8,107.6 60.7,105 61.6,104.8 73.1,102 		"/>
	</g>
	<polygon class="st0" points="100.3,112.6 107.4,113.2 108.2,113.3 115.1,113.9 118,99.3 118.2,98.4 119.8,90.4 110,87.8 
		109.3,87.7 98.7,84.9 99.3,95.6 99.4,96.5 	"/>
	<g>
		<polygon class="st1" points="107.4,113.2 108.2,113.3 109.3,98 109.3,97.1 110,87.8 109.3,87.7 108.6,97 108.6,97.8 		"/>
	</g>
	<g>
		<polygon class="st1" points="99.4,96.5 108.6,97.8 109.3,98 118,99.3 118.2,98.4 109.3,97.1 108.6,97 99.3,95.6 		"/>
	</g>
	<polygon class="st0" points="94.7,133.7 93.8,140.8 93.7,141.4 91.8,156.1 81.4,156.1 79.9,141.4 79.9,140.8 79.1,133.7 	"/>
	<g>
		<rect x="86.6" y="133.7" class="st1" width="0.6" height="22.4"/>
	</g>
	<g>
		<polygon class="st1" points="93.8,140.8 93.7,141.4 79.9,141.4 79.9,140.8 		"/>
	</g>
	<polygon class="st0" points="89.2,36.2 88.3,41.7 88.2,42.2 86.3,53.7 75.9,53.7 74.4,42.2 74.4,41.7 73.6,36.2 	"/>
	<g>
		<rect x="81.1" y="36.2" class="st1" width="0.6" height="17.5"/>
	</g>
	<g>
		<polygon class="st1" points="88.3,41.7 88.2,42.2 74.4,42.2 74.4,41.7 		"/>
	</g>
</g>
</svg>
