<?xml version="1.0" encoding="utf-8"?>
<!-- Generator: Adobe Illustrator 19.1.0, SVG Export Plug-In . SVG Version: 6.00 Build 0)  -->
<svg version="1.1" id="Layer_1" xmlns="http://www.w3.org/2000/svg" xmlns:xlink="http://www.w3.org/1999/xlink" x="0px" y="0px"
	 viewBox="-68 69.1 162.9 162.9" style="enable-background:new -68 69.1 162.9 162.9;" xml:space="preserve">
<style type="text/css">
	.st0{fill:#5270CC;}
	.st1{fill:#D78585;}
	.st2{fill:#EBEBEB;}
	.st3{fill:#E1E197;}
</style>
<circle class="st0" cx="14.3" cy="151.4" r="81.4"/>
<path class="st1" d="M-4.2,134.4c0.3-1.6,0.3-3.1,0-4.5c1.1-0.1,3.3-0.7,3.8-3.8c0,0-2.6-0.1-4.5,1.9c-0.5-1-1.2-1.7-2.2-2.2
	c-0.8-0.4-1.7-0.5-2.7-0.4c0.3-2.6-1.3-4.5-1.3-4.5c-1.9,2.1-1.4,4.1-0.8,5.1c-1.3,0.6-2.7,1.6-3.9,2.9
	c-12.6-24.4-38.8-12.6-38.8-12.6s7.1,3.4,8.7,5.4c0.8,1,1.7,4.7,1.7,4.7s5.7-0.8,7.2,0.3c1.7,1.2,3.1,7.7,3.1,7.7s5.4-2.2,7.2-1.6
	c2.1,0.8,5.1,5.1,7,8.2c0.4,2,1.3,3.7,2.9,4.5c1.7,0.8,3.7,0.6,5.7-0.6c3.6-0.3,8.3-0.5,10.1,0.7c1.6,1,3.1,6.7,3.1,6.7
	s6.1-2.8,8-2.2c1.7,0.5,4.5,5.5,4.5,5.5s3.5-1.5,4.8-1.5c2.6,0.1,9.6,3.6,9.6,3.6S22.6,130-4.2,134.4z"/>
<path class="st2" d="M42.9,118c0.3-1.6,0.3-3.1,0-4.5c1.1-0.1,3.3-0.7,3.8-3.8c0,0-2.6-0.1-4.5,1.9c-0.5-1-1.2-1.7-2.2-2.2
	c-0.8-0.4-1.7-0.5-2.7-0.4c0.3-2.6-1.3-4.5-1.3-4.5c-1.9,2.1-1.4,4.1-0.8,5.1c-1.3,0.6-2.7,1.6-3.9,2.9C18.8,88.2-7.3,99.9-7.3,99.9
	s7.1,3.4,8.7,5.4c0.8,1,1.7,4.7,1.7,4.7s5.7-0.8,7.2,0.3c1.7,1.2,3.1,7.7,3.1,7.7s5.4-2.2,7.2-1.6c2.1,0.8,5.1,5.1,7,8.2
	c0.4,2,1.3,3.7,2.9,4.5c1.7,0.8,3.7,0.6,5.7-0.6c3.6-0.3,8.3-0.5,10.1,0.7c1.6,1,3.1,6.7,3.1,6.7s6.1-2.8,8-2.2
	c1.7,0.5,4.5,5.5,4.5,5.5s3.5-1.5,4.8-1.5c2.6,0.1,9.6,3.6,9.6,3.6S69.7,113.7,42.9,118z"/>
<path class="st3" d="M29.1,182.3c0.3-1.6,0.3-3.1,0-4.5c1.1-0.1,3.3-0.7,3.8-3.8c0,0-2.6-0.1-4.5,1.9c-0.5-1-1.2-1.7-2.2-2.2
	c-0.8-0.4-1.7-0.5-2.7-0.4c0.3-2.6-1.3-4.5-1.3-4.5c-1.9,2.1-1.4,4.1-0.8,5.1c-1.3,0.6-2.7,1.6-3.9,2.9
	C5,152.5-21.1,164.2-21.1,164.2s7.1,3.4,8.7,5.4c0.8,1,1.7,4.7,1.7,4.7s5.7-0.8,7.2,0.3c1.7,1.2,3.1,7.7,3.1,7.7s5.4-2.2,7.2-1.6
	c2.1,0.8,5.1,5.1,7,8.2c0.4,2,1.3,3.7,2.9,4.5c1.7,0.8,3.7,0.6,5.7-0.6c3.6-0.3,8.3-0.5,10.1,0.7c1.6,1,3.1,6.7,3.1,6.7
	s6.1-2.8,8-2.2c1.7,0.5,4.5,5.5,4.5,5.5s3.5-1.5,4.8-1.5c2.6,0.1,9.6,3.6,9.6,3.6S55.9,177.9,29.1,182.3z"/>
</svg>
