<?xml version="1.0" encoding="utf-8"?>
<!-- Generator: Adobe Illustrator 19.1.0, SVG Export Plug-In . SVG Version: 6.00 Build 0)  -->
<svg version="1.1" id="Layer_1" xmlns="http://www.w3.org/2000/svg" xmlns:xlink="http://www.w3.org/1999/xlink" x="0px" y="0px"
	 viewBox="0 0 162.9 162.9" style="enable-background:new 0 0 162.9 162.9;" xml:space="preserve">
<style type="text/css">
	.st0{fill:#E6E6E6;}
	.st1{fill:#3A3A3A;}
</style>
<circle class="st0" cx="82.4" cy="81.8" r="81.4"/>
<g>
	<path class="st1" d="M110.8,66c1.5-4.1,2.3-11.7,0.5-19.1c-1.7-7.4-10.2-11.8-10.2-11.8c1.1-3.2-0.4-3.6-0.4-3.6
		c-0.7,1.5-2.3,1.8-2.3,1.8l0.4-1.9c0.4-2.4-0.7-2.2-0.7-2.2S96.3,35,93.7,39c-2.6,3.9-9.2,4.9-9.2,4.9s-6.6-0.9-9.2-4.9
		c-2.6-3.9-4.5-9.7-4.5-9.7s-1.1-0.2-0.7,2.2l0.4,1.9c0,0-1.6-0.3-2.3-1.8c0,0-1.5,0.4-0.4,3.6c0,0-8.5,4.4-10.2,11.8
		c-1.7,7.4-1,15,0.5,19.1c0,0-9.8,1.1-6,19.2c0,0,4.5,24.1,16.1,37.2c0.1,0,0.2,0,0.3,0.1c0,0,0.8-1.5,3.9-1.5
		c3.1,0,3.9,1.5,3.9,1.5c2.7-0.8,4,0.6,4,0.6c1.3,1.5,1.4,4.6,0.1,7.1c1.3,0.3,2.6,0.4,4,0.4c1.4,0,2.7-0.1,4-0.4
		c-1.3-2.5-1.3-5.6,0.1-7.1c0,0,1.3-1.4,4-0.6c0,0,0.8-1.5,3.9-1.5c3.1,0,3.9,1.5,3.9,1.5c0.1,0,0.2-0.1,0.3-0.1
		c11.7-13.1,16.1-37.2,16.1-37.2C120.6,67.1,110.8,66,110.8,66z M74,59.5c0,0-7.5,0.3-3.7-11.3c0,0,1.4,1.5,3.6,3.2
		c1.2,0.9,2.6,1.9,4.2,2.7c0.4,0.2,0.8,0.4,1.2,0.6C79.3,54.8,78.6,59.9,74,59.5z M95.1,59.5c-4.6,0.4-5.3-4.7-5.3-4.7
		c0.4-0.2,0.8-0.4,1.2-0.6c1.6-0.9,3-1.8,4.2-2.7c2.2-1.7,3.6-3.2,3.6-3.2C102.6,59.8,95.1,59.5,95.1,59.5z"/>
	<path class="st0" d="M79.3,54.8c0,0-0.7,5-5.3,4.7c0,0-7.5,0.3-3.7-11.3c0,0,1.4,1.5,3.6,3.2C72.8,51.9,72,53,72,54.3
		c0,1.7,1.4,3.1,3.1,3.1c1.7,0,3.1-1.4,3.1-3.1c0,0,0-0.1,0-0.1C78.5,54.4,78.9,54.6,79.3,54.8z"/>
	<path class="st1" d="M78.1,54.3c0,1.7-1.4,3.1-3.1,3.1c-1.7,0-3.1-1.4-3.1-3.1c0-1.3,0.8-2.4,1.9-2.8C75,52.4,76.5,53.4,78.1,54.3
		C78.1,54.3,78.1,54.3,78.1,54.3z"/>
	<path class="st0" d="M95.1,59.5c-4.6,0.4-5.3-4.7-5.3-4.7c0.4-0.2,0.8-0.4,1.2-0.6c0,0,0,0.1,0,0.1c0,1.7,1.4,3.1,3.1,3.1
		c1.7,0,3.1-1.4,3.1-3.1c0-1.3-0.8-2.4-1.9-2.8c2.2-1.7,3.6-3.2,3.6-3.2C102.6,59.8,95.1,59.5,95.1,59.5z"/>
	<path class="st1" d="M97.1,54.3c0,1.7-1.4,3.1-3.1,3.1c-1.7,0-3.1-1.4-3.1-3.1c0,0,0-0.1,0-0.1c1.6-0.9,3-1.8,4.2-2.7
		C96.4,51.9,97.1,53,97.1,54.3z"/>
	<path class="st1" d="M79.7,123.8c0,0-1.1-1.3-3.6-0.5c0,0-0.7-1.3-3.5-1.3c-2.8,0-3.5,1.3-3.5,1.3c-2.4-0.7-3.6,0.5-3.6,0.5
		c-1.3,1.5-1.3,4.8,0.4,7.1c1.7,2.3,4.2,1.7,4.2,1.7c0.7,0.9,2.5,1,2.5,1s1.7-0.1,2.5-1c0,0,2.6,0.6,4.2-1.7
		C81,128.6,81,125.3,79.7,123.8z"/>
	<path class="st1" d="M103.6,123.8c0,0-1.1-1.3-3.6-0.5c0,0-0.7-1.3-3.5-1.3c-2.8,0-3.5,1.3-3.5,1.3c-2.5-0.7-3.6,0.5-3.6,0.5
		c-1.3,1.5-1.3,4.8,0.4,7.1c1.7,2.3,4.2,1.7,4.2,1.7c0.7,0.9,2.5,1,2.5,1s1.7-0.1,2.5-1c0,0,2.6,0.6,4.2-1.7
		C104.9,128.6,105,125.3,103.6,123.8z"/>
	<path class="st1" d="M93.8,133.2c0,0-3.1,0.7-4.9-2.4c0,0-2.2,0.8-4.3,0.8c-2.2,0-4.3-0.8-4.3-0.8c-1.8,3.1-4.9,2.4-4.9,2.4
		c-0.3,0.7-2.2,1-2.2,1c0.6,3.1,2,5.9,2,5.9c0.7,2.3,2.9,2.2,2.9,2.2c2.5,3.7,6.6,3.5,6.6,3.5s4.1,0.2,6.6-3.5c0,0,2.2,0.1,2.9-2.2
		c0,0,1.4-2.9,2-5.9C96,134.2,94,133.9,93.8,133.2z"/>
</g>
</svg>
