<?xml version="1.0" encoding="utf-8"?>
<!-- Generator: Adobe Illustrator 19.1.0, SVG Export Plug-In . SVG Version: 6.00 Build 0)  -->
<svg version="1.1" id="Layer_1" xmlns="http://www.w3.org/2000/svg" xmlns:xlink="http://www.w3.org/1999/xlink" x="0px" y="0px"
	 viewBox="-68 69.1 162.9 162.9" style="enable-background:new -68 69.1 162.9 162.9;" xml:space="preserve">
<style type="text/css">
	.st0{fill:#293866;}
	.st1{fill:#E1A3A3;}
	.st2{fill:#E6E6E6;}
	.st3{fill:#3A3A3A;}
</style>
<circle class="st0" cx="14.4" cy="150.9" r="81.4"/>
<g>
	<path class="st1" d="M42.8,135.1c1.5-4.1,2.3-11.7,0.5-19.1c-1.7-7.4-10.2-11.8-10.2-11.8c1.1-3.2-0.4-3.6-0.4-3.6
		c-0.7,1.5-2.3,1.8-2.3,1.8l0.4-1.9c0.4-2.4-0.7-2.2-0.7-2.2s-1.8,5.8-4.4,9.8c-2.6,3.9-9.2,4.9-9.2,4.9s-6.6-0.9-9.2-4.9
		c-2.6-3.9-4.5-9.7-4.5-9.7s-1.1-0.2-0.7,2.2l0.4,1.9c0,0-1.6-0.3-2.3-1.8c0,0-1.5,0.4-0.4,3.6c0,0-8.5,4.4-10.2,11.8
		c-1.7,7.4-1,15,0.5,19.1c0,0-9.8,1.1-6,19.2c0,0,4.5,24.1,16.1,37.2c0.1,0,0.2,0,0.3,0.1c0,0,0.8-1.5,3.9-1.5s3.9,1.5,3.9,1.5
		c2.7-0.8,4,0.6,4,0.6c1.3,1.5,1.4,4.6,0.1,7.1c1.3,0.3,2.6,0.4,4,0.4s2.7-0.1,4-0.4c-1.3-2.5-1.3-5.6,0.1-7.1c0,0,1.3-1.4,4-0.6
		c0,0,0.8-1.5,3.9-1.5s3.9,1.5,3.9,1.5c0.1,0,0.2-0.1,0.3-0.1c11.7-13.1,16.1-37.2,16.1-37.2C52.6,136.2,42.8,135.1,42.8,135.1z
		 M6,128.6c0,0-7.5,0.3-3.7-11.3c0,0,1.4,1.5,3.6,3.2c1.2,0.9,2.6,1.9,4.2,2.7c0.4,0.2,0.8,0.4,1.2,0.6C11.3,123.9,10.6,129,6,128.6
		z M27.1,128.6c-4.6,0.4-5.3-4.7-5.3-4.7c0.4-0.2,0.8-0.4,1.2-0.6c1.6-0.9,3-1.8,4.2-2.7c2.2-1.7,3.6-3.2,3.6-3.2
		C34.6,128.9,27.1,128.6,27.1,128.6z"/>
	<path class="st2" d="M11.3,123.9c0,0-0.7,5-5.3,4.7c0,0-7.5,0.3-3.7-11.3c0,0,1.4,1.5,3.6,3.2C4.8,121,4,122.1,4,123.4
		c0,1.7,1.4,3.1,3.1,3.1s3.1-1.4,3.1-3.1v-0.1C10.5,123.5,10.9,123.7,11.3,123.9z"/>
	<path class="st3" d="M10.1,123.4c0,1.7-1.4,3.1-3.1,3.1s-3.1-1.4-3.1-3.1c0-1.3,0.8-2.4,1.9-2.8C7,121.5,8.5,122.5,10.1,123.4
		L10.1,123.4z"/>
	<path class="st2" d="M27.1,128.6c-4.6,0.4-5.3-4.7-5.3-4.7c0.4-0.2,0.8-0.4,1.2-0.6v0.1c0,1.7,1.4,3.1,3.1,3.1s3.1-1.4,3.1-3.1
		c0-1.3-0.8-2.4-1.9-2.8c2.2-1.7,3.6-3.2,3.6-3.2C34.6,128.9,27.1,128.6,27.1,128.6z"/>
	<path class="st3" d="M29.1,123.4c0,1.7-1.4,3.1-3.1,3.1s-3.1-1.4-3.1-3.1v-0.1c1.6-0.9,3-1.8,4.2-2.7
		C28.4,121,29.1,122.1,29.1,123.4z"/>
	<path class="st3" d="M11.7,192.9c0,0-1.1-1.3-3.6-0.5c0,0-0.7-1.3-3.5-1.3s-3.5,1.3-3.5,1.3c-2.4-0.7-3.6,0.5-3.6,0.5
		c-1.3,1.5-1.3,4.8,0.4,7.1c1.7,2.3,4.2,1.7,4.2,1.7c0.7,0.9,2.5,1,2.5,1s1.7-0.1,2.5-1c0,0,2.6,0.6,4.2-1.7
		C13,197.7,13,194.4,11.7,192.9z"/>
	<path class="st3" d="M35.6,192.9c0,0-1.1-1.3-3.6-0.5c0,0-0.7-1.3-3.5-1.3s-3.5,1.3-3.5,1.3c-2.5-0.7-3.6,0.5-3.6,0.5
		c-1.3,1.5-1.3,4.8,0.4,7.1c1.7,2.3,4.2,1.7,4.2,1.7c0.7,0.9,2.5,1,2.5,1s1.7-0.1,2.5-1c0,0,2.6,0.6,4.2-1.7
		C36.9,197.7,37,194.4,35.6,192.9z"/>
	<path class="st1" d="M25.8,202.3c0,0-3.1,0.7-4.9-2.4c0,0-2.2,0.8-4.3,0.8c-2.2,0-4.3-0.8-4.3-0.8c-1.8,3.1-4.9,2.4-4.9,2.4
		c-0.3,0.7-2.2,1-2.2,1c0.6,3.1,2,5.9,2,5.9c0.7,2.3,2.9,2.2,2.9,2.2c2.5,3.7,6.6,3.5,6.6,3.5s4.1,0.2,6.6-3.5c0,0,2.2,0.1,2.9-2.2
		c0,0,1.4-2.9,2-5.9C28,203.3,26,203,25.8,202.3z"/>
</g>
</svg>
