<?xml version="1.0" encoding="utf-8"?>
<!-- Generator: Adobe Illustrator 19.1.0, SVG Export Plug-In . SVG Version: 6.00 Build 0)  -->
<svg version="1.1" id="Layer_1" xmlns="http://www.w3.org/2000/svg" xmlns:xlink="http://www.w3.org/1999/xlink" x="0px" y="0px"
	 viewBox="-68 69.1 162.9 162.9" style="enable-background:new -68 69.1 162.9 162.9;" xml:space="preserve">
<style type="text/css">
	.st0{fill:#293866;}
	.st1{fill:#E1A3A3;}
	.st2{fill:#E6E6E6;}
	.st3{fill:#3A3A3A;}
</style>
<circle class="st0" cx="14.4" cy="150.9" r="81.4"/>
<g>
	<path class="st1" d="M54,137.7c1-2.7,1.5-7.6,0.3-12.5c-1.1-4.8-6.7-7.7-6.7-7.7c0.7-2.1-0.3-2.3-0.3-2.3c-0.5,1-1.5,1.2-1.5,1.2
		l0.3-1.2c0.3-1.6-0.5-1.4-0.5-1.4s-1.2,3.8-2.9,6.4c-1.7,2.5-6,3.2-6,3.2s-4.3-0.6-6-3.2c-1.7-2.5-2.9-6.3-2.9-6.3
		s-0.7-0.1-0.5,1.4l0.3,1.2c0,0-1-0.2-1.5-1.2c0,0-1,0.3-0.3,2.3c0,0-5.5,2.9-6.7,7.7c-1.1,4.8-0.7,9.8,0.3,12.5
		c0,0-6.4,0.7-3.9,12.5c0,0,2.9,15.7,10.5,24.3c0.1,0,0.1,0,0.2,0.1c0,0,0.5-1,2.5-1s2.5,1,2.5,1c1.8-0.5,2.6,0.4,2.6,0.4
		c0.8,1,0.9,3,0.1,4.6c0.8,0.2,1.7,0.3,2.6,0.3c0.9,0,1.8-0.1,2.6-0.3c-0.8-1.6-0.8-3.7,0.1-4.6c0,0,0.8-0.9,2.6-0.4
		c0,0,0.5-1,2.5-1c2,0,2.5,1,2.5,1c0.1,0,0.1-0.1,0.2-0.1c7.6-8.6,10.5-24.3,10.5-24.3C60.3,138.5,54,137.7,54,137.7z M29.9,133.5
		c0,0-4.9,0.2-2.4-7.4c0,0,0.9,1,2.3,2.1c0.8,0.6,1.7,1.2,2.7,1.8c0.3,0.1,0.5,0.3,0.8,0.4C33.4,130.4,32.9,133.8,29.9,133.5z
		 M43.7,133.5c-3,0.3-3.5-3.1-3.5-3.1c0.3-0.1,0.5-0.3,0.8-0.4c1-0.6,2-1.2,2.7-1.8c1.4-1.1,2.3-2.1,2.3-2.1
		C48.6,133.7,43.7,133.5,43.7,133.5z"/>
	<path class="st2" d="M33.4,130.4c0,0-0.5,3.3-3.5,3.1c0,0-4.9,0.2-2.4-7.4c0,0,0.9,1,2.3,2.1c-0.7,0.3-1.2,1-1.2,1.9
		c0,1.1,0.9,2,2,2c1.1,0,2-0.9,2-2V130C32.9,130.2,33.1,130.3,33.4,130.4z"/>
	<path class="st3" d="M32.6,130.1c0,1.1-0.9,2-2,2s-2-0.9-2-2c0-0.8,0.5-1.6,1.2-1.8C30.6,128.9,31.6,129.5,32.6,130.1L32.6,130.1z"
		/>
	<path class="st2" d="M43.7,133.5c-3,0.3-3.5-3.1-3.5-3.1c0.3-0.1,0.5-0.3,0.8-0.4v0.1c0,1.1,0.9,2,2,2c1.1,0,2-0.9,2-2
		c0-0.8-0.5-1.6-1.2-1.8c1.4-1.1,2.3-2.1,2.3-2.1C48.6,133.7,43.7,133.5,43.7,133.5z"/>
	<path class="st3" d="M45,130.1c0,1.1-0.9,2-2,2s-2-0.9-2-2V130c1-0.6,2-1.2,2.7-1.8C44.6,128.5,45,129.3,45,130.1z"/>
	<path class="st3" d="M33.7,175.5c0,0-0.7-0.8-2.3-0.3c0,0-0.5-0.8-2.3-0.8c-1.8,0-2.3,0.8-2.3,0.8c-1.6-0.5-2.3,0.3-2.3,0.3
		c-0.8,1-0.8,3.1,0.3,4.6c1.1,1.5,2.7,1.1,2.7,1.1c0.5,0.6,1.6,0.7,1.6,0.7s1.1-0.1,1.6-0.7c0,0,1.7,0.4,2.7-1.1
		C34.5,178.6,34.5,176.4,33.7,175.5z"/>
	<path class="st3" d="M49.3,175.5c0,0-0.7-0.8-2.3-0.3c0,0-0.5-0.8-2.3-0.8c-1.8,0-2.3,0.8-2.3,0.8c-1.6-0.5-2.3,0.3-2.3,0.3
		c-0.8,1-0.8,3.1,0.3,4.6c1.1,1.5,2.7,1.1,2.7,1.1c0.5,0.6,1.6,0.7,1.6,0.7s1.1-0.1,1.6-0.7c0,0,1.7,0.4,2.7-1.1
		C50.1,178.6,50.2,176.4,49.3,175.5z"/>
	<path class="st1" d="M42.9,181.6c0,0-2,0.5-3.2-1.6c0,0-1.4,0.5-2.8,0.5c-1.4,0-2.8-0.5-2.8-0.5c-1.2,2-3.2,1.6-3.2,1.6
		c-0.2,0.5-1.4,0.7-1.4,0.7c0.4,2,1.3,3.9,1.3,3.9c0.5,1.5,1.9,1.4,1.9,1.4c1.6,2.4,4.3,2.3,4.3,2.3s2.7,0.1,4.3-2.3
		c0,0,1.4,0.1,1.9-1.4c0,0,0.9-1.9,1.3-3.9C44.3,182.3,43,182.1,42.9,181.6z"/>
</g>
<g>
	<path class="st1" d="M10,137.7c1-2.7,1.5-7.6,0.3-12.5c-1.1-4.8-6.7-7.7-6.7-7.7c0.7-2.1-0.3-2.3-0.3-2.3c-0.5,1-1.5,1.2-1.5,1.2
		l0.3-1.2c0.3-1.6-0.5-1.4-0.5-1.4s-1.2,3.8-2.9,6.4c-1.7,2.5-6,3.2-6,3.2s-4.3-0.6-6-3.2c-1.7-2.5-2.9-6.3-2.9-6.3
		s-0.7-0.1-0.5,1.4l0.3,1.2c0,0-1-0.2-1.5-1.2c0,0-1,0.3-0.3,2.3c0,0-5.5,2.9-6.7,7.7c-1.1,4.8-0.7,9.8,0.3,12.5
		c0,0-6.4,0.7-3.9,12.5c0,0,2.9,15.7,10.5,24.3c0.1,0,0.1,0,0.2,0.1c0,0,0.5-1,2.5-1s2.5,1,2.5,1c1.8-0.5,2.6,0.4,2.6,0.4
		c0.8,1,0.9,3,0.1,4.6c0.8,0.2,1.7,0.3,2.6,0.3s1.8-0.1,2.6-0.3c-0.8-1.6-0.8-3.7,0.1-4.6c0,0,0.8-0.9,2.6-0.4c0,0,0.5-1,2.5-1
		s2.5,1,2.5,1c0.1,0,0.1-0.1,0.2-0.1c7.6-8.6,10.5-24.3,10.5-24.3C16.4,138.5,10,137.7,10,137.7z M-14,133.5c0,0-4.9,0.2-2.4-7.4
		c0,0,0.9,1,2.3,2.1c0.8,0.6,1.7,1.2,2.7,1.8c0.3,0.1,0.5,0.3,0.8,0.4C-10.5,130.4-11,133.8-14,133.5z M-0.2,133.5
		c-3,0.3-3.5-3.1-3.5-3.1c0.3-0.1,0.5-0.3,0.8-0.4c1-0.6,2-1.2,2.7-1.8c1.4-1.1,2.3-2.1,2.3-2.1C4.7,133.7-0.2,133.5-0.2,133.5z"/>
	<path class="st2" d="M-10.5,130.4c0,0-0.5,3.3-3.5,3.1c0,0-4.9,0.2-2.4-7.4c0,0,0.9,1,2.3,2.1c-0.7,0.3-1.2,1-1.2,1.9
		c0,1.1,0.9,2,2,2s2-0.9,2-2V130C-11.1,130.2-10.8,130.3-10.5,130.4z"/>
	<path class="st3" d="M-11.3,130.1c0,1.1-0.9,2-2,2s-2-0.9-2-2c0-0.8,0.5-1.6,1.2-1.8C-13.3,128.9-12.4,129.5-11.3,130.1
		L-11.3,130.1z"/>
	<path class="st2" d="M-0.2,133.5c-3,0.3-3.5-3.1-3.5-3.1c0.3-0.1,0.5-0.3,0.8-0.4v0.1c0,1.1,0.9,2,2,2s2-0.9,2-2
		c0-0.8-0.5-1.6-1.2-1.8c1.4-1.1,2.3-2.1,2.3-2.1C4.7,133.7-0.2,133.5-0.2,133.5z"/>
	<path class="st3" d="M1.1,130.1c0,1.1-0.9,2-2,2s-2-0.9-2-2V130c1-0.6,2-1.2,2.7-1.8C0.6,128.5,1.1,129.3,1.1,130.1z"/>
	<path class="st3" d="M-10.3,175.5c0,0-0.7-0.8-2.3-0.3c0,0-0.5-0.8-2.3-0.8s-2.3,0.8-2.3,0.8c-1.6-0.5-2.3,0.3-2.3,0.3
		c-0.8,1-0.8,3.1,0.3,4.6c1.1,1.5,2.7,1.1,2.7,1.1c0.5,0.6,1.6,0.7,1.6,0.7s1.1-0.1,1.6-0.7c0,0,1.7,0.4,2.7-1.1
		C-9.4,178.6-9.4,176.4-10.3,175.5z"/>
	<path class="st3" d="M5.3,175.5c0,0-0.7-0.8-2.3-0.3c0,0-0.5-0.8-2.3-0.8s-2.3,0.8-2.3,0.8c-1.6-0.5-2.3,0.3-2.3,0.3
		c-0.8,1-0.8,3.1,0.3,4.6c1.1,1.5,2.7,1.1,2.7,1.1c0.5,0.6,1.6,0.7,1.6,0.7s1.1-0.1,1.6-0.7c0,0,1.7,0.4,2.7-1.1
		C6.2,178.6,6.2,176.4,5.3,175.5z"/>
	<path class="st1" d="M-1.1,181.6c0,0-2,0.5-3.2-1.6c0,0-1.4,0.5-2.8,0.5c-1.4,0-2.8-0.5-2.8-0.5c-1.2,2-3.2,1.6-3.2,1.6
		c-0.2,0.5-1.4,0.7-1.4,0.7c0.4,2,1.3,3.9,1.3,3.9c0.5,1.5,1.9,1.4,1.9,1.4c1.6,2.4,4.3,2.3,4.3,2.3s2.7,0.1,4.3-2.3
		c0,0,1.4,0.1,1.9-1.4c0,0,0.9-1.9,1.3-3.9C0.4,182.3-0.9,182.1-1.1,181.6z"/>
</g>
</svg>
