<?xml version="1.0" encoding="utf-8"?>
<!-- Generator: Adobe Illustrator 19.1.0, SVG Export Plug-In . SVG Version: 6.00 Build 0)  -->
<svg version="1.1" id="Layer_1" xmlns="http://www.w3.org/2000/svg" xmlns:xlink="http://www.w3.org/1999/xlink" x="0px" y="0px"
	 viewBox="-68 69.1 162.9 162.9" style="enable-background:new -68 69.1 162.9 162.9;" xml:space="preserve">
<style type="text/css">
	.st0{fill:#737373;}
	.st1{fill:#D7D774;}
	.st2{fill:#4762B2;}
</style>
<circle class="st0" cx="14.3" cy="151.4" r="81.4"/>
<path class="st1" d="M29,144.1c0.3-0.8,0.4-1.5,0.4-2.2c0.5,0,1.7-0.1,2.2-1.5c0,0-1.3-0.3-2.4,0.5c-0.2-0.5-0.4-1-0.9-1.3
	c-0.4-0.3-0.8-0.4-1.3-0.4c0.4-1.3-0.2-2.3-0.2-2.3c-1.1,0.9-1,1.9-0.8,2.4c-0.7,0.2-1.4,0.5-2.1,1.1c-4-13-17.8-9.6-17.8-9.6
	s3.1,2.3,3.8,3.4c0.3,0.5,0.4,2.4,0.4,2.4s2.9,0.1,3.5,0.8c0.7,0.7,0.8,4,0.8,4s2.9-0.6,3.7-0.2c1,0.6,2.1,3,2.7,4.6
	c0,1,0.3,1.9,1,2.4c0.7,0.5,1.8,0.6,2.8,0.2c1.8,0.2,4.1,0.5,4.9,1.3c0.7,0.6,0.9,3.6,0.9,3.6s3.2-0.8,4.1-0.4
	c0.8,0.4,1.7,3.1,1.7,3.1s1.9-0.4,2.5-0.3c1.3,0.3,4.4,2.6,4.4,2.6S42.5,144.4,29,144.1z"/>
<path class="st1" d="M46.6,137.1c0.3-0.8,0.4-1.5,0.4-2.2c0.5,0,1.7-0.1,2.2-1.5c0,0-1.3-0.3-2.4,0.5c-0.2-0.5-0.4-1-0.9-1.3
	c-0.4-0.3-0.8-0.4-1.3-0.4c0.4-1.3-0.2-2.3-0.2-2.3c-1.1,0.9-1,1.9-0.8,2.4c-0.7,0.2-1.4,0.5-2.1,1.1c-4-13-17.8-9.6-17.8-9.6
	s3.1,2.3,3.8,3.4c0.3,0.5,0.4,2.4,0.4,2.4s2.9,0.1,3.5,0.8c0.7,0.7,0.8,4,0.8,4s2.9-0.6,3.7-0.2c1,0.6,2.1,3,2.7,4.6
	c0,1,0.3,1.9,1,2.4c0.7,0.5,1.8,0.6,2.8,0.2c1.8,0.2,4.1,0.5,4.9,1.3c0.7,0.6,0.9,3.6,0.9,3.6s3.2-0.8,4.1-0.4
	c0.8,0.4,1.7,3.1,1.7,3.1s1.9-0.4,2.5-0.3c1.3,0.3,4.4,2.6,4.4,2.6S60,137.4,46.6,137.1z"/>
<path class="st2" d="M1.7,182.2c0.3-0.8,0.4-1.5,0.4-2.2c0.5,0,1.7-0.1,2.2-1.5c0,0-1.3-0.3-2.4,0.5c-0.2-0.5-0.4-1-0.9-1.3
	c-0.4-0.3-0.8-0.4-1.3-0.4c0.4-1.3-0.2-2.3-0.2-2.3c-1.1,0.9-1,1.9-0.8,2.4c-0.7,0.2-1.4,0.5-2.1,1.1c-4-13-17.8-9.6-17.8-9.6
	s3.1,2.3,3.8,3.4c0.3,0.5,0.4,2.4,0.4,2.4s2.9,0.1,3.5,0.8c0.7,0.7,0.8,4,0.8,4s2.9-0.6,3.7-0.2c1,0.6,2.1,3,2.7,4.6
	c0,1,0.3,1.9,1,2.4c0.7,0.5,1.8,0.6,2.8,0.2c1.8,0.2,4.1,0.5,4.9,1.3c0.7,0.6,0.9,3.6,0.9,3.6s3.2-0.8,4.1-0.4
	c0.8,0.4,1.7,3.1,1.7,3.1s1.9-0.4,2.5-0.3c1.3,0.3,4.4,2.6,4.4,2.6S15.1,182.5,1.7,182.2z"/>
<path class="st2" d="M19.2,175.2c0.3-0.8,0.4-1.5,0.4-2.2c0.5,0,1.7-0.1,2.2-1.5c0,0-1.3-0.3-2.4,0.5c-0.2-0.5-0.4-1-0.9-1.3
	c-0.4-0.3-0.8-0.4-1.3-0.4c0.4-1.3-0.2-2.3-0.2-2.3c-1.1,0.9-1,1.9-0.8,2.4c-0.7,0.2-1.4,0.5-2.1,1.1c-4-13-17.8-9.6-17.8-9.6
	s3.1,2.3,3.8,3.4c0.3,0.5,0.4,2.4,0.4,2.4s2.9,0.1,3.5,0.8c0.7,0.7,0.8,4,0.8,4s2.9-0.6,3.7-0.2c1,0.6,2.1,3,2.7,4.6
	c0,1,0.3,1.9,1,2.4c0.7,0.5,1.8,0.6,2.8,0.2c1.8,0.2,4.1,0.5,4.9,1.3c0.7,0.6,0.9,3.6,0.9,3.6s3.2-0.8,4.1-0.4
	c0.8,0.4,1.7,3.1,1.7,3.1s1.9-0.4,2.5-0.3c1.3,0.3,4.4,2.6,4.4,2.6S32.7,175.4,19.2,175.2z"/>
<path class="st1" d="M1.7,182.2c0.3-0.8,0.4-1.5,0.4-2.2c0.5,0,1.7-0.1,2.2-1.5c0,0-1.3-0.3-2.4,0.5c-0.2-0.5-0.4-1-0.9-1.3
	c-0.4-0.3-0.8-0.4-1.3-0.4c0.4-1.3-0.2-2.3-0.2-2.3c-1.1,0.9-1,1.9-0.8,2.4c-0.7,0.2-1.4,0.5-2.1,1.1c-4-13-17.8-9.6-17.8-9.6
	s3.1,2.3,3.8,3.4c0.3,0.5,0.4,2.4,0.4,2.4s2.9,0.1,3.5,0.8c0.7,0.7,0.8,4,0.8,4s2.9-0.6,3.7-0.2c1,0.6,2.1,3,2.7,4.6
	c0,1,0.3,1.9,1,2.4c0.7,0.5,1.8,0.6,2.8,0.2c1.8,0.2,4.1,0.5,4.9,1.3c0.7,0.6,0.9,3.6,0.9,3.6s3.2-0.8,4.1-0.4
	c0.8,0.4,1.7,3.1,1.7,3.1s1.9-0.4,2.5-0.3c1.3,0.3,4.4,2.6,4.4,2.6S15.1,182.5,1.7,182.2z"/>
<path class="st1" d="M19.2,175.2c0.3-0.8,0.4-1.5,0.4-2.2c0.5,0,1.7-0.1,2.2-1.5c0,0-1.3-0.3-2.4,0.5c-0.2-0.5-0.4-1-0.9-1.3
	c-0.4-0.3-0.8-0.4-1.3-0.4c0.4-1.3-0.2-2.3-0.2-2.3c-1.1,0.9-1,1.9-0.8,2.4c-0.7,0.2-1.4,0.5-2.1,1.1c-4-13-17.8-9.6-17.8-9.6
	s3.1,2.3,3.8,3.4c0.3,0.5,0.4,2.4,0.4,2.4s2.9,0.1,3.5,0.8c0.7,0.7,0.8,4,0.8,4s2.9-0.6,3.7-0.2c1,0.6,2.1,3,2.7,4.6
	c0,1,0.3,1.9,1,2.4c0.7,0.5,1.8,0.6,2.8,0.2c1.8,0.2,4.1,0.5,4.9,1.3c0.7,0.6,0.9,3.6,0.9,3.6s3.2-0.8,4.1-0.4
	c0.8,0.4,1.7,3.1,1.7,3.1s1.9-0.4,2.5-0.3c1.3,0.3,4.4,2.6,4.4,2.6S32.7,175.4,19.2,175.2z"/>
<path class="st2" d="M-25.7,137.1c0.3-0.8,0.4-1.5,0.4-2.2c0.5,0,1.7-0.1,2.2-1.5c0,0-1.3-0.3-2.4,0.5c-0.2-0.5-0.4-1-0.9-1.3
	c-0.4-0.3-0.8-0.4-1.3-0.4c0.4-1.3-0.2-2.3-0.2-2.3c-1.1,0.9-1,1.9-0.8,2.4c-0.7,0.2-1.4,0.5-2.1,1.1c-4-13-17.8-9.6-17.8-9.6
	s3.1,2.3,3.8,3.4c0.3,0.5,0.4,2.4,0.4,2.4s2.9,0.1,3.5,0.8c0.7,0.7,0.8,4,0.8,4s2.9-0.6,3.7-0.2c1,0.6,2.1,3,2.7,4.6
	c0,1,0.3,1.9,1,2.4c0.7,0.5,1.8,0.6,2.8,0.2c1.8,0.2,4.1,0.5,4.9,1.3c0.7,0.6,0.9,3.6,0.9,3.6s3.2-0.8,4.1-0.4
	c0.8,0.4,1.7,3.1,1.7,3.1s1.9-0.4,2.5-0.3c1.3,0.3,4.4,2.6,4.4,2.6S-12.2,137.4-25.7,137.1z"/>
<path class="st2" d="M-8.1,130.1c0.3-0.8,0.4-1.5,0.4-2.2c0.5,0,1.7-0.1,2.2-1.5c0,0-1.3-0.3-2.4,0.5c-0.2-0.5-0.4-1-0.9-1.3
	c-0.4-0.3-0.8-0.4-1.3-0.4c0.4-1.3-0.2-2.3-0.2-2.3c-1.1,0.9-1,1.9-0.8,2.4c-0.7,0.2-1.4,0.5-2.1,1.1c-4-13-17.8-9.6-17.8-9.6
	s3.1,2.3,3.8,3.4c0.3,0.5,0.4,2.4,0.4,2.4s2.9,0.1,3.5,0.8c0.7,0.7,0.8,4,0.8,4s2.9-0.6,3.7-0.2c1,0.6,2.1,3,2.7,4.6
	c0,1,0.3,1.9,1,2.4c0.7,0.5,1.8,0.6,2.8,0.2c1.8,0.2,4.1,0.5,4.9,1.3c0.7,0.6,0.9,3.6,0.9,3.6s3.2-0.8,4.1-0.4
	c0.8,0.4,1.7,3.1,1.7,3.1s1.9-0.4,2.5-0.3c1.3,0.3,4.4,2.6,4.4,2.6S5.3,130.4-8.1,130.1z"/>
<path class="st1" d="M-25.7,137.1c0.3-0.8,0.4-1.5,0.4-2.2c0.5,0,1.7-0.1,2.2-1.5c0,0-1.3-0.3-2.4,0.5c-0.2-0.5-0.4-1-0.9-1.3
	c-0.4-0.3-0.8-0.4-1.3-0.4c0.4-1.3-0.2-2.3-0.2-2.3c-1.1,0.9-1,1.9-0.8,2.4c-0.7,0.2-1.4,0.5-2.1,1.1c-4-13-17.8-9.6-17.8-9.6
	s3.1,2.3,3.8,3.4c0.3,0.5,0.4,2.4,0.4,2.4s2.9,0.1,3.5,0.8c0.7,0.7,0.8,4,0.8,4s2.9-0.6,3.7-0.2c1,0.6,2.1,3,2.7,4.6
	c0,1,0.3,1.9,1,2.4c0.7,0.5,1.8,0.6,2.8,0.2c1.8,0.2,4.1,0.5,4.9,1.3c0.7,0.6,0.9,3.6,0.9,3.6s3.2-0.8,4.1-0.4
	c0.8,0.4,1.7,3.1,1.7,3.1s1.9-0.4,2.5-0.3c1.3,0.3,4.4,2.6,4.4,2.6S-12.2,137.4-25.7,137.1z"/>
<path class="st1" d="M-8.1,130.1c0.3-0.8,0.4-1.5,0.4-2.2c0.5,0,1.7-0.1,2.2-1.5c0,0-1.3-0.3-2.4,0.5c-0.2-0.5-0.4-1-0.9-1.3
	c-0.4-0.3-0.8-0.4-1.3-0.4c0.4-1.3-0.2-2.3-0.2-2.3c-1.1,0.9-1,1.9-0.8,2.4c-0.7,0.2-1.4,0.5-2.1,1.1c-4-13-17.8-9.6-17.8-9.6
	s3.1,2.3,3.8,3.4c0.3,0.5,0.4,2.4,0.4,2.4s2.9,0.1,3.5,0.8c0.7,0.7,0.8,4,0.8,4s2.9-0.6,3.7-0.2c1,0.6,2.1,3,2.7,4.6
	c0,1,0.3,1.9,1,2.4c0.7,0.5,1.8,0.6,2.8,0.2c1.8,0.2,4.1,0.5,4.9,1.3c0.7,0.6,0.9,3.6,0.9,3.6s3.2-0.8,4.1-0.4
	c0.8,0.4,1.7,3.1,1.7,3.1s1.9-0.4,2.5-0.3c1.3,0.3,4.4,2.6,4.4,2.6S5.3,130.4-8.1,130.1z"/>
</svg>
