<?xml version="1.0" encoding="utf-8"?>
<!-- Generator: Adobe Illustrator 19.1.0, SVG Export Plug-In . SVG Version: 6.00 Build 0)  -->
<svg version="1.1" id="Layer_1" xmlns="http://www.w3.org/2000/svg" xmlns:xlink="http://www.w3.org/1999/xlink" x="0px" y="0px"
	 viewBox="-68 69.4 162.9 163.6" style="enable-background:new -68 69.4 162.9 163.6;" xml:space="preserve">
<style type="text/css">
	.st0{fill:#E6E6E6;}
	.st1{fill:#3D5499;}
	.st2{fill:#5270CC;}
</style>
<circle class="st0" cx="13.4" cy="151.2" r="81.4"/>
<g>
	<path class="st1" d="M-5.4,148c1.6,4.2,3.3,10.7,0.3,13.3c-1.7,1.5-5.2,5.3-8,9c-1.8,2.3-3.3,4.7-4,6.4c-0.1,0.2-0.2,0.4-0.2,0.5
		s-0.1,0.2-0.1,0.2l0,0c0,0.2-0.1,0.3-0.1,0.5c0,5.3,13.9,9.5,31,9.5c17.2,0,31.1-4.3,31.1-9.5c0-0.1,0-0.2-0.1-0.3l0,0
		c0,0,0-0.1-0.1-0.2c-0.1-0.5-0.2-1-0.6-1.5c-0.6-1.5-1.6-3.8-2.9-6.3c-1-1.9-2.3-4-3.8-5.9c-4.5-5.8-5.8-4.9-6.8-15.2
		c-1-10.4-0.6-8.5-6.5-14.6c-5.8-6.2-4.9-8.8-5.2-12c-0.3-3.3-13-24-33.7-25.6c0,0-7.1-2.9-4.2,3.3c2.9,6.2,6.5,7.5,8.8,11.4
		s1.3,2.9,2.6,9.7C-6.4,127.5-7,143.8-5.4,148z"/>
	<path class="st2" d="M-42.5,185.4c0,9.7,26,17.6,58,17.6s58-7.9,58-17.6c0-6.6-12.1-12.4-30-15.4c1.5,2.7,2.6,5.3,3.2,6.9
		c0.4,0.5,0.5,1.1,0.6,1.6c0,0.1,0.1,0.2,0.1,0.2l0,0c0,0.1,0.1,0.2,0.1,0.3c0,5.8-15.2,10.4-34,10.4c-18.7,0-33.9-4.7-33.9-10.4
		c0-0.2,0.1-0.4,0.1-0.6l0,0c0-0.1,0.1-0.2,0.1-0.2c0-0.2,0.1-0.4,0.2-0.6c0.8-2,2.4-4.5,4.3-7C-31.8,173.7-42.5,179.2-42.5,185.4z"
		/>
</g>
</svg>
