<?xml version="1.0" encoding="utf-8"?>
<!-- Generator: Adobe Illustrator 19.1.0, SVG Export Plug-In . SVG Version: 6.00 Build 0)  -->
<svg version="1.1" id="Layer_1" xmlns="http://www.w3.org/2000/svg" xmlns:xlink="http://www.w3.org/1999/xlink" x="0px" y="0px"
	 viewBox="-68 69.1 162.9 162.9" style="enable-background:new -68 69.1 162.9 162.9;" xml:space="preserve">
<style type="text/css">
	.st0{fill:#3D4766;}
	.st1{fill:#CCCCCC;}
</style>
<circle class="st0" cx="13.4" cy="150.9" r="81.4"/>
<g>
	<g>
		<g>
			<path class="st1" d="M-67.8,225.1l0-0.6l0-0.2l0.2-0.1l0,0l1-0.3l1.5-0.5l0,0l14.2-4.8l0,0l1.6-0.5l14.6-4.9l0,0l2-0.6l0,0
				l30.5-10.1l1.7-0.6l0,0L32.4,191l1.4-0.4l0,0l38.6-12.8l1.2-0.4l20.7-6.8l0.3,0.9l-20.7,6.8l-1.1,0.3l-38.7,12.8l-1.5,0.5
				L0,202.8l-1.8,0.6l0,0l-30.3,10l0,0l-1.7,0.6l-14.9,5l0,0l-1.7,0.5l0,0l-13.9,4.6l14.1,0l1.5,0l0,0l15.7,0.2l1.7,0l30.5,0.1
				l1.4,0l0,0l36.6,0.2l0,0l1.3,0l40,0.1l1.2,0l13.1,0.1l0,1.3l-12.1-0.1l-1.3,0l-39.8-0.2l-1.4,0l-36.8-0.2l-1.2,0l-31-0.2l0,0
				l-0.8,0l-17.1-0.1l-0.4,0l0,0l-17.9-0.1l-0.2,0L-67.8,225.1z"/>
		</g>
		<g>
			<path class="st1" d="M-67.8,225.1l0-0.6l0.2-0.3l0,0l1.8-2.9l7.3-12l0.9-1.4l8.1-13.4l1-1.6l0,0l16.5-27.2l0,0l1.1-1.8l0,0
				l17.9-29.6l0.8-1.2l0,0l21-34.7l0.7-1l1.4-2.3l0.8,0.5L10,97.9L9.3,99l0,0l-21,34.6l0,0l-0.9,1.5l-17.8,29.3l-1.1,1.8l0,0
				L-48,193.4l-1.2,2l0,0l-7.9,13l0,0l-1,1.7l-7.4,12.2l11.1-9.4l1.3-1.1l0,0l12-10.1l1.5-1.2l24.5-20.7l0,0l1.4-1.2l0,0l26.5-22.3
				l1.1-0.9l30.8-26l1.1-0.9l14-11.9l0.6,0.8l-14.1,11.9l-1.2,1l0,0l-30.7,25.9l-1.3,1.1l0,0l-26.3,22.2l-1.8,1.5l-24.2,20.4
				l-1.8,1.5l-11.6,9.8L-54,214l0,0l-11.2,9.4l0,0l-1.8,1.5l-0.2,0.2L-67.8,225.1z"/>
		</g>
		<g>
			<polygon class="st1" points="-67.8,225.1 -67.8,224.5 -67.8,224.3 -65.5,69.1 -64.5,69.1 -64.7,76.1 -64.7,77.2 -65.3,118.2 
				-65.3,119.5 -65.8,154 -65.8,154 -65.8,155.8 -66.3,187.8 -66.3,189.3 -66.5,205.4 -66.6,207 -66.7,220.9 -63.1,207.6 -62.6,206 
				-58.2,190.4 -57.8,188.9 -49.2,158.3 -48.8,156.5 -39.3,122.7 -39,121.4 -27.9,82.2 -27.6,81 -26.5,77 -25.5,77.3 -26.7,81.3 
				-27,82.4 -38,121.7 -38,121.7 -38.3,123 -38.3,123 -47.8,156.7 -47.8,156.7 -48.4,158.9 -48.4,158.9 -56.9,189.2 -57.5,191.2 
				-57.5,191.2 -61.6,206.3 -61.6,206.3 -62.1,208 -65.9,221.3 -66.6,223.9 -66.9,224.9 -67,225.1 -67.1,225.1 			"/>
		</g>
		<g>
			<path class="st1" d="M-65.4,76.8l0.5-0.8c0,0,0.1,0.1,0.2,0.1c2.3,1.3,19.9,10.7,37.1,4.9c0.1,0,0.2,0,0.2-0.1l0.3-0.1l0.2,0.3
				c0,0,0.1,0.1,0.1,0.2c1.6,2,16,18.6,35.9,16.1c0.1,0,0.2,0,0.2,0l0.4-0.1l0.1,0.4c0,0,0,0.1,0,0.2c0.7,2.5,8.8,28.7,35.7,30.6
				c0.1,0,0.1,0,0.2,0l0.6,0.1l-0.2,0.6c0,0,0,0.1,0,0.2c-0.5,2.2-4.8,27.7,27.1,48.2c0.1,0,0.1,0.1,0.2,0.1l0.3,0.2l-0.1,0.3
				c0,0,0,0.1-0.1,0.3c-0.7,3-6,31.2,5.8,46.3c0.3,0.4,0.7,0.9,1,1.3l-1.3,0c-0.3-0.4-0.7-0.8-1-1.3c-11-15-6.7-41-5.7-45.9
				c0-0.2,0.1-0.4,0.1-0.5c-0.2-0.1-0.4-0.3-0.6-0.4C43,159.1,44,136.1,44.7,130.4c0.1-0.3,0.1-0.6,0.1-0.8c-0.2,0-0.4,0-0.6-0.1
				c-24.9-2.3-33.7-25.1-35.3-30.3c-0.1-0.3-0.1-0.5-0.2-0.7c-0.2,0-0.4,0-0.6,0.1c-18.8,1.9-32.6-12.5-35.6-16
				c-0.2-0.2-0.3-0.3-0.4-0.5c-0.2,0.1-0.4,0.1-0.6,0.2c-16.4,5.2-33.1-3-36.8-5C-65.2,76.9-65.4,76.8-65.4,76.8z"/>
		</g>
		<g>
			<path class="st1" d="M-66.1,118.8l0.7-0.7c0,0.1,0.1,0.1,0.2,0.1c12,11.3,24.8,4.1,26.3,3.2c0.1-0.1,0.1-0.1,0.2-0.1l0.5-0.3
				l0.2,0.5c0,0.1,0.1,0.1,0.1,0.2c8.9,16.9,23.8,12,25.5,11.4l0,0c0.1,0,0.1-0.1,0.1-0.1l0.7-0.3l0,0.9
				c0.3,19.5,23.1,21.6,25.5,21.7c0.1,0,0.2,0,0.2,0l0.6,0l-0.2,0.6l0,0.1c-6.7,23.7,17.1,33.7,19.2,34.6l0,0c0.1,0,0.1,0,0.1,0.1
				l0.6,0.2l-0.4,0.5l-0.1,0.1c-10.1,14.8,0.5,28.7,4.4,33.1c0.5,0.6,0.9,1,1.1,1.2l-1.4,0c-0.3-0.3-0.7-0.7-1-1.2l0,0
				c-4.4-5-13.5-18.2-4.6-32.6c0.1-0.2,0.3-0.4,0.4-0.7c-0.2-0.1-0.4-0.2-0.6-0.3C27.2,188.7,8,178.5,13,157.2
				c0.1-0.3,0.2-0.6,0.2-0.9c-0.2,0-0.4,0-0.6-0.1c-5-0.5-24-3.7-25.3-21.1c0-0.3,0-0.6,0-1c-0.2,0-0.4,0.1-0.6,0.2
				c-4.1,1.1-17,3.3-25.1-11.3c-0.1-0.2-0.2-0.4-0.3-0.6c-0.2,0.1-0.4,0.2-0.6,0.3c-3.5,1.8-15,6.5-26-3.2
				C-65.6,119.3-65.9,119-66.1,118.8z"/>
		</g>
		<g>
			<path class="st1" d="M-66.7,154.3l0.9-0.5c0,0,0,0.1,0.1,0.1c2.3,4.2,5.1,6.3,8.2,6.7c4.5,0.4,8.4-3.6,9-4.2
				c0-0.1,0.1-0.1,0.1-0.1l0.7-0.8l0.1,1.1l0,0.1c0.8,5.1,2.5,8.4,5.3,9.5c4.6,1.9,10.6-1.8,11.4-2.3c0.1,0,0.1,0,0.1,0l0.9-0.6
				l-0.1,1.1l0,0.1c-0.5,5.3,0.6,9.2,3.3,11.7c4.5,4,12.2,2.8,13.2,2.7c0.1,0,0.1,0,0.1,0l1-0.2l-0.5,0.9l0,0.1
				c-2.5,5-2.9,9.5-1.2,13.2c3.3,6.7,12.5,9,13.8,9.2l0,0c0.1,0,0.1,0,0.1,0l0.9,0.2l-0.6,0.6L0.1,203c-3.6,3.8-5.2,7.8-4.9,11.7
				c0.4,4.6,3.5,8.1,5.5,9.9l0,0c0.4,0.4,0.8,0.7,1,0.9l-0.1,0.2l-1.2,0c-0.4-0.3-0.8-0.7-1.2-1.1c-2.1-2.1-4.8-5.4-5.1-9.8
				c-0.3-3.7,1-7.4,4.1-11.1l0,0c0.2-0.2,0.4-0.5,0.6-0.7c-0.2-0.1-0.5-0.1-0.8-0.2c-3.2-1-10.1-3.6-12.9-9.5
				c-1.7-3.5-1.6-7.6,0.3-12.2c0.1-0.4,0.3-0.8,0.5-1.1c-0.2,0-0.5,0.1-0.8,0.1c-2.9,0.3-8.6,0.4-12.5-3.1
				c-2.6-2.4-3.9-5.9-3.8-10.6c0-0.3,0-0.7,0-1c-0.2,0.1-0.5,0.3-0.9,0.5c-2.4,1.3-6.9,3.1-10.7,1.4c-2.7-1.2-4.6-3.9-5.6-8.3
				c-0.1-0.4-0.1-0.7-0.2-1.1c-0.2,0.2-0.4,0.4-0.6,0.6c-1.7,1.5-4.9,3.7-8.5,3.3c-3-0.3-5.7-2.2-8.1-5.8
				C-66.2,155.3-66.4,154.8-66.7,154.3z"/>
		</g>
		<g>
			<path class="st1" d="M-67.2,188.2l0.8-0.6l0.1,0.1c1.2,1.6,2.5,2.5,4,2.6c2.2,0.2,4-1.1,4.4-1.4c0.1-0.1,0.1-0.1,0.1-0.1l0.7-0.6
				l0.1,0.9l0,0.1c0.3,2.5,1.2,4,2.6,4.7c2.2,1,5.1-0.6,5.7-1l0,0c0.1,0,0.1-0.1,0.1-0.1l1-0.6l-0.2,1.1l0,0.1
				c-0.6,2.9-0.1,4.9,1.1,6.1c2.2,2.1,6.5,1.1,7.2,0.9c0.1,0,0.1,0,0.1,0l1.1-0.3l-0.6,1l0,0.1c-1.7,3.1-2,5.6-1,7.5
				c1.7,3.1,6.6,3.7,7.3,3.8l0,0l0.1,0l1,0.1l-0.7,0.7l-0.1,0.1l0,0c-2.1,2.3-2.9,4.5-2.5,6.5c0.4,2.2,2.3,3.6,3.4,4.3
				c0.5,0.3,0.8,0.4,0.8,0.5l-0.2,0.6l0,0l-0.8,0c-0.4-0.2-0.9-0.6-1.5-1c-1.1-0.9-2.3-2.3-2.7-4.1c-0.4-1.9,0.2-4,1.7-6.2
				c0.2-0.2,0.3-0.4,0.5-0.6c-0.3-0.1-0.7-0.1-1.1-0.2l0,0c-2-0.5-4.8-1.5-6.2-3.9c-1-1.8-0.9-4,0-6.5c0.1-0.4,0.3-0.7,0.5-1.1
				c-0.2,0-0.5,0.1-0.8,0.1c-1.8,0.2-4.6,0.2-6.4-1.5c-1.2-1.1-1.7-2.7-1.7-4.8c0-0.4,0.1-0.8,0.1-1.3c-0.2,0.1-0.4,0.2-0.7,0.3
				c-1.4,0.5-3.4,1-5.1,0.3c-1.3-0.6-2.2-1.8-2.7-3.6c-0.1-0.4-0.2-0.8-0.3-1.2c-0.1,0.1-0.3,0.2-0.5,0.3c-1,0.5-2.4,1.1-4.1,0.9
				c-1.5-0.2-2.8-0.9-4-2.1C-66.6,189-66.9,188.6-67.2,188.2z"/>
		</g>
		<g>
			<path class="st1" d="M-67.5,205.8l0.9-0.5c0,0,0,0.1,0.1,0.1c0.6,1,1.2,1.6,1.9,1.7c1,0.1,1.8-0.8,2.1-1.1l0.1-0.1l0.7-0.9
				l0.2,1.1l0,0.1c0.2,1.1,0.6,1.9,1.2,2.2c1,0.4,2.2-0.2,2.6-0.4c0.1,0,0.1-0.1,0.1-0.1l0.9-0.6l-0.2,1.1l0,0.1
				c-0.2,1.4,0,2.3,0.6,2.9c0.9,0.9,2.7,0.7,3.4,0.6l0,0l0.1,0l1.1-0.3l-0.6,1c0,0,0,0,0,0.1c-0.8,1.3-0.9,2.4-0.5,3.3
				c0.7,1.6,3,2.1,3.6,2.2c0.1,0,0.1,0,0.1,0l1,0.2l-0.7,0.7c0,0-0.1,0-0.1,0.1l0,0c-1.1,1.1-1.6,2.2-1.5,3.2c0.2,1,1,1.7,1.6,2l0,0
				c0.2,0.2,0.4,0.2,0.4,0.2l-0.3,0.7l-0.4,0l0,0c-0.3-0.2-0.8-0.5-1.2-1c-0.5-0.5-0.9-1.1-1-1.8c-0.2-0.9,0.1-1.8,0.7-2.8l0,0
				c0.1-0.2,0.3-0.5,0.5-0.7c-0.2-0.1-0.5-0.2-0.8-0.3l0,0c-1-0.4-2.2-1.1-2.8-2.3c-0.3-0.7-0.4-1.5-0.2-2.4c0.1-0.3,0.2-0.7,0.3-1
				c-0.2,0-0.4,0-0.7,0c-0.9,0-2-0.2-2.7-0.9c-0.5-0.5-0.8-1.1-0.9-2c0-0.3-0.1-0.6,0-1c-0.2,0.1-0.4,0.1-0.6,0.2
				c-0.7,0.2-1.4,0.2-2.2-0.1c-0.6-0.3-1-0.7-1.3-1.4c-0.1-0.2-0.2-0.5-0.3-0.8c-0.2,0.1-0.4,0.3-0.6,0.4c-0.5,0.3-1,0.5-1.7,0.4
				c-0.7-0.1-1.3-0.4-1.9-1C-66.9,206.7-67.2,206.3-67.5,205.8z"/>
		</g>
	</g>
</g>
</svg>
