<?xml version="1.0" encoding="utf-8"?>
<!-- Generator: Adobe Illustrator 19.1.0, SVG Export Plug-In . SVG Version: 6.00 Build 0)  -->
<svg version="1.1" id="Layer_1" xmlns="http://www.w3.org/2000/svg" xmlns:xlink="http://www.w3.org/1999/xlink" x="0px" y="0px"
	 viewBox="0 0 162.9 163.6" style="enable-background:new 0 0 162.9 163.6;" xml:space="preserve">
<style type="text/css">
	.st0{fill:#E6E6E6;}
	.st1{fill:#3A3A3A;}
</style>
<circle class="st0" cx="81.6" cy="81.3" r="81.4"/>
<g>
	<path class="st1" d="M124.6,30.8c-0.6-5.2-3.7,0.3-7.6,8.9c-4,8.5-17.8,8.7-20.8,8.7c-3,0-3.9-3.2-3.7-11.6
		c0.2-8.4-3.2-9.4-9.4-9.4c-6.2,0-5.3,4.3-5.5,12.8c-0.2,8.5-5.5,5.6-6.6,5.7c-11.2,0.7-22.7-5-27.8-11.7c-5.2-6.7-4.6,1.2-4.6,1.2
		c-0.9,8.2,2.7,16.8,8.8,22.9c6.1,6.1,3,9.8,9.5,12.5c0.5,0.3,1,0.6,1.4,0.8c1.9,0.8,4,1,5.4,0.9c1.2,0,1.9-0.2,1.9-0.2
		c2.3,0.3,5.9,2.1,8.9,4.6c5.2,4.3-2.4,14.3-6.4,21.4c-4,7-2.1,14.3,3.1,23.8c5.3,9.5,18.2,12.5,18.2,12.5c4.3,3,3.4,9.5,1.2,14.6
		c-2.1,5.2-3.4,8.5-3.4,8.5c6.7,0.9,13.4-10.4,17.1-16.5c3.7-6.1-3.7-15.3-8.5-22.3c-4.9-7-4.3-13.4-5.2-20.4
		c-0.9-7,5.5-14.3,4.6-20.2c-0.9-5.9,3.4-1.2,9.2-0.3c5.8,0.9,4.9-0.6,7-5.5c2.1-4.9-1.5,0.6,0-7.3c1.5-7.9,5.8-5.8,8.2-11.6
		C122.2,47.9,125.2,36,124.6,30.8z M81.6,37.5c0-0.9,0.3-1.7,0.7-1.7c0.4,0,0.7,0.8,0.7,1.7c0,0.9-0.3,1.7-0.7,1.7
		C81.9,39.2,81.6,38.4,81.6,37.5z M87.7,50.3C87.1,53,86,56.7,85,56.7c-1,0-2.7-4-2.7-6.8c0-2.8,0-6.1,3-5.9
		C86.3,44.1,88.5,46.6,87.7,50.3z M87.9,39.2c-0.4,0-0.7-0.8-0.7-1.7c0-0.9,0.3-1.7,0.7-1.7c0.4,0,0.7,0.8,0.7,1.7
		C88.5,38.4,88.2,39.2,87.9,39.2z"/>
</g>
</svg>
