<?xml version="1.0" encoding="utf-8"?>
<!-- Generator: Adobe Illustrator 19.1.0, SVG Export Plug-In . SVG Version: 6.00 Build 0)  -->
<svg version="1.1" id="Layer_1" xmlns="http://www.w3.org/2000/svg" xmlns:xlink="http://www.w3.org/1999/xlink" x="0px" y="0px"
	 viewBox="0 0 162.9 163.6" style="enable-background:new 0 0 162.9 163.6;" xml:space="preserve">
<style type="text/css">
	.st0{fill:#E6E6E6;}
	.st1{fill:#3A3A3A;}
</style>
<circle class="st0" cx="82" cy="81.4" r="81.4"/>
<g>
	<g>
		<path class="st1" d="M97.1,55c0,0.4,0,0.7-0.1,1.1c-0.6,6.3-6.3,11.3-16.2,11.3c-10.1,0-15.6-5.2-16-11.7c0-0.2,0-0.4,0-0.6
			c0-6.2,4.5-11.3,13-12.2c0.3,0,0.7-0.1,1-0.1c0,0,0,0,0,0c0.4,0,0.7,0,1.1-0.1c0.3,0,0.5,0,0.8,0c0.2,0,0.4,0,0.6,0
			c0.5,0,1,0,1.4,0.1c0,0,0.1,0,0.1,0C92.1,43.5,97.1,48.7,97.1,55z"/>
		<path class="st1" d="M75,61.6v0.9c0,0.1,0,0.3-0.1,0.4c-0.9-0.5-1.6-1.1-2.2-1.7c0.1-0.2,0.3-0.3,0.5-0.3h1.1
			C74.7,60.8,75,61.1,75,61.6z"/>
		<path class="st1" d="M82.5,63.8v0.4c-0.5,0-1,0.1-1.5,0.1c-0.5,0-1,0-1.5-0.1v-0.4c0-0.5,0.4-0.8,0.8-0.8h1.3
			C82.1,62.9,82.5,63.3,82.5,63.8z"/>
		<path class="st1" d="M78.8,60.3v0.2c0,0.5-0.4,0.8-0.8,0.8h-1.3c-0.5,0-0.8-0.4-0.8-0.8v-0.9c0,0,0-0.1,0-0.1
			C77,60,78,60.2,78.8,60.3z"/>
		<path class="st1" d="M75,61.6v0.9c0,0.1,0,0.3-0.1,0.4c-0.9-0.5-1.6-1.1-2.2-1.7c0.1-0.2,0.3-0.3,0.5-0.3h1.1
			C74.7,60.8,75,61.1,75,61.6z"/>
		<path class="st0" d="M91.6,55.6c0,0-0.1,3-2.3,5.5c-0.1-0.2-0.3-0.3-0.5-0.3h-1.1c-0.4,0-0.7,0.4-0.7,0.8v0.9c0,0.1,0,0.3,0.1,0.4
			c-1.2,0.7-2.7,1.1-4.6,1.3v-0.4c0-0.5-0.4-0.8-0.8-0.8h-1.3c-0.5,0-0.8,0.4-0.8,0.8v0.4c-1.9-0.2-3.4-0.6-4.6-1.3
			c0-0.1,0.1-0.2,0.1-0.4v-0.9c0-0.5-0.3-0.8-0.7-0.8h-1.1c-0.2,0-0.4,0.1-0.5,0.3c-2.3-2.5-2.3-5.5-2.3-5.5c1.9,2,3.8,3.2,5.5,3.9
			c0,0,0,0.1,0,0.1v0.9c0,0.5,0.4,0.8,0.8,0.8H78c0.5,0,0.8-0.4,0.8-0.8v-0.2c1.3,0.2,2.2,0.1,2.2,0.1s0.9,0.1,2.2-0.1v0.2
			c0,0.5,0.4,0.8,0.8,0.8h1.3c0.5,0,0.8-0.4,0.8-0.8v-0.9c0,0,0-0.1,0-0.1C87.8,58.8,89.8,57.6,91.6,55.6z"/>
		<path class="st1" d="M86.1,59.6v0.9c0,0.5-0.4,0.8-0.8,0.8H84c-0.5,0-0.8-0.4-0.8-0.8v-0.2c0.8-0.1,1.8-0.4,2.9-0.8
			C86.1,59.5,86.1,59.6,86.1,59.6z"/>
		<path class="st1" d="M89.3,61.1c-0.6,0.6-1.3,1.2-2.2,1.7c0-0.1-0.1-0.2-0.1-0.4v-0.9c0-0.5,0.3-0.8,0.7-0.8h1.1
			C89,60.8,89.2,60.9,89.3,61.1z"/>
		<path class="st0" d="M78.9,50.9c-2.4,3-4.8,2.1-4.8,2.1c-2.8-1.2-1.4-5.2-1.4-5.2c0.2,0.5,0.8,1,1.4,1.4c0,0.2-0.1,0.4-0.1,0.7
			c0,1.1,0.5,2,1.1,2c0.6,0,1-0.8,1.1-1.7C77.7,50.6,78.9,50.9,78.9,50.9z"/>
		<path class="st1" d="M76.3,50.1c-0.1,1-0.5,1.7-1.1,1.7c-0.6,0-1.1-0.9-1.1-2c0-0.2,0-0.5,0.1-0.7C74.8,49.5,75.5,49.8,76.3,50.1z
			"/>
		<path class="st0" d="M83,50.9c2.4,3,4.8,2.1,4.8,2.1c2.8-1.2,1.4-5.2,1.4-5.2c-0.2,0.5-0.8,1-1.4,1.4c0,0.2,0.1,0.4,0.1,0.7
			c0,1.1-0.5,2-1.1,2c-0.6,0-1-0.8-1.1-1.7C84.3,50.6,83,50.9,83,50.9z"/>
		<path class="st1" d="M85.7,50.1c0.1,1,0.5,1.7,1.1,1.7c0.6,0,1.1-0.9,1.1-2c0-0.2,0-0.5-0.1-0.7C87.2,49.5,86.4,49.8,85.7,50.1z"
			/>
		<path class="st1" d="M81.5,42.7c-0.2,0-0.4,0-0.6,0c-0.3,0-0.5,0-0.8,0c0-0.4,0-1-0.1-1.7c-0.1-0.5-0.2-1-0.4-1.7
			c0,0-0.7-1.2-2-1.2c0,0-0.5-1,0.9-1.7c0,0,2.6,0.1,3.1,3.9C81.5,41.1,81.6,41.8,81.5,42.7z"/>
	</g>
	<path class="st1" d="M115,42.8c-3.3,3.7-11,11-17.9,13.4c0-0.4,0.1-0.7,0.1-1.1c0-6.3-5-11.6-14.1-12.3c0,0-0.1,0-0.1,0
		c-0.5,0-0.9-0.1-1.4-0.1c0.1-0.9,0.1-1.6,0-2.3c-0.5-3.9-3.1-3.9-3.1-3.9c-1.4,0.7-0.9,1.7-0.9,1.7c1.3,0,2,1.2,2,1.2
		c0.2,0.6,0.3,1.2,0.4,1.7c0.1,0.7,0.2,1.2,0.1,1.7c-0.4,0-0.7,0-1.1,0.1c0,0,0,0,0,0c-0.3,0-0.7,0.1-1,0.1c-8.5,0.9-13,6-13,12.2
		c0,0.2,0,0.4,0,0.6C62,55.2,53,52.9,43.2,41.4c0,0-1.6-2.7,3.9-1.7c5.4,1,22.5,5.4,28.1-3.6c0,0,10-20.2,18.3-22.8
		c0,0,1.6-0.5,0,2.7c-1.6,3.2-2.1,5.7-2.6,12.7c-0.5,7-0.6,10.6,1.2,11.7c1.8,1,7.9,4.5,16.3,2.2c0,0,4.1-1.3,5.7-2.7
		C114.1,39.9,118.5,38.9,115,42.8z"/>
	<path class="st1" d="M139.2,71.6c0.2-2.6-6.7-3.3-10.6-5.1c-3.8-1.8-2.9,2.6-4.2,4.3c-1.3,1.8-1.6,0-3.4-1.1
		c-1.8-1.1-14.1-1.9-19.5-2.6c-5.4-0.6-17.1-1.4-17.1-1.4H81h-3.5c0,0-11.7,0.8-17.1,1.4c-5.4,0.6-17.8,1.4-19.5,2.6
		c-1.8,1.1-2.1,2.9-3.4,1.1c-1.3-1.8-0.3-6.1-4.2-4.3c-3.8,1.8-10.7,2.5-10.6,5.1c0.2,2.6,0,4.2,0,4.2s1.4-1,1.6-2.2
		c0.2-1.3,2.6-1.8,4.2-1.8c1.6,0-0.5,1.8-1.3,3.2c-0.8,1.4-4.5,5-1.4,12.2c0,0,1.9-3.4,1.9-6.1c0-2.7,2.2-4.8,3.8-6.1
		c1.6-1.3-2.6,4.2-2.6,12.2c0,0,0.2,2.9,2.7,3.8c0,0-2.1-6.2,2.6-13.6c0,0,1,10.7,5.9,13.6c0,0-3-9.6-2.2-13.6c0,0,3.4-3,3.2-0.6
		C41,79.2,38.7,81,40,85.1c0,0,1.9-3.7,6.9,0.6c5,4.3,15.2,10.6,19,15.2c3.8,4.6,6.4,8.8,3.2,14.9c-3.2,6.1-5.1,9.1-7.2,10.1
		c0,0,1,1.6,4.5,1.6c3.5,0,2.6,0.3,5.4-0.8c2.9-1.1,2.9,0,6.6,0.2v46H81h2.6v-46c3.7-0.2,3.7-1.3,6.6-0.2c2.9,1.1,1.9,0.8,5.4,0.8
		c3.5,0,4.5-1.6,4.5-1.6c-2.1-1-4-4-7.2-10.1c-3.2-6.1-0.6-10.2,3.2-14.9c3.8-4.6,14.1-10.9,19-15.2c5-4.3,6.9-0.6,6.9-0.6
		c1.3-4.2-1-5.9-1.1-8.3c-0.2-2.4,3.2,0.6,3.2,0.6c0.8,4-2.2,13.6-2.2,13.6c5-2.9,5.9-13.6,5.9-13.6c4.6,7.4,2.6,13.6,2.6,13.6
		c2.6-1,2.7-3.8,2.7-3.8c0-8-4.2-13.4-2.6-12.2c1.6,1.3,3.8,3.4,3.8,6.1c0,2.7,1.9,6.1,1.9,6.1c3-7.2-0.6-10.7-1.4-12.2
		c-0.8-1.4-2.9-3.2-1.3-3.2c1.6,0,4,0.5,4.2,1.8c0.2,1.3,1.6,2.2,1.6,2.2S139.1,74.3,139.2,71.6z"/>
</g>
</svg>
