<?xml version="1.0" encoding="utf-8"?>
<!-- Generator: Adobe Illustrator 19.1.0, SVG Export Plug-In . SVG Version: 6.00 Build 0)  -->
<svg version="1.1" id="Layer_1" xmlns="http://www.w3.org/2000/svg" xmlns:xlink="http://www.w3.org/1999/xlink" x="0px" y="0px"
	 viewBox="-68 69.4 162.9 163.6" style="enable-background:new -68 69.4 162.9 163.6;" xml:space="preserve">
<style type="text/css">
	.st0{fill:#CCCC52;}
	.st1{fill:#5270CC;}
</style>
<circle class="st0" cx="13.3" cy="150.7" r="81.4"/>
<path class="st1" d="M-68.1,138.4c5-2.1,22.5-13.1,23-18.2c0.5-5.1,7.8-11.9,7.8-11.9c-1.2-0.7-4.6-10.1-4.8-14.5
	c-0.2-4.4-8.3-11.2-8.3-11.2l2.1-1.8c8,0.2,17.5,25.1,17.5,25.1c6-0.9,10.6-3.3,15.2-5.5s1.7-10.2,1.7-10.2h2.7
	c0,0,1.1,6.4,2.7,10.2c0.7,1.7-0.9,3.1-2,4.1c-1.5,1.3-3.3,2.2-5,3.1c-0.9,0.5-2,0.8-3,0.8c-0.5,0-1,0.3-1.4,0.4
	c-0.5,0.1-1,0.3-1.4,0.5c-0.9,0.3-1.8,0.7-2.7,1.2c-1.8,0.9-3.3,2.2-4.7,3.7c-1.5,1.6-2.8,3.4-4,5.2c-1.1,1.8-2.2,3.6-2.9,5.6
	c-0.6,1.8-0.9,3.6-1.1,5.4c0,0.2-0.1,0.4-0.1,0.6c0.5,9.2-3.1,16.7-3.1,16.7c7.7-0.3,50.2,9.8,50.2,9.8c38.9,7.4,40.1,1.4,40.1,1.4
	c0-3.8,4.6-9.5,9.6-14.5c5.1-5,7-9.8,7-9.8c2.5,7.7-7.5,17.6-8.9,18c-1.4,0.4-2.3,4.6,4.6,8.6c6.9,4,15.6,7.5,15.6,7.5v4L67,168.9
	l3.5,9.3c-5.8-0.5-5.8-5-8.9-7.6c-3.1-2.6-17.2-1.7-23.3,0c-6.1,1.7-15.6,0.7-18.5,0c-2.9-0.7,2.9,9,4,10.5s4.4,11.6,7.3,14.1
	c2.8,2.5-0.4,5.5-1.4,3.7s-4.7-4-4.7-4c0.1-4-7.3-9.4-7.3-9.4s1,8.1-1.4,11c-2.5,2.9-14.3,2.3-14.3,2.3l-1.8-4.3c0,0,6,2.2,11.6-2.2
	c5.5-4.4-2.3-16.7-6.7-21.8c-4.4-5-20-6-27-4.3s-23.3,2.4-23.3,2.4c-3.2,2.3,5.1,17.9,8.7,24.8c3.7,6.9-4.6,23-4.6,23h-27V138.4z"/>
</svg>
