<?xml version="1.0" encoding="utf-8"?>
<!-- Generator: Adobe Illustrator 19.1.0, SVG Export Plug-In . SVG Version: 6.00 Build 0)  -->
<svg version="1.1" id="Layer_1" xmlns="http://www.w3.org/2000/svg" xmlns:xlink="http://www.w3.org/1999/xlink" x="0px" y="0px"
	 viewBox="-68 69.4 162.9 163.6" style="enable-background:new -68 69.4 162.9 163.6;" xml:space="preserve">
<style type="text/css">
	.st0{fill:#E6E6E6;}
	.st1{fill:#3A3A3A;}
	.st2{fill:#293866;}
	.st3{fill:#FAFAFA;}
</style>
<circle class="st0" cx="13.5" cy="151.2" r="81.4"/>
<g>
	<path class="st1" d="M6.2,104.8c-0.1,0.3-1,0.5-1.8-0.3c0,0-1.1-0.9,0-1.6c0,0,1,0,1.4,0.5S6.3,104.5,6.2,104.8z"/>
	<path class="st1" d="M0.8,104.5C0,105.3-1,105.1-1,104.8c-0.1-0.3,0-0.9,0.4-1.4s1.4-0.5,1.4-0.5C1.9,103.6,0.8,104.5,0.8,104.5z"
		/>
	<path class="st1" d="M21.8,173.4c1.7,1,3.6,0.9,5.1-2.4c3.1-6.9,7.2-25.4,0.1-36.5c-0.5-0.8-1-1.5-1.6-2.2
		c-0.5-0.6-1.1-1.2-1.7-1.7c0,0-6.7-13.8-8.3-15.4c-1.6-1.6-7.8-2.5-9-2.5c0,0,5.5-0.9,5.9-2.5c0,0,1.8-2.9-2.3-10.2
		c0,0-3.3-7.2-7.6-7.3c0,0-2.6-0.5-6.6,5.2c0,0-6.3,9.1-3.5,12.7c0,0,1.2,1.9,5.5,2.5c0,0-8,0.9-9.9,4.8c-1.9,4-3.2,18.7-3.5,29.5
		c-0.2,10.8,1.6,20.9,2.1,21.8c0,0-3.4,44.7-4.6,52.1c0,0,6,2.5,10.8,1.8s-1.6,0,7.3,0.1s9.4,1.5,12.8,0c0.2-0.1,0.3-0.1,0.5-0.2
		c1.1-0.5,1.6-0.8,2-1c0.7-0.3,1.3-0.5,4.2-1c4.8-0.9,5.5-2.5,6.2-2.5c0.5,0-2.8-19.5-5.4-34.3l0,0c-0.4-2.2-0.8-4.2-1.1-6.1
		c-0.8-4.6-1.5-8.1-1.8-9.6c0,0,1.1,1.9,2.6,3.4C20.6,172.5,21.2,173,21.8,173.4z M-7.8,136.4c-0.8,6.4-5.6,32.7-5.8,33.5
		c0.1-0.7,3.3-24.6,4.2-28.5s0.9-11.9,0.9-13.7c0-1.7,0.7-2.6,0.7-2.6S-7,129.9-7.8,136.4z M-0.2,112c-4.9-0.3-5.6-1.6-5.6-1.6
		c-2.1-1.9,0.6-3.9,0.6-3.9c0.8-0.3,1.4-0.7,2-1.3c0.4-0.4,0.7-0.9,1.1-1.6s0.9-1.5,1.4-2.6c2.1-4,2.9-3.4,4-3
		c1.1,0.3,2.1,3.3,2.1,3.3c0.7,1.5,1.9,2.6,3,3.8c0.8,0.9,1.6,1.9,2,3.3c1.1,3.3-5.6,3.6-5.6,3.6H-0.2z M18.7,163.4
		c0,0-4-9.6,0.5-25.9c0,0,2.4-6.4,5.5-5c0,0-2.2,1.7-2.8,3.5C21.8,135.9,16.4,149.9,18.7,163.4z"/>
	<path class="st1" d="M4.9,112c0,0,0.1-0.2,0.1-1c0-0.7,0.1-1.1,0.7-1.3c0.6-0.3,1.6-1.1,1.6-1.1c0.7-0.5,1.1-3.5,1.1-3.5
		c0.8,0.9,1.6,1.9,2,3.3C11.6,111.7,4.9,112,4.9,112z"/>
	<path class="st1" d="M6.2,104.8c-0.1,0.3-1,0.5-1.8-0.3c0,0-1.1-0.9,0-1.6c0,0,1,0,1.4,0.5S6.3,104.5,6.2,104.8z"/>
	<path class="st1" d="M0.8,104.5C0,105.3-1,105.1-1,104.8c-0.1-0.3,0-0.9,0.4-1.4s1.4-0.5,1.4-0.5C1.9,103.6,0.8,104.5,0.8,104.5z"
		/>
	<path class="st1" d="M0.3,112h-0.5c-4.9-0.3-5.6-1.6-5.6-1.6c-2.1-1.9,0.6-3.9,0.6-3.9c0.8-0.3,1.4-0.7,2-1.3c0,0.3,0.4,3,1.1,3.5
		c0,0,1,0.8,1.6,1.1c0.6,0.3,0.8,0.6,0.7,1.3C0.2,111.7,0.3,112,0.3,112z"/>
	<g>
		
			<rect x="21.8" y="93.2" transform="matrix(-0.9913 -0.1316 0.1316 -0.9913 24.4144 319.1985)" class="st1" width="1.9" height="131.2"/>
		<path class="st1" d="M32.1,95.6c0,0,46.9,9.1,46.4,29.6c0,0-7.4-19.7-47.1-24.5L32.1,95.6z"/>
	</g>
	<path class="st1" d="M6.2,104.8c-0.1,0.3-1,0.5-1.8-0.3c0,0-1.1-0.9,0-1.6c0,0,1,0,1.4,0.5S6.3,104.5,6.2,104.8z"/>
	<path class="st1" d="M0.8,104.5C0,105.3-1,105.1-1,104.8c-0.1-0.3,0-0.9,0.4-1.4s1.4-0.5,1.4-0.5C1.9,103.6,0.8,104.5,0.8,104.5z"
		/>
</g>
<circle class="st0" cx="13.6" cy="151.2" r="81.4"/>
<g>
	<path class="st1" d="M61,171c-6.5,24.6-30.2,39.7-63.2,30.9c-33-8.7-45.3-33.3-38.8-57.9c5.9-22.2,25-36.8,52.9-33.1
		c1.1,0.1,2.2,0.3,3.3,0.5l0,0c1.2,0.2,2.4,0.5,3.6,0.7c0.8,0.2,1.7,0.4,2.5,0.6c0.7,0.2,1.3,0.4,2,0.6c1.5,0.4,3,0.9,4.5,1.4
		c0.1,0,0.2,0.1,0.3,0.1C56.1,125.2,67,148.2,61,171z"/>
	<path class="st1" d="M-17.2,176.8l-0.8,3c-0.1,0.4-0.3,0.8-0.6,1.2c-2.7-2.5-4.6-5.3-6.1-8c0.6-0.6,1.4-0.9,2.2-0.7l3.7,1
		C-17.5,173.7-16.7,175.2-17.2,176.8z"/>
	<path class="st1" d="M6.5,191l-0.3,1.3c-1.6-0.3-3.3-0.7-5.1-1.1c-1.8-0.5-3.4-1-5-1.6l0.3-1.3c0.4-1.6,2-2.5,3.6-2.1l4.5,1.2
		C6,187.8,6.9,189.4,6.5,191z"/>
	<path class="st1" d="M-2.9,175.9l-0.2,0.6c-0.4,1.6-2,2.5-3.6,2.1l-4.5-1.2c-1.6-0.4-2.5-2-2.1-3.6l0.8-3c0-0.1,0.1-0.2,0.1-0.4
		C-8.9,173-5.7,174.7-2.9,175.9z"/>
	<path class="st1" d="M-17.2,176.8l-0.8,3c-0.1,0.4-0.3,0.8-0.6,1.2c-2.7-2.5-4.6-5.3-6.1-8c0.6-0.6,1.4-0.9,2.2-0.7l3.7,1
		C-17.5,173.7-16.7,175.2-17.2,176.8z"/>
	<path class="st0" d="M45.3,171.4c0,0-3.1,10.3-13,16.6c-0.2-0.8-0.8-1.4-1.6-1.6l-3.7-1c-1.3-0.3-2.7,0.6-3.1,2.2l-0.8,3
		c-0.1,0.4-0.1,0.9-0.1,1.3c-4.7,1.2-10.3,1.4-16.9,0.3l0.3-1.3c0.4-1.6-0.5-3.2-2.1-3.6l-4.5-1.2c-1.6-0.4-3.2,0.5-3.6,2.1
		l-0.3,1.3c-6.4-2.3-11.1-5.3-14.6-8.6c0.3-0.3,0.4-0.7,0.6-1.2l0.8-3c0.4-1.6-0.3-3.1-1.6-3.4l-3.7-1c-0.8-0.2-1.6,0.1-2.2,0.7
		c-5.5-10.5-3.1-20.9-3.1-20.9c4.5,8.6,10.1,14.4,15.4,18.3c-0.1,0.1-0.1,0.2-0.1,0.4l-0.8,3c-0.4,1.6,0.5,3.2,2.1,3.6l4.5,1.2
		c1.6,0.4,3.2-0.5,3.6-2.1l0.2-0.6c4.4,1.9,7.4,2.4,7.4,2.4s2.8,1.1,7.6,1.5l-0.2,0.6c-0.4,1.6,0.5,3.2,2.1,3.6l4.5,1.2
		c1.6,0.4,3.2-0.5,3.6-2.1l0.8-3c0-0.1,0.1-0.3,0.1-0.4C29.4,178.9,37.1,176.6,45.3,171.4z"/>
	<path class="st1" d="M22.8,180.1l-0.8,3c-0.4,1.6-2,2.5-3.6,2.1l-4.5-1.2c-1.6-0.4-2.5-2-2.1-3.6l0.2-0.6c2.9,0.3,6.6,0.4,10.8-0.2
		C22.9,179.9,22.8,180,22.8,180.1z"/>
	<path class="st1" d="M32.3,188.1c-2.6,1.7-5.6,3.1-9.2,3.9c-0.1-0.4,0-0.9,0.1-1.3l0.8-3c0.4-1.6,1.8-2.5,3.1-2.2l3.7,1
		C31.5,186.6,32.1,187.3,32.3,188.1z"/>
	<path class="st1" d="M18.9,113.6c0.7,0.2,1.5,0.4,2.2,0.6c0.9,0.2,1.8,0.5,2.7,0.8c0.3-1.5,1-3.4,2-5.6c0.8-1.6,1.7-3.3,3-5.3
		c0,0,3.4-3.3,7.9-2.1c0,0,2.7-3-1.6-6.7c0,0-9.1-2.1-14.1,10.7C20.2,108.1,19.5,110.6,18.9,113.6z"/>
	<polygon class="st0" points="-14.1,143 5.3,144.9 -2.7,126.9 	"/>
	<polygon class="st0" points="38.7,156.9 20.9,149.1 36.7,137.3 	"/>
</g>
<circle class="st2" cx="13.7" cy="151.2" r="81.4"/>
<path class="st3" d="M53.4,131.6l-8.5-3.1c0,0,7.6-1.3,9.8-1.8c2.2-0.5-0.1-1.2-0.1-1.2l-10.6-1.3c0,0,8.2-1.6,10.7-2.6
	c2.5-0.9-0.5-1.7-0.5-1.7l-9.2,0.5c0.3,0,5.4-1,8.6-2.6c3.5-1.7-1.4-2.4-1.4-2.4l-11.4,2.4c0.2-0.1,6.3-2.4,9-5.1s-1.7-2.4-1.7-2.4
	l-9.8,4.2c1.3-0.6,7.4-3.5,9.1-5.7c1.8-2.4-1.8-2.2-1.8-2.2l-9.8,6.3c0.5-0.4,4.3-3.1,6.5-6.1c2.4-3.2-1.6-2.1-1.6-2.1l-8.2,7.7
	c0.1-0.2,2-2.2,4.1-5.2c2.3-3.1-1.2-2.1-1.2-2.1s-12.7,15.3-17,20.2c-4.4,4.9-5.1,8.3-5.7,11.1c-0.7,2.9-2.8,10.4-7.5,21.5l0,0
	c0-0.2,0.1-0.3,0.1-0.5c0,0-0.3,0.3-0.7,1l0,0.1l2.3-9.8c0,0,0.5-0.7-4.3-6.2c-2.4-2.8-6.2-7.1-10-11c0-0.1,0-0.1,0-0.1
	c-0.9-0.9-1.8-1.8-2.7-2.7c-0.8-0.8-1.7-1.5-2.4-2.2c-1.8-1.6-3.3-2.8-4.6-3.5c0,0-1.3,0.5,3.9,5.3c0.5,0.5,1.1,1,1.8,1.7l-2-0.7
	l-7.6-2.4c0,0-2,0,0.1,1.3c1.4,0.9,5,2.5,7,3.5c0.8,0.4,1.4,0.6,1.4,0.6s-0.6-0.2-1.4-0.4c-2.6-0.9-7.9-2.6-8.7-2.6
	c0,0-1.1,0.8,8.5,4.2c0.3,0.1,0.6,0.2,0.9,0.3l-0.9-0.2l-8.9-2.3c0,0-2.1,0.2-0.3,1.4c1.3,0.8,5.7,3,9.1,4.2c0.7,0.3,1.4,0.4,2,0.6
	c0.3,0.1,0.6,0.1,0.9,0.2l-0.8,0.1l-2,0.3l-8.3,1.4c0,0-2.3,1.7,0.2,1.7c1.6,0.1,5.2,1.1,8.2,0.8c0.7,0,1.5-0.2,2.1-0.4
	c0.7-0.2,1.2-0.6,1.7-1.1c0,0,0,1.1-1.5,2.5c-0.5,0.4-1.2,1-2,1.4c-1.5,0.9-3.7,1.7-6.8,2.4c0,0-3.9,1.4,0.4,2.2c0,0,3.4,0.5,7.1-1
	c0.7-0.2,1.4-0.6,2.1-1c0.4-0.2,0.7-0.5,1.1-0.8c0,0,1.2,0.6-0.7,2.8c-0.4,0.5-1.1,1.2-2,1.9c-0.9,0.7-1.9,1.5-3.3,2.5
	c0,0-4.9,2.2-2.6,2.8c0,0,2.6,0.5,6.7-2.4c0.6-0.5,1.3-1,2-1.6c0.3-0.2,0.5-0.5,0.8-0.7c0,0-0.1,0.6-0.6,1.5
	c-0.4,0.7-0.9,1.7-1.6,2.6c-0.4,0.4-0.8,0.8-1.3,1.1c0,0-2.6,2.8,0.2,1.8c0.6-0.2,1.2-0.3,2-0.5l0,0c0.8-0.1,1.6-0.2,2.3-0.4
	c2.2-0.4,4.1-1,5-2.5c0,0-0.3,8.3-2.5,10.8c-2.5,1.7-3.9,3.4-3.9,3.4s-0.2,0.5-0.4,1.1c0,0-5.6,0-6.1,4c-0.5,4-1.2,7.1-0.8,7.1
	c0,0,1.7-2.3,2.9-2.8c1.3-0.5,2-1.3,2.4-1.3c0,0,6.7,0,8.9,2.1c0.5,0.4,0.9,0.9,1.3,1.3c0,0-1.4,6-0.5,7c0,0,0.3,0.2,0.7,0.4
	c-0.5,4.8-3.3,5.2-3.3,5.2c-2.5,0.5-3,2.2-3,2.2c0.1,0.4,1.8,1.1,1.8,1.1c-0.7-0.9-0.6-1.3-0.6-1.3s1.7-1,3.3-1.4
	c1.3-0.2,2.1,1,2.4,1.5c-0.3,0.1-0.5,0.1-0.5,0.1c-3.1,0.3-3.8,2.2-3.8,2.2c0.1,0.5,2,1.6,2,1.6c-0.8-1.1-0.6-1.6-0.6-1.6
	s2.1-1,4.1-1.2c2-0.1,2.8,2.3,2.8,2.3c0.6-1-0.4-2.7-0.4-2.7l1.9-4.7c0.3,2.2,0.9,6.4,2.4,7.1c2.1,1,1.8-1.3,1.8-1.3
	c0.8,1.2,2.7,2.7,4,2.7c0.7,0,0.6-0.5,0.3-0.9c-0.2-0.3-0.4-0.5-0.5-0.8c0,0,0.3,0.4,0.5,0.8c0.9,1,2.3,1.8,3,1.6
	c0.8-0.2-0.1-1.6-0.3-1.8c0.2,0.4,2.1,2.8,3.5,2.5c0.9-0.2,0.5-0.9,0.2-1.5c-0.1-0.2-0.3-0.4-0.6-0.6c0,0,0.3,0.3,0.6,0.6
	c2,2.3,3,2.4,3.7,2.3c0.5-0.1-0.3-1.6-0.8-2.3c0.4,0.7,1.5,2.2,2.9,2.5c1.8,0.4,1.9-0.4,1.9-0.4l-1.8-2.6c3,3.1,4.1,2.4,4.1,2.4
	c1.6,0,0.1-1.9,0.1-1.9l-17.2-22.6c1.5,0.2,2.6,0.2,2.6,0.2c4.6,5.7,9.2,1,11-0.8c1.9-1.8,4.7-4.3,11.6-14.6
	C44.6,152.2,45,136,45,136c0.2-1.3,3.4-2,7-2.5C55.5,133.2,53.4,131.6,53.4,131.6z M22.4,200c-0.1-0.1-0.1-0.2-0.1-0.3
	C22.2,199.8,22.2,199.9,22.4,200z M-0.5,195.8c0.2-0.9-0.7-1.9-0.7-1.9l1.2-4l0,0l0.2-1c0.6,0,1.4-0.2,2.1-0.8
	c0.2,0.7,0.6,1.4,1,1.6C2.6,194.2,0.6,195.4-0.5,195.8z"/>
</svg>
