<?xml version="1.0" encoding="utf-8"?>
<!-- Generator: Adobe Illustrator 19.1.0, SVG Export Plug-In . SVG Version: 6.00 Build 0)  -->
<svg version="1.1" id="Layer_1" xmlns="http://www.w3.org/2000/svg" xmlns:xlink="http://www.w3.org/1999/xlink" x="0px" y="0px"
	 viewBox="-68 69.4 162.9 163.6" style="enable-background:new -68 69.4 162.9 163.6;" xml:space="preserve">
<style type="text/css">
	.st0{fill:#141C33;}
	.st1{fill:#E6E6E6;}
</style>
<circle class="st0" cx="13.7" cy="150.8" r="81.4"/>
<g>
	<path class="st1" d="M57.2,149.6c0,0-0.9,1.7-3.7,2.2c-2.8,0.5-3.9-1.4-3.9-1.4s-5-1.2-5.3,3.1c0,0-2.9,6.8-9.5,10.4
		c0,0,7.7-0.2,9.3,3.5c-0.2-0.1-9.9-3.4-12.4,0.8c0,0-2.1,7.5,5.4,18.5c0,0,8.1,15.1,5.8,27.6c0,0-2,12.4,5.2,19.7H2.3
		c0,0,7-7.3,4.3-17s0.2-17.4-1.8-26.7C4,186.6,3,183,2.2,179.2c-1.2-5.7-1.7-11.6,0.2-17.9C5.5,150.9-8,148.5-3.4,140
		s21.7-12,15.5-22c0,0-9.3-11.2-16.4,1.9c0,0-1.3-3.5,3.3-7.3c0,0,3.7-3.9,9.6-1.5c0,0-1-4.4,1.2-6.4c0,0-0.4,5.6,3.7,8.3
		c0,0,5.2,3.1,6.2,5.8c0,0,7-10.2,7-14.1s2.5-10.1-3.3-16.2c0,0,5.8,3.2,6.4,7.5c0.5-1.3,1.2-2.5,1.9-3.7c1.4-2.4,2.7-5,5-6.8
		c1.2-0.9,2.5-1.5,3.8-2.2c1.5-0.8,3.8,0.2,5.3,0.5c0.9,0.2,1.9,0.3,2.8,0.5v2.3c0,0-4.1-1.7-6.4-0.9c-2.3,0.9-6.1,0.6-8.1,6.7
		c0,0-4.1,7.3-4.9,18.5s-8.5,16.6-12.8,21.3c-4.3,4.6-9.7,10.1-5,13.5c4.6,3.5,9.4,7.9,10.7,12.7c0,0,7.1-1.5,15.6-8.8
		c0,0,6.6-7.7,14.3-0.4C51.8,149.2,53,151.2,57.2,149.6z"/>
	<path class="st1" d="M2.1,179.1C-9.4,178.6-16,164.7-16,164.7c-3.2-6.4-7.8-2.4-7.8-2.4c-6.9,10.5-18,8.7-21.8,9.8
		c-3.8,1.2-5.5,3.2-3.8,7.8s-0.6,7.8-0.6,7.8c0.3-3.2-5.8-11.3-5.8-11.3c-1.7-2.9,2.9-5.2,2.9-5.2l9.3-5.5c-2,0.9-4.9,0-4.9,0
		c-5.5-2.3-8.4,0-8.4,0c-1.2-3.5,0-4.6,0-4.6c1.5-2,13.6,1.2,16.5,1.7c2.9,0.6,6.7,1.5,9.3-4.5c2.6-5.9,8.1-8.9,14.2-8.3
		s19.2,11.1,19.2,11.1C0.4,167.5,1,173.4,2.1,179.1z"/>
</g>
</svg>
