<?xml version="1.0" encoding="utf-8"?>
<!-- Generator: Adobe Illustrator 19.1.0, SVG Export Plug-In . SVG Version: 6.00 Build 0)  -->
<svg version="1.1" id="Layer_1" xmlns="http://www.w3.org/2000/svg" xmlns:xlink="http://www.w3.org/1999/xlink" x="0px" y="0px"
	 viewBox="0 0 162.9 163.6" style="enable-background:new 0 0 162.9 163.6;" xml:space="preserve">
<style type="text/css">
	.st0{fill:#E6E6E6;}
	.st1{fill:#3A3A3A;}
</style>
<circle class="st0" cx="81.5" cy="81.8" r="81.4"/>
<g>
	<path class="st1" d="M74.2,35.4c-0.1,0.3-1,0.5-1.8-0.3c0,0-1.1-0.9,0-1.6c0,0,1,0,1.4,0.5C74.2,34.5,74.3,35.1,74.2,35.4z"/>
	<path class="st1" d="M68.8,35.1C68,35.9,67,35.7,67,35.4c-0.1-0.3,0-0.9,0.4-1.4c0.4-0.5,1.4-0.5,1.4-0.5
		C69.9,34.2,68.8,35.1,68.8,35.1z"/>
	<path class="st1" d="M89.8,104c1.7,1,3.6,0.9,5.1-2.4c3.1-6.9,7.2-25.4,0.1-36.5c-0.5-0.8-1-1.5-1.6-2.2c-0.5-0.6-1.1-1.2-1.7-1.7
		c0,0-6.7-13.8-8.3-15.4c-1.6-1.6-7.8-2.5-9-2.5c0,0,5.5-0.9,5.9-2.5c0,0,1.8-2.9-2.3-10.2c0,0-3.3-7.2-7.6-7.3c0,0-2.6-0.5-6.6,5.2
		c0,0-6.3,9.1-3.5,12.7c0,0,1.2,1.9,5.5,2.5c0,0-8,0.9-9.9,4.8C54,52.5,52.7,67.2,52.4,78c-0.2,10.8,1.6,20.9,2.1,21.8
		c0,0-3.4,44.7-4.6,52.1c0,0,6,2.5,10.8,1.8c4.8-0.7-1.6,0,7.3,0.1c8.9,0.1,9.4,1.5,12.8,0c0.2-0.1,0.3-0.1,0.5-0.2
		c1.1-0.5,1.6-0.8,2-1c0.7-0.3,1.3-0.5,4.2-1c4.8-0.9,5.5-2.5,6.2-2.5c0.5,0-2.8-19.5-5.4-34.3v0c-0.4-2.2-0.8-4.2-1.1-6.1
		c-0.8-4.6-1.5-8.1-1.8-9.6c0,0,1.1,1.9,2.6,3.4C88.6,103.1,89.2,103.6,89.8,104z M60.2,67c-0.8,6.4-5.6,32.7-5.8,33.5
		c0.1-0.7,3.3-24.6,4.2-28.5c0.9-3.9,0.9-11.9,0.9-13.7c0-1.7,0.7-2.6,0.7-2.6S61,60.5,60.2,67z M67.8,42.6
		c-4.9-0.3-5.6-1.6-5.6-1.6c-2.1-1.9,0.6-3.9,0.6-3.9c0.8-0.3,1.4-0.7,2-1.3c0.4-0.4,0.7-0.9,1.1-1.6c0.4-0.7,0.9-1.5,1.4-2.6
		c2.1-4,2.9-3.4,4-3c1.1,0.3,2.1,3.3,2.1,3.3c0.7,1.5,1.9,2.6,3,3.8c0.8,0.9,1.6,1.9,2,3.3c1.1,3.3-5.6,3.6-5.6,3.6H67.8z M86.7,94
		c0,0-4-9.6,0.5-25.9c0,0,2.4-6.4,5.5-5c0,0-2.2,1.7-2.8,3.5C89.8,66.5,84.4,80.5,86.7,94z"/>
	<path class="st1" d="M72.9,42.6c0,0,0.1-0.2,0.1-1c0-0.7,0.1-1.1,0.7-1.3c0.6-0.3,1.6-1.1,1.6-1.1c0.7-0.5,1.1-3.5,1.1-3.5
		c0.8,0.9,1.6,1.9,2,3.3C79.6,42.3,72.9,42.6,72.9,42.6z"/>
	<path class="st1" d="M74.2,35.4c-0.1,0.3-1,0.5-1.8-0.3c0,0-1.1-0.9,0-1.6c0,0,1,0,1.4,0.5C74.2,34.5,74.3,35.1,74.2,35.4z"/>
	<path class="st1" d="M68.8,35.1C68,35.9,67,35.7,67,35.4c-0.1-0.3,0-0.9,0.4-1.4c0.4-0.5,1.4-0.5,1.4-0.5
		C69.9,34.2,68.8,35.1,68.8,35.1z"/>
	<path class="st1" d="M68.3,42.6h-0.5c-4.9-0.3-5.6-1.6-5.6-1.6c-2.1-1.9,0.6-3.9,0.6-3.9c0.8-0.3,1.4-0.7,2-1.3
		c0,0.3,0.4,3,1.1,3.5c0,0,1,0.8,1.6,1.1c0.6,0.3,0.8,0.6,0.7,1.3C68.2,42.3,68.3,42.6,68.3,42.6z"/>
	<g>
		
			<rect x="89.8" y="23.8" transform="matrix(0.9913 0.1316 -0.1316 0.9913 12.5593 -11.1724)" class="st1" width="1.9" height="131.2"/>
		<path class="st1" d="M100.1,26.2c0,0,46.9,9.1,46.4,29.6c0,0-7.4-19.7-47.1-24.5L100.1,26.2z"/>
	</g>
	<path class="st1" d="M74.2,35.4c-0.1,0.3-1,0.5-1.8-0.3c0,0-1.1-0.9,0-1.6c0,0,1,0,1.4,0.5C74.2,34.5,74.3,35.1,74.2,35.4z"/>
	<path class="st1" d="M68.8,35.1C68,35.9,67,35.7,67,35.4c-0.1-0.3,0-0.9,0.4-1.4c0.4-0.5,1.4-0.5,1.4-0.5
		C69.9,34.2,68.8,35.1,68.8,35.1z"/>
</g>
</svg>
