<?xml version="1.0" encoding="utf-8"?>
<!-- Generator: Adobe Illustrator 19.1.0, SVG Export Plug-In . SVG Version: 6.00 Build 0)  -->
<svg version="1.1" id="Layer_1" xmlns="http://www.w3.org/2000/svg" xmlns:xlink="http://www.w3.org/1999/xlink" x="0px" y="0px"
	 viewBox="-68 69.4 162.9 163.6" style="enable-background:new -68 69.4 162.9 163.6;" xml:space="preserve">
<style type="text/css">
	.st0{fill:#CC6666;}
	.st1{fill:#E6E6E6;}
</style>
<circle class="st0" cx="13.7" cy="150.8" r="81.4"/>
<g>
	<path class="st1" d="M57.5,165.1c0,0-1.3,1.4-4.2,1.1c-2.8-0.3-3.4-2.4-3.4-2.4s-4.5-2.5-5.9,1.6c0,0-4.6,5.8-11.9,7.5
		c0,0,7.5,1.8,8,5.8c-0.2-0.1-8.6-5.9-12.2-2.5c0,0-4,6.7,0.3,19.3c0,0,3.8,16.7-1.7,28.2c0,0-5.2,11.4-0.2,20.4L-17.7,232
		c0,0,8.7-5.2,8.6-15.3s4.8-16.7,5.3-26.2c0.2-3.8,0.2-7.5,0.4-11.4c0.3-5.8,1.4-11.6,4.9-17.2c5.7-9.2-6.6-15.1,0-22.1
		s24.1-5.8,20.8-17.1c0,0-6-13.3-16.3-2.5c0,0-0.3-3.7,5.1-6.2c0,0,4.6-2.8,9.7,1.1c0,0,0.2-4.5,2.8-5.9c0,0-1.9,5.3,1.4,9
		c0,0,4.2,4.4,4.4,7.2c0,0,9.4-8,10.5-11.7c1-3.8,5.1-9.1,1.1-16.5c0,0,4.7,4.6,4.2,8.9c0.8-1.1,1.8-2.1,2.8-3.1
		c2-1.9,3.9-4.1,6.6-5.2c1.4-0.6,2.8-0.8,4.2-1.1c1.7-0.4,3.6,1.2,5,1.9c0.8,0.4,1.8,0.8,2.6,1.2l-0.6,2.2c0,0-3.5-2.7-5.9-2.6
		c-2.5,0.3-6-1-9.6,4.3c0,0-5.9,6-9.6,16.5s-12.6,13.8-18,17.2c-5.4,3.3-12,7.2-8.4,11.7c3.5,4.6,7,10.1,7,15.1
		c0,0,7.2,0.4,17.4-4.4c0,0,8.4-5.7,13.9,3.4C52.4,163.3,53,165.5,57.5,165.1z"/>
	<path class="st1" d="M-3.4,179c-11-3.5-13.6-18.7-13.6-18.7c-1.4-7-6.9-4.4-6.9-4.4c-9.4,8.3-19.7,3.6-23.6,3.7
		c-4,0.2-6.2,1.6-5.7,6.5c0.4,4.9-2.6,7.4-2.6,7.4c1.1-3-2.6-12.4-2.6-12.4c-0.9-3.2,4.2-4.2,4.2-4.2l10.4-2.8
		c-2.2,0.3-4.7-1.3-4.7-1.3c-4.7-3.7-8.1-2.2-8.1-2.2c-0.2-3.7,1.2-4.4,1.2-4.4c2-1.5,12.8,4.8,15.5,6c2.6,1.3,6.1,3.2,10.2-1.9
		c4.1-5,10.2-6.4,15.9-4.3c5.7,2.2,15.6,15.8,15.6,15.8C-2,167.3-3,173.2-3.4,179z"/>
</g>
</svg>
