<?xml version="1.0" encoding="utf-8"?>
<!-- Generator: Adobe Illustrator 19.1.0, SVG Export Plug-In . SVG Version: 6.00 Build 0)  -->
<svg version="1.1" id="Layer_1" xmlns="http://www.w3.org/2000/svg" xmlns:xlink="http://www.w3.org/1999/xlink" x="0px" y="0px"
	 viewBox="0 0 162.9 162.9" style="enable-background:new 0 0 162.9 162.9;" xml:space="preserve">
<style type="text/css">
	.st0{fill:#E6E6E6;}
	.st1{fill:#3A3A3A;}
</style>
<circle class="st0" cx="81.4" cy="81.4" r="81.4"/>
<g>
	<g>
		<path class="st1" d="M85,38.3c0.7,0.8,1.6,2.1,1.1,2.9c-0.2,0.5-0.7,1.6-1,2.6c-0.2,0.6-0.3,1.3-0.3,1.7c0,0,0,0.1,0,0.1
			c0,0,0,0,0,0.1l0,0c0,0,0,0.1,0,0.1c0.4,1.1,3.8,1,7.5-0.4c3.7-1.4,6.4-3.4,6-4.6c0,0,0,0,0-0.1l0,0c0,0,0,0,0,0
			c-0.1-0.1-0.1-0.2-0.2-0.3c-0.2-0.3-0.6-0.7-1.1-1.1c-0.4-0.3-0.8-0.7-1.3-1c-1.5-0.9-1.7-0.6-2.7-2.8c-1-2.2-0.8-1.8-2.6-2.7
			c-1.8-0.9-1.8-1.5-2.1-2.2c-0.3-0.7-4.7-4.2-9.4-2.9c0,0-1.8-0.1-0.7,1c1.1,1.1,2,1.1,2.8,1.8c0.8,0.7,0.5,0.5,1.3,1.9
			C83.1,33.9,84.3,37.5,85,38.3z"/>
		<path class="st1" d="M100.9,45.3c-1.9,1.2-4.3,2.3-6.9,3.3c-3,1.1-5.8,1.8-8.1,2.1c-3.2,0.4-5.4,0-5.9-1.2
			c-0.5-1.4,1.4-3.4,4.6-5.4c-0.2,0.7-0.4,1.4-0.4,1.9c0,0,0,0.1,0,0.1c0,0,0,0,0,0.1l0,0c0,0,0,0.1,0,0.1c0.3,0.9,2.3,1,4.9,0.5
			c1-0.2,2.1-0.5,3.3-1c4.1-1.5,7-3.7,6.5-5c0,0,0,0,0-0.1l0,0c0,0,0,0,0,0c-0.1-0.1-0.1-0.2-0.3-0.3c-0.3-0.3-0.7-0.8-1.2-1.2
			c4.1-0.8,7.2-0.5,7.7,0.9C105.6,41.4,103.9,43.4,100.9,45.3z"/>
	</g>
	<path class="st1" d="M119,92.2c-0.8,2.5-8.4,3.4-10.1,1.4c-1.7-2-7.9-11.3-7.9-11.3s-7-2.5-9.3-2.7c-2.3-0.1-2.3-0.1-2.3-0.1
		L84.7,86c0,0,1.4,2,6.8,0.3c5.3-1.7,9.9-2.1,13.2,5.3l5.9,11c0,0-1.1,2.8-4.2,2.8c-0.3,0-0.5,0-0.7,0c-2.6,0.2-3.7,1.8-6.1,3.6
		c-2.7,2-5.8,3.7-5.8,3.7c-0.9,0.1-1.6-0.1-2.3-0.4c-1.6-0.7-3-2.4-4.1-4c-1.4-2-2.5-4-3.7-4.6c-1.3-0.7-6.4-1.2-11.2-1.5
		c0,0,0,0,0,0c-7.4-1.1-9.3-4.4-9.8-6.3c-0.1-0.5-0.1-1-0.2-1.5c-0.2-1.6-0.3-3.2-0.5-4.4c-0.6-4.2,8.2-9.3,11-10.3
		c2.8-1,5.1-4.9,6.1-6.4c1-1.4,4.1-3.1-1.9-0.3c-5.9,2.8-4.8,0-10.1-2.8c-5.4-2.8-5.4,4.8-8.2,5.9C56,77.3,48.6,80.9,45,79.2
		c-3.7-1.7-7.9,0.8-7.9-1.4c0-2.3,2.8-3.9-0.8-5.3c-3.7-1.4-4.5-5.3-4.5-5.3c3.4-0.3,10.1-3.9,14.4-7.1c4.2-3.1,8.7-4.8,13.2,0
		c4.5,4.8,9.6,0,14.6,0c5.1,0,8.7-0.3,11,0c2.3,0.3,5.9-3.1,5.9-3.1c1.4-2.2-1.9-3-1.9-3c-1.5-0.8-6.6,0-6.6,0c1.2-1,5-1.2,3-1.3
		c-2-0.1-3.8,0-3.8,0c1-0.7,2.8-1.2,4.8-1.7c0.2,0,0.4-0.1,0.5-0.2c2.3-0.3,5.2-1,8.1-2.1c2.7-1,5-2.1,6.9-3.3
		c0.4,0.4,1.2,1.4,1.2,2.1c0,0.9,5.6,1.1,6.4,3.2c0,0,0.8,1.4,0,1.4c-0.8,0-3.5-0.8-3.7-0.8c-0.2,0-0.2,0-0.2,0s0.5,1.6,0.2,1.8
		c-0.3,0.2-0.3,0.2-0.3,0.2s-2.4-1.5-3.2-0.8c0,0-0.5,2.2,2.5,2.3l0.2-0.7c0,0,0.4-0.1,0.7,0c0.3,0.1,0.4,0.6,0,0.8
		c0,0,2.5,2.1,2,2.7c0,0-0.1,1.2-1.4,0.5c0,0-0.7-0.6-0.6-1c0,0-7-1.8-8-0.3c-1,1.5-2.3,3.3-2.3,3.3s5,2.8,3.2,5.6
		c-1.8,2.8-2.8,9,0.7,9c3.5,0,15.9-4.8,19.5-4.8c0,0-2.5,5.1-2.3,9.7C117,84.3,119.9,89.7,119,92.2z"/>
	<path class="st1" d="M123,124.4c0,0-10.3,3.6-11,3.5c-2.6-0.2-2.3-2.5-4.1-2.5c-1.8,0,0,3.1,0,3.1l-3.7,0.5c0,0-0.8-0.2-1.8-3.5
		c-1-3.3,1.8-4.8,1.8-4.8c0.4-3.8-4.7-11.6-4.7-11.6c2.5-1.8,3.6-3.4,6.1-3.6c0,0,0.6,10.7,2.3,14.1c0,0,6.3,4.2,7.9,3.7
		c1.6-0.5,3.3-2,3.3-2s2.9-0.9,3.3,0.6C122.9,123.4,123,124.4,123,124.4z"/>
	<path class="st1" d="M100.4,127.4c-0.3,1.4-0.7,2.3-0.7,2.3s-10-1.2-10.5-1.6c-2-1.3-0.8-3.1-2.2-3.8c-1.5-0.7-1.3,2.7-1.3,2.7
		l-3.3-1.1c0,0-0.6-0.6,0-3.7c0.6-3.2,3.5-3.3,3.5-3.3c1.5-2.3,1.4-7.9,1.3-10.5c1.2,1.7,2.5,3.3,4.1,4c-0.9,2.6-1.8,5.4-1.8,7
		c0,0,3.4,6.2,4.9,6.4c1.5,0.2,3.6-0.3,3.6-0.3S100.7,125.9,100.4,127.4z"/>
	<g>
		<path class="st1" d="M61.6,108.2c-0.2,0.1-0.5,0-0.6-0.3l-0.8-1.4c-0.1-0.3-0.1-0.6,0.1-0.7l85.5-48.1c0.2-0.1,0.5,0,0.6,0.3
			l0.8,1.4c0.1,0.3,0.1,0.6-0.1,0.7L61.6,108.2z"/>
		<path class="st1" d="M61.8,111.5l-2.1-3.8l-2.1-3.8c0,0-3.7,0.9-6.2,3.5l2.1,3.8l2.1,3.8C59.1,114.2,61.8,111.5,61.8,111.5z"/>
		<path class="st1" d="M38.6,126c-2,1-4.5,4.5-4.5,4.5c-0.8-0.6-2.2-3.4-3-5.1c0,0,2.3-2.6,4.2-3.9c0,0-3.5,0.6-5.5,1.5
			c-1-1.5-2.7-4.3-2.8-5.2c0,0,4.3-0.3,6.1-1.5c0,0-5.7,1.3-8.2-1.6c0,0,6.7,0.9,9.5-1.2c2.8-2.1,11.6-6.8,16-6l4.7,8.3
			c-1.6,4.1-10.2,9.2-13.5,10.6c-3.2,1.3-5.9,7.5-5.9,7.5C34.5,130.2,38.6,126,38.6,126z"/>
	</g>
	<path class="st1" d="M72.6,102.3c-0.1,0-0.1,0-0.2,0c0,0,0,0,0,0c-7.4-1.1-9.3-4.4-9.8-6.3c-0.2-0.9-0.2-1.5-0.2-1.5L72.6,102.3z"
		/>
</g>
</svg>
