<?xml version="1.0" encoding="utf-8"?>
<!-- Generator: Adobe Illustrator 19.1.0, SVG Export Plug-In . SVG Version: 6.00 Build 0)  -->
<svg version="1.1" id="Layer_1" xmlns="http://www.w3.org/2000/svg" xmlns:xlink="http://www.w3.org/1999/xlink" x="0px" y="0px"
	 viewBox="0 0 162.9 162.9" style="enable-background:new 0 0 162.9 162.9;" xml:space="preserve">
<style type="text/css">
	.st0{fill:#E6E6E6;}
	.st1{fill:#3A3A3A;}
</style>
<circle class="st0" cx="81.4" cy="81.8" r="81.4"/>
<g>
	<g>
		<g>
			<path class="st1" d="M162.9,6.6l0,0.6l0,0.2l-0.2,0.1h0l-1,0.3l-1.5,0.5h0l-14.3,4.6h0l-1.6,0.5l-14.7,4.7c0,0,0,0,0,0l-2,0.6h0
				l-30.6,9.8l-1.7,0.6c0,0,0,0,0,0L62.3,39.6L60.9,40h0L22.2,52.4l-1.2,0.4L0.2,59.4l-0.3-0.9l20.8-6.6l1.1-0.3l38.8-12.4l1.5-0.5
				l32.8-10.5l1.8-0.6h0l30.4-9.7h0l1.7-0.6l15-4.8h0l1.7-0.5h0l13.9-4.4l-14.1-0.2l-1.5,0h0L128.1,7l-1.7,0L95.9,6.6l-1.4,0h0
				L57.9,6h0l-1.3,0L16.6,5.5l-1.2,0L2.3,5.3V4l12.1,0.2l1.3,0l39.8,0.6l1.4,0l36.8,0.6l1.2,0l31,0.5h0l0.8,0l17.1,0.3l0.4,0
				c0,0,0,0,0,0l17.9,0.3h0.2L162.9,6.6z"/>
		</g>
		<g>
			<path class="st1" d="M162.9,6.6l0,0.6l-0.2,0.3h0l-1.8,2.9l-7.4,11.9l-0.9,1.4L144.4,37l-1,1.6l0,0l-16.8,27c0,0,0,0,0,0
				l-1.1,1.8c0,0,0,0,0,0l-18.2,29.4l-0.8,1.2c0,0,0,0,0,0l-21.4,34.5l-0.7,1l-1.4,2.3l-0.8-0.5l1.5-2.3l0.7-1.1v0l21.4-34.4v0
				l0.9-1.5l18.1-29.1l1.1-1.8v0l16.8-27l1.2-2v0l8-12.9v0l1-1.7l7.5-12.1l-11.2,9.3l-1.3,1.1c0,0,0,0,0,0l-12.1,10l-1.5,1.2
				l-24.7,20.4h0l-1.4,1.2h0L81.5,74.6l-1.1,0.9l-31.1,25.7l-1.1,0.9l-14.1,11.7l-0.6-0.8l14.2-11.7l1.2-1v0l31-25.6l1.3-1.1v0
				l26.5-21.9l1.8-1.5l24.4-20.1l1.8-1.5l11.7-9.7l1.6-1.3v0l11.3-9.3h0l1.8-1.5l0.2-0.2L162.9,6.6z"/>
		</g>
		<g>
			<polygon class="st1" points="162.9,6.6 162.9,7.2 162.9,7.4 158.9,162.6 157.9,162.6 158.1,155.6 158.1,154.5 159.2,113.5 
				159.2,112.2 160.1,77.7 160.1,77.7 160.1,75.9 161,43.9 161,42.4 161.4,26.3 161.5,24.7 161.8,10.8 158,24.1 157.5,25.7 
				152.9,41.2 152.5,42.7 143.6,73.2 143.1,75 133.3,108.7 132.9,110 121.4,149.1 121.1,150.3 119.9,154.3 119,154 120.2,150 
				120.5,148.9 131.9,109.7 131.9,109.7 132.3,108.4 132.3,108.4 142.1,74.8 142.1,74.8 142.8,72.6 142.8,72.6 151.6,42.4 
				152.2,40.4 152.2,40.4 156.5,25.4 156.5,25.4 157,23.7 161,10.4 161.7,7.8 162,6.8 162.1,6.6 162.2,6.6 			"/>
		</g>
		<g>
			<path class="st1" d="M158.8,154.9l-0.5,0.8c0,0-0.1-0.1-0.2-0.1c-2.3-1.3-19.8-10.9-37-5.3c-0.1,0-0.2,0-0.2,0.1l-0.3,0.1
				l-0.2-0.3c0,0-0.1-0.1-0.1-0.2c-1.6-2-15.8-18.8-35.7-16.5c-0.1,0-0.2,0-0.2,0l-0.4,0.1l-0.1-0.4c0,0,0-0.1,0-0.2
				c-0.7-2.5-8.5-28.8-35.4-31c-0.1,0-0.1,0-0.2,0l-0.6-0.1l0.2-0.6c0,0,0-0.1,0-0.2c0.5-2.2,5.1-27.6-26.6-48.5
				c-0.1,0-0.1-0.1-0.2-0.1l-0.3-0.2l0.1-0.3c0,0,0-0.1,0.1-0.3c0.7-3,6.3-31.1-5.3-46.4c-0.3-0.4-0.7-0.9-1-1.3l1.3,0
				c0.3,0.4,0.7,0.8,1,1.3c10.8,15.1,6.2,41.1,5.2,46c0,0.2-0.1,0.4-0.1,0.5c0.2,0.1,0.4,0.3,0.6,0.4c28.7,19.2,27.4,42.2,26.6,47.9
				c-0.1,0.3-0.1,0.6-0.1,0.8c0.2,0,0.4,0,0.6,0.1c24.9,2.6,33.4,25.5,35,30.7c0.1,0.3,0.1,0.5,0.2,0.7c0.2,0,0.4,0,0.6-0.1
				c18.8-1.7,32.5,12.9,35.4,16.4c0.2,0.2,0.3,0.3,0.4,0.5c0.2-0.1,0.4-0.1,0.6-0.2c16.5-5,33.1,3.4,36.7,5.4
				C158.6,154.8,158.8,154.9,158.8,154.9z"/>
		</g>
		<g>
			<path class="st1" d="M160,112.9l-0.7,0.7c0-0.1-0.1-0.1-0.2-0.1c-11.9-11.4-24.8-4.4-26.3-3.5c-0.1,0.1-0.1,0.1-0.2,0.1l-0.5,0.3
				l-0.2-0.5c0-0.1-0.1-0.1-0.1-0.2c-8.7-17-23.7-12.3-25.4-11.7c0,0,0,0,0,0c-0.1,0-0.1,0.1-0.1,0.1l-0.7,0.3v-0.9
				c-0.1-19.5-22.9-21.9-25.3-22c-0.1,0-0.2,0-0.2,0l-0.6,0l0.2-0.6c0,0,0-0.1,0-0.1C86.7,51.2,63,40.9,60.9,40h0
				c-0.1,0-0.1,0-0.1-0.1l-0.6-0.2l0.4-0.5c0,0,0.1-0.1,0.1-0.1c10.3-14.7-0.2-28.7-4-33.1c-0.5-0.6-0.9-1-1.1-1.2l1.4,0
				c0.3,0.3,0.7,0.7,1,1.2h0c4.3,5,13.3,18.3,4.2,32.6c-0.1,0.2-0.3,0.4-0.4,0.7c0.2,0.1,0.4,0.2,0.6,0.3c5.1,2.4,24.2,12.8,18.9,34
				c-0.1,0.3-0.2,0.6-0.2,0.9c0.2,0,0.4,0,0.6,0.1c5,0.6,24,4,25.1,21.4c0,0.3,0,0.6,0,1c0.2,0,0.4-0.1,0.6-0.2
				c4.1-1.1,17-3.1,25,11.6c0.1,0.2,0.2,0.4,0.3,0.6c0.2-0.1,0.4-0.2,0.6-0.3c3.5-1.8,15.1-6.3,26,3.5
				C159.5,112.4,159.8,112.7,160,112.9z"/>
		</g>
		<g>
			<path class="st1" d="M161,77.4l-0.9,0.5c0,0,0-0.1-0.1-0.1c-2.3-4.2-5-6.4-8.1-6.8c-4.5-0.5-8.4,3.5-9,4.1c0,0.1-0.1,0.1-0.1,0.1
				l-0.7,0.8l-0.1-1.1c0,0,0-0.1,0-0.1c-0.7-5.1-2.4-8.4-5.2-9.6c-4.6-2-10.6,1.7-11.4,2.2c-0.1,0-0.1,0-0.1,0l-0.9,0.6l0.1-1.1
				c0,0,0-0.1,0-0.1c0.6-5.3-0.5-9.2-3.2-11.7c-4.5-4.1-12.2-2.9-13.2-2.8c-0.1,0-0.1,0-0.1,0l-1,0.2l0.5-0.9c0,0,0-0.1,0-0.1
				c2.6-5,3-9.5,1.3-13.2c-3.2-6.7-12.4-9.1-13.7-9.4c0,0,0,0,0,0c-0.1,0-0.1,0-0.1,0l-0.9-0.2l0.6-0.6c0,0,0.1-0.1,0.1-0.1
				c3.6-3.8,5.3-7.7,5-11.6c-0.3-4.6-3.4-8.1-5.4-10h0c-0.4-0.4-0.8-0.7-1-0.9l0.1-0.2l1.2,0c0.4,0.3,0.8,0.7,1.2,1.1
				c2.1,2.1,4.7,5.5,5,9.9c0.3,3.7-1.1,7.4-4.2,11.1h0c-0.2,0.2-0.4,0.5-0.6,0.7c0.2,0.1,0.5,0.1,0.8,0.2c3.2,1,10.1,3.7,12.8,9.6
				c1.7,3.5,1.5,7.6-0.4,12.2c-0.1,0.4-0.3,0.8-0.5,1.1c0.2,0,0.5-0.1,0.8-0.1c2.9-0.3,8.6-0.3,12.5,3.2c2.6,2.4,3.8,5.9,3.7,10.6
				c0,0.3,0,0.7,0,1c0.2-0.1,0.5-0.3,0.9-0.5c2.4-1.3,6.9-3,10.7-1.3c2.7,1.2,4.6,4,5.5,8.4c0.1,0.4,0.1,0.7,0.2,1.1
				c0.2-0.2,0.4-0.4,0.6-0.6c1.7-1.5,4.9-3.6,8.5-3.2c3,0.3,5.7,2.3,8,5.9C160.5,76.4,160.7,76.9,161,77.4z"/>
		</g>
		<g>
			<path class="st1" d="M161.9,43.5l-0.8,0.6c0,0-0.1-0.1-0.1-0.1c-1.2-1.6-2.5-2.5-4-2.6c-2.2-0.2-4,1.1-4.4,1.4
				c-0.1,0.1-0.1,0.1-0.1,0.1l-0.7,0.6l-0.1-0.9c0,0,0-0.1,0-0.1c-0.3-2.5-1.2-4-2.5-4.7c-2.2-1-5.1,0.5-5.7,0.9l0,0
				c-0.1,0-0.1,0.1-0.1,0.1l-1,0.6l0.2-1.1c0,0,0-0.1,0-0.1c0.6-2.9,0.2-4.9-1-6.1c-2.2-2.1-6.5-1.2-7.2-1c-0.1,0-0.1,0-0.1,0
				l-1.1,0.3l0.6-1c0,0,0-0.1,0-0.1c1.7-3.1,2.1-5.6,1.1-7.5c-1.7-3.1-6.6-3.8-7.3-3.9h0c0,0-0.1,0-0.1,0l-1-0.1l0.7-0.7
				c0,0,0.1-0.1,0.1-0.1h0c2.1-2.3,3-4.5,2.6-6.5c-0.4-2.2-2.3-3.6-3.4-4.3c-0.5-0.3-0.8-0.4-0.8-0.5l0.2-0.6h0l0.8,0
				c0.4,0.2,0.9,0.6,1.5,1c1.1,0.9,2.3,2.3,2.7,4.1c0.4,1.9-0.2,4-1.8,6.2c-0.2,0.2-0.3,0.4-0.5,0.6c0.3,0.1,0.7,0.1,1.1,0.2
				c0,0,0,0,0,0c2,0.5,4.8,1.6,6.2,4c1,1.8,0.9,4-0.1,6.5c-0.1,0.4-0.3,0.7-0.5,1.1c0.2,0,0.5-0.1,0.8-0.1c1.8-0.2,4.6-0.1,6.4,1.6
				c1.2,1.1,1.7,2.7,1.6,4.8c0,0.4-0.1,0.8-0.1,1.3c0.2-0.1,0.4-0.2,0.7-0.3c1.4-0.5,3.4-1,5.1-0.2c1.3,0.6,2.2,1.8,2.7,3.6
				c0.1,0.4,0.2,0.8,0.3,1.2c0.1-0.1,0.3-0.2,0.5-0.3c1-0.5,2.4-1.1,4.1-0.9c1.5,0.2,2.8,0.9,4,2.1
				C161.3,42.7,161.6,43.1,161.9,43.5z"/>
		</g>
		<g>
			<path class="st1" d="M162.4,25.9l-0.9,0.5c0,0,0-0.1-0.1-0.1c-0.6-1-1.2-1.6-1.9-1.7c-1-0.1-1.8,0.8-2.1,1.1c0,0-0.1,0.1-0.1,0.1
				l-0.7,0.9l-0.2-1.1c0,0,0-0.1,0-0.1c-0.2-1.1-0.6-1.9-1.2-2.2c-1-0.4-2.2,0.2-2.6,0.4c-0.1,0-0.1,0.1-0.1,0.1l-0.9,0.6l0.2-1.1
				c0,0,0-0.1,0-0.1c0.2-1.4,0-2.3-0.6-2.9c-0.9-0.9-2.7-0.7-3.4-0.6c0,0,0,0,0,0c0,0-0.1,0-0.1,0l-1.1,0.3l0.6-1c0,0,0,0,0-0.1
				c0.8-1.3,0.9-2.4,0.5-3.3c-0.7-1.6-3-2.1-3.6-2.2c-0.1,0-0.1,0-0.1,0l-1-0.2l0.7-0.7c0,0,0.1,0,0.1-0.1h0
				c1.1-1.1,1.6-2.2,1.5-3.2c-0.2-1-1-1.7-1.6-2h0c-0.2-0.2-0.4-0.2-0.4-0.2l0.3-0.7l0.4,0c0,0,0,0,0,0c0.3,0.2,0.8,0.5,1.2,1
				c0.5,0.5,0.9,1.1,1,1.8c0.2,0.9-0.1,1.8-0.7,2.8h0c-0.1,0.2-0.3,0.5-0.5,0.7c0.2,0.1,0.5,0.2,0.8,0.3h0c1,0.4,2.2,1.1,2.8,2.3
				c0.3,0.7,0.4,1.5,0.2,2.4c-0.1,0.3-0.2,0.7-0.3,1c0.2,0,0.4,0,0.7,0c0.9,0,2,0.2,2.7,0.9c0.5,0.5,0.8,1.1,0.9,2
				c0,0.3,0.1,0.6,0,1c0.2-0.1,0.4-0.1,0.6-0.2c0.7-0.2,1.4-0.2,2.2,0.1c0.6,0.3,1,0.7,1.3,1.4c0.1,0.2,0.2,0.5,0.3,0.8
				c0.2-0.1,0.4-0.3,0.6-0.4c0.5-0.3,1-0.5,1.7-0.4c0.7,0.1,1.3,0.4,1.9,1C161.8,25,162.1,25.4,162.4,25.9z"/>
		</g>
	</g>
</g>
</svg>
