<?xml version="1.0" encoding="utf-8"?>
<!-- Generator: Adobe Illustrator 19.1.0, SVG Export Plug-In . SVG Version: 6.00 Build 0)  -->
<svg version="1.1" id="Layer_1" xmlns="http://www.w3.org/2000/svg" xmlns:xlink="http://www.w3.org/1999/xlink" x="0px" y="0px"
	 viewBox="0 0 162.9 163.6" style="enable-background:new 0 0 162.9 163.6;" xml:space="preserve">
<style type="text/css">
	.st0{fill:#E6E6E6;}
	.st1{fill:#3A3A3A;}
</style>
<circle class="st0" cx="81.4" cy="81.4" r="81.4"/>
<path class="st1" d="M52.9,165.8c0,0,7.8-58.7-2.3-84.7c0,0-7-26.4,0-26.4c0,0,3-0.8,5.2,15.5c0,0,1,3.7,1.6,5.2
	c0,0,1.2-14.4,1.6-23.9c0,0-0.4-7.4,3.7-8c0,0,6-2.7,5,10.3c-1,13,0,22.2,1,24.3c1,2.1,0,0.8,0,0.8s1.6-25.3,5.1-34.2
	c0,0,1.9-3.7,4.3-3.5c2.3,0.2,6.2,1.9,4.5,7.8c-1.7,5.8-4.5,27.2-3.1,30.5c0,0,8.4-20.4,10.7-24.5c2.3-4.1,6.2-5.4,8.2-5.2
	c1.9,0.2,4.7,2.3,1.6,8.2c-3.1,5.8-8.7,15.7-9.5,23.5c-0.8,7.8-1.9,17.5,3.3,16.3c5.2-1.2,12.2-8.2,13.4-11.3c1.2-3.1,3.1-7,7.4-5.2
	c4.3,1.7,4.9,6.6-2.1,15.2c-7,8.5-20.8,18.3-24.9,25.8c0,0-5.9,17.9-3.3,43.5H52.9z"/>
</svg>
