<?xml version="1.0" encoding="utf-8"?>
<!-- Generator: Adobe Illustrator 19.1.0, SVG Export Plug-In . SVG Version: 6.00 Build 0)  -->
<svg version="1.1" id="Layer_1" xmlns="http://www.w3.org/2000/svg" xmlns:xlink="http://www.w3.org/1999/xlink" x="0px" y="0px"
	 viewBox="-68 69.1 162.9 162.9" style="enable-background:new -68 69.1 162.9 162.9;" xml:space="preserve">
<style type="text/css">
	.st0{fill:#E6E6E6;}
	.st1{fill:#3D5499;}
	.st2{fill:#994D4D;}
	.st3{fill:#CCCC52;}
</style>
<circle class="st0" cx="14.3" cy="151.4" r="81.4"/>
<path class="st1" d="M-1.2,163.1c-1.4-1-2.7-1.6-4.1-1.9c0.3-1,0.7-3.3-1.8-5.1c0,0-1.2,2.3-0.2,4.9c-1.1,0.1-2.1,0.4-2.9,1
	c-0.7,0.5-1.2,1.3-1.5,2.3c-2.2-1.4-4.6-0.7-4.6-0.7c1.1,2.6,3.1,2.9,4.3,2.9c0,1.5,0.3,3.1,1,4.7c-27.4,1.2-27.8,29.8-27.8,29.8
	s6.1-4.9,8.6-5.6c1.2-0.3,5,0.4,5,0.4s1.7-5.5,3.3-6.4c1.8-1.1,8.3,0.4,8.3,0.4s0.3-5.9,1.6-7.2c1.6-1.6,6.8-2.5,10.4-2.9
	c2,0.5,3.9,0.4,5.3-0.8c1.4-1.2,2.1-3.1,1.9-5.4c1.2-3.4,3.1-7.7,4.9-8.9c1.6-1,7.4,0.1,7.4,0.1s0-6.7,1.4-8.2
	c1.2-1.3,6.9-1.8,6.9-1.8s0.1-3.8,0.7-5c1.1-2.3,7.3-7.2,7.3-7.2S6.2,137-1.2,163.1z"/>
<path class="st2" d="M3.9,113.4c-1.4-1-2.7-1.6-4.1-1.9c0.3-1,0.7-3.3-1.8-5.1c0,0-1.2,2.3-0.2,4.9c-1.1,0.1-2.1,0.4-2.9,1
	c-0.7,0.5-1.2,1.3-1.5,2.3c-2.2-1.4-4.6-0.7-4.6-0.7c1.1,2.6,3.1,2.9,4.3,2.9c0,1.5,0.3,3.1,1,4.7c-27.4,1.2-27.8,29.8-27.8,29.8
	s6.1-4.9,8.6-5.6c1.2-0.3,5,0.4,5,0.4s1.7-5.5,3.3-6.4c1.8-1.1,8.3,0.4,8.3,0.4s0.3-5.9,1.6-7.2c1.6-1.6,6.8-2.5,10.4-2.9
	c2,0.5,3.9,0.4,5.3-0.8c1.4-1.2,2.1-3.1,1.9-5.4c1.2-3.4,3.1-7.7,4.9-8.9c1.6-1,7.4,0.1,7.4,0.1s0-6.7,1.4-8.2
	c1.2-1.3,6.9-1.8,6.9-1.8s0.1-3.8,0.7-5c1.1-2.3,7.3-7.2,7.3-7.2S11.2,87.3,3.9,113.4z"/>
<path class="st3" d="M56.3,153.1c-1.4-1-2.7-1.6-4.1-1.9c0.3-1,0.7-3.3-1.8-5.1c0,0-1.2,2.3-0.2,4.9c-1.1,0.1-2.1,0.4-2.9,1
	c-0.7,0.5-1.2,1.3-1.5,2.3c-2.2-1.4-4.6-0.7-4.6-0.7c1.1,2.6,3.1,2.9,4.3,2.9c0,1.5,0.3,3.1,1,4.7C19.1,162.4,18.8,191,18.8,191
	s6.1-4.9,8.6-5.6c1.2-0.3,5,0.4,5,0.4s1.7-5.5,3.3-6.4c1.8-1.1,8.3,0.4,8.3,0.4s0.3-5.9,1.6-7.2c1.6-1.6,6.8-2.5,10.4-2.9
	c2,0.5,3.9,0.4,5.3-0.8c1.4-1.2,2.1-3.1,1.9-5.4c1.2-3.4,3.1-7.7,4.9-8.9c1.6-1,7.4,0.1,7.4,0.1s0-6.7,1.4-8.2
	c1.2-1.3,6.9-1.8,6.9-1.8s0.1-3.8,0.7-5c1.1-2.3,7.3-7.2,7.3-7.2S63.7,127,56.3,153.1z"/>
</svg>
