<?xml version="1.0" encoding="utf-8"?>
<!-- Generator: Adobe Illustrator 19.1.0, SVG Export Plug-In . SVG Version: 6.00 Build 0)  -->
<svg version="1.1" id="Layer_1" xmlns="http://www.w3.org/2000/svg" xmlns:xlink="http://www.w3.org/1999/xlink" x="0px" y="0px"
	 viewBox="-68 69.1 162.9 162.9" style="enable-background:new -68 69.1 162.9 162.9;" xml:space="preserve">
<style type="text/css">
	.st0{fill:#E6E6E6;}
	.st1{fill:#4762B2;}
	.st2{fill:#3A3A3A;}
</style>
<circle class="st0" cx="13.4" cy="150.5" r="81.4"/>
<g>
	<path class="st1" d="M-31.8,101.6c0,0,38.9-21.5,44-26.9l41.9,26.9H35.7c0,0-0.8,33.8-3.8,40.7H-6.5l-5.4-41.4L-31.8,101.6z"/>
	<path class="st1" d="M11.1,126.9l-62.9,30.7l16.1,6.9c0,0,21.5,45.3,23,67.5h55.2c0,0,15.3-63.7,19.9-72.1l16.1-5.4L11.1,126.9z"/>
	<polygon class="st0" points="7,188.1 -1.9,189.8 -2.8,190 -11.4,191.6 -17.9,177.5 -18.2,176.7 -21.8,168.9 -9.9,165 -9,164.8 
		3.9,160.5 5.1,171.1 5.2,172 	"/>
	<g>
		<polygon class="st2" points="-1.9,189.8 -2.8,190 -7,174.9 -7.3,174.1 -9.9,165 -9,164.8 -6.4,173.9 -6.2,174.7 		"/>
	</g>
	<g>
		<polygon class="st2" points="5.2,172 -6.2,174.7 -7,174.9 -17.9,177.5 -18.2,176.7 -7.3,174.1 -6.4,173.9 5.1,171.1 		"/>
	</g>
	<polygon class="st0" points="32.3,181.7 39.4,182.3 40.2,182.4 47.1,183 50,168.4 50.2,167.5 51.8,159.5 42,156.9 41.3,156.8 
		30.7,154 31.3,164.7 31.4,165.6 	"/>
	<g>
		<polygon class="st2" points="39.4,182.3 40.2,182.4 41.3,167.1 41.3,166.2 42,156.9 41.3,156.8 40.6,166.1 40.6,166.9 		"/>
	</g>
	<g>
		<polygon class="st2" points="31.4,165.6 40.6,166.9 41.3,167.1 50,168.4 50.2,167.5 41.3,166.2 40.6,166.1 31.3,164.7 		"/>
	</g>
	<polygon class="st0" points="26.7,202.8 25.8,209.9 25.7,210.5 23.8,225.2 13.4,225.2 11.9,210.5 11.9,209.9 11.1,202.8 	"/>
	<g>
		<rect x="18.6" y="202.8" class="st2" width="0.6" height="22.4"/>
	</g>
	<g>
		<polygon class="st2" points="25.8,209.9 25.7,210.5 11.9,210.5 11.9,209.9 		"/>
	</g>
	<polygon class="st0" points="21.2,105.3 20.3,110.8 20.2,111.3 18.3,122.8 7.9,122.8 6.4,111.3 6.4,110.8 5.6,105.3 	"/>
	<g>
		<rect x="13.1" y="105.3" class="st2" width="0.6" height="17.5"/>
	</g>
	<g>
		<polygon class="st2" points="20.3,110.8 20.2,111.3 6.4,111.3 6.4,110.8 		"/>
	</g>
</g>
</svg>
