<?xml version="1.0" encoding="utf-8"?>
<!-- Generator: Adobe Illustrator 19.1.0, SVG Export Plug-In . SVG Version: 6.00 Build 0)  -->
<svg version="1.1" id="Layer_1" xmlns="http://www.w3.org/2000/svg" xmlns:xlink="http://www.w3.org/1999/xlink" x="0px" y="0px"
	 viewBox="0 0 300 300" style="enable-background:new 0 0 300 300;" xml:space="preserve">
<style type="text/css">
	.st0{fill:#293866;}
	.st1{fill:#F5F5F5;}
</style>
<circle class="st0" cx="150" cy="150" r="148.3"/>
<path class="st1" d="M238,219.5c0,0-17-0.6-16.1,10.8c0.2,2.1,0.3,3.7,0.4,4.8c0.1,0.7,0.1,1.2,0.2,1.6c-3.2-0.8-18.6-4-22.8,6.6
	c0,0-15.7-0.4-22.9,7.9c-6.8,9.4-11.9,0-11.9,0c-7.2-8.3-22.9-7.9-22.9-7.9c-4.2-10.6-19.6-7.4-22.8-6.6c0.1-1.1,0.4-3,0.6-6.4
	c0.9-11.4-16.1-10.8-16.1-10.8l16.8-9.9c4,7.9,9.5,13.6,15.2,17.6c12.2,8.6,25.1,9.8,25.1,9.8c0.8-2.6,2-4.7,3.5-6.3
	c-1.4-1.1-3.3-3.4-2-7.4c0,0,3.2,1.6,4.4,5.4c1.2-0.7,2.6-1.1,3.9-1.1c1.6,0.1,2.9,0.6,4.2,1.6c1.4-3.8,4.9-5.2,4.9-5.2
	c1.1,4.4-1.5,6.6-2.9,7.4c1.2,1.6,2.2,3.7,2.7,6.1c0,0,0.2-0.1,0.8-0.1c2.2-0.4,9.2-1.8,16.9-5.3c0.1-0.1,0.3-0.1,0.4-0.2
	c0.4-0.2,0.9-0.4,1.2-0.6c0.8-0.4,1.6-0.8,2.4-1.2c7.1-4.1,14.6-10.4,19.6-20.3L238,219.5z"/>
<path class="st1" d="M205,128.5c0,0-17-0.6-16.1,10.8c0.2,2.1,0.3,3.7,0.4,4.8c0.1,0.7,0.1,1.2,0.2,1.6c-3.2-0.8-18.6-4-22.8,6.6
	c0,0-15.7-0.4-22.9,7.9c-6.8,9.3-11.9,0-11.9,0c-7.2-8.3-22.9-7.9-22.9-7.9c-4.2-10.6-19.7-7.4-22.8-6.6c0.1-1.1,0.4-3,0.6-6.4
	c0.9-11.4-16.1-10.8-16.1-10.8l16.8-9.9c4,7.9,9.5,13.6,15.2,17.6c12.2,8.6,25.1,9.8,25.1,9.8c0.8-2.6,2-4.7,3.5-6.3
	c-1.4-1.1-3.3-3.4-2-7.4c0,0,3.2,1.6,4.4,5.4c1.2-0.7,2.6-1.1,3.9-1.1c1.6,0.1,2.9,0.6,4.2,1.6c1.4-3.8,4.9-5.2,4.9-5.2
	c1.1,4.4-1.5,6.6-2.9,7.4c1.2,1.6,2.2,3.7,2.7,6.1c0,0,0.2-0.1,0.8-0.1c2.2-0.4,9.2-1.8,16.9-5.3c0.1-0.1,0.3-0.1,0.4-0.2
	c0.4-0.2,0.9-0.4,1.2-0.6c0.8-0.4,1.6-0.8,2.4-1.2c7.1-4.1,14.6-10.4,19.6-20.3L205,128.5z"/>
<path class="st1" d="M241.6,58.6c0,0-17-0.6-16.1,10.8c0.2,2.1,0.3,3.7,0.4,4.8c0.1,0.7,0.1,1.2,0.2,1.6c-3.2-0.8-18.6-4-22.8,6.7
	c0,0-15.7-0.4-22.9,7.9c-6.8,9.3-11.9,0-11.9,0c-7.2-8.3-22.9-7.9-22.9-7.9c-4.2-10.7-19.6-7.4-22.8-6.7c0.1-1.1,0.4-3,0.6-6.4
	c0.9-11.4-16.1-10.8-16.1-10.8l16.8-9.9c4,7.9,9.5,13.6,15.2,17.6c12.2,8.6,25.1,9.8,25.1,9.8c0.8-2.6,2-4.7,3.5-6.3
	c-1.4-1.1-3.3-3.3-2-7.4c0,0,3.2,1.6,4.4,5.3c1.2-0.7,2.6-1.1,3.9-1.1c1.6,0.1,2.9,0.7,4.2,1.7c1.4-3.8,4.9-5.2,4.9-5.2
	c1.1,4.4-1.5,6.6-2.9,7.4c1.2,1.7,2.2,3.7,2.7,6.1c0,0,0.2-0.1,0.8-0.1c2.2-0.4,9.2-1.8,16.9-5.3c0.1-0.1,0.3-0.1,0.4-0.2
	c0.4-0.2,0.9-0.4,1.2-0.6c0.8-0.4,1.6-0.8,2.4-1.2c7.1-4.1,14.6-10.4,19.6-20.3L241.6,58.6z"/>
</svg>
