<?xml version="1.0" encoding="utf-8"?>
<!-- Generator: Adobe Illustrator 19.1.0, SVG Export Plug-In . SVG Version: 6.00 Build 0)  -->
<svg version="1.1" id="Layer_1" xmlns="http://www.w3.org/2000/svg" xmlns:xlink="http://www.w3.org/1999/xlink" x="0px" y="0px"
	 viewBox="0 0 162.9 163.6" style="enable-background:new 0 0 162.9 163.6;" xml:space="preserve">
<style type="text/css">
	.st0{fill:#E6E6E6;}
	.st1{fill:#3A3A3A;}
</style>
<circle class="st0" cx="81.3" cy="81.8" r="81.4"/>
<g>
	<path class="st1" d="M142.6,75.8c4,25.7-14.8,49.9-54,55.9c-39.3,6.1-63.4-11.5-67.3-37.2c-3.6-23.2,10.4-45,42-53.5
		c1.2-0.3,2.5-0.6,3.8-0.9c0,0,0.1,0,0.1,0c1.4-0.3,2.7-0.6,4.2-0.8c1-0.2,2-0.4,3-0.5c0.8-0.1,1.6-0.2,2.4-0.3
		c1.8-0.2,3.6-0.4,5.4-0.6c0.1,0,0.3,0,0.4,0C117,35.3,138.9,52,142.6,75.8z"/>
	<path class="st1" d="M63.1,113.4l0.5,3.3c0.1,0.5,0.1,1-0.1,1.4c-3.7-1.3-6.8-3.2-9.4-5.3c0.3-0.8,1-1.4,1.9-1.6l4-0.6
		C61.5,110.4,62.8,111.6,63.1,113.4z"/>
	<path class="st1" d="M92.5,117.2l0.2,1.4c-1.7,0.4-3.6,0.8-5.5,1.1c-1.9,0.3-3.8,0.5-5.6,0.6l-0.2-1.4c-0.3-1.7,0.9-3.3,2.6-3.6
		l4.9-0.8C90.7,114.3,92.3,115.4,92.5,117.2z"/>
	<path class="st1" d="M76.7,106.4l0.1,0.6c0.3,1.7-0.9,3.3-2.6,3.6l-4.9,0.8c-1.7,0.3-3.3-0.9-3.6-2.6l-0.5-3.3c0-0.1,0-0.3,0-0.4
		C69.6,106.1,73.6,106.4,76.7,106.4z"/>
	<path class="st1" d="M63.1,113.4l0.5,3.3c0.1,0.5,0.1,1-0.1,1.4c-3.7-1.3-6.8-3.2-9.4-5.3c0.3-0.8,1-1.4,1.9-1.6l4-0.6
		C61.5,110.4,62.8,111.6,63.1,113.4z"/>
	<path class="st0" d="M122.3,81.2c0,0,1.4,11.4-5.7,22c-0.6-0.7-1.4-1.1-2.2-0.9l-4,0.6c-1.4,0.2-2.3,1.8-2.1,3.5l0.5,3.3
		c0.1,0.5,0.2,0.9,0.5,1.3c-4.1,3.2-9.5,5.8-16.6,7.6l-0.2-1.4c-0.3-1.7-1.9-2.9-3.6-2.6l-4.9,0.8c-1.7,0.3-2.9,1.9-2.6,3.6l0.2,1.4
		c-7.2,0.5-13.2-0.4-18.1-2.2c0.1-0.4,0.1-0.9,0.1-1.4l-0.5-3.3c-0.3-1.7-1.6-2.9-3-2.7l-4,0.6c-0.8,0.1-1.5,0.7-1.9,1.6
		c-9.9-7.9-12-19.3-12-19.3c8.1,6.5,16.2,9.8,23,11.4c0,0.1,0,0.3,0,0.4l0.5,3.3c0.3,1.7,1.9,2.9,3.6,2.6l4.9-0.8
		c1.7-0.3,2.9-1.9,2.6-3.6l-0.1-0.6c5.2,0,8.3-0.8,8.3-0.8s3.3-0.2,8.2-1.8l0.1,0.6c0.3,1.7,1.9,2.9,3.6,2.6l4.9-0.8
		c1.7-0.3,2.9-1.9,2.6-3.6l-0.5-3.3c0-0.1-0.1-0.3-0.1-0.4C109.9,95.4,116.5,89.8,122.3,81.2z"/>
	<path class="st1" d="M103.9,99.5l0.5,3.3c0.3,1.7-0.9,3.3-2.6,3.6l-4.9,0.8c-1.7,0.3-3.3-0.9-3.6-2.6l-0.1-0.6
		c3-1,6.7-2.5,10.6-4.8C103.9,99.2,103.9,99.3,103.9,99.5z"/>
	<path class="st1" d="M116.7,103.2c-1.8,2.7-4.2,5.4-7.4,7.8c-0.2-0.4-0.4-0.8-0.5-1.3l-0.5-3.3c-0.3-1.7,0.7-3.3,2.1-3.5l4-0.6
		C115.3,102.1,116.1,102.5,116.7,103.2z"/>
	<path class="st0" d="M71.8,70.7C64.4,83.4,55,81.3,55,81.3c-11.3-2.7-8.5-18.8-8.5-18.8c1.1,1.8,3.4,3.2,6.1,4.3
		c0,0.8,0,1.7,0.2,2.6c0.7,4.2,3,7.4,5.3,7c2.1-0.3,3.4-3.4,3.1-7.2C66.8,70.4,71.8,70.7,71.8,70.7z"/>
	<path class="st1" d="M61.3,69.3c0.3,3.8-1,6.9-3.1,7.2c-2.3,0.4-4.7-2.8-5.3-7c-0.1-0.9-0.2-1.8-0.2-2.6
		C55.3,67.9,58.4,68.7,61.3,69.3z"/>
	<path class="st0" d="M87.2,68.3c10.9,9.9,19.2,5.1,19.2,5.1c10-6,2.4-20.4,2.4-20.4c-0.5,2-2.3,4-4.6,5.9c0.3,0.8,0.5,1.6,0.6,2.5
		c0.7,4.2-0.7,7.9-3,8.3c-2.1,0.3-4.3-2.3-5.1-5.9C91.8,66.5,87.2,68.3,87.2,68.3z"/>
	<path class="st1" d="M96.8,63.8c0.9,3.7,3,6.3,5.1,5.9c2.3-0.4,3.6-4.1,3-8.3c-0.1-0.9-0.4-1.8-0.6-2.5
		C102.1,60.7,99.4,62.4,96.8,63.8z"/>
	<path class="st1" d="M76.6,38.4c-0.8,0.1-1.6,0.2-2.4,0.3c-1,0.2-2,0.3-3,0.5c-0.2-1.7-0.6-3.7-1.5-6.2c-0.6-1.8-1.5-3.8-2.6-6
		c0,0-3.2-3.9-8.3-3.2c0,0-2.5-3.5,2.5-7c0,0,9.9-1.2,13.9,13C75.9,32.3,76.4,35.1,76.6,38.4z"/>
</g>
</svg>
