<?xml version="1.0" encoding="utf-8"?>
<!-- Generator: Adobe Illustrator 19.1.0, SVG Export Plug-In . SVG Version: 6.00 Build 0)  -->
<svg version="1.1" id="Layer_1" xmlns="http://www.w3.org/2000/svg" xmlns:xlink="http://www.w3.org/1999/xlink" x="0px" y="0px"
	 viewBox="-68 69.1 162.9 162.9" style="enable-background:new -68 69.1 162.9 162.9;" xml:space="preserve">
<style type="text/css">
	.st0{fill:#293866;}
	.st1{fill:#CCCC52;}
</style>
<circle class="st0" cx="13.4" cy="150.5" r="81.4"/>
<path class="st1" d="M-6.9,235.6c0,0,9.1-14.3,10.6-17.7s-2.6-7.9,0-15.1c2.6-7.2,7.9-17,4.9-23.8s-5.3-3.8-10.2-14.7
	c-4.9-11-11-18.1-12.1-32.5c0,0-0.8-12.1-6.8-24.5c-6-12.5-8.7-17.4-7.6-23.4h1.3c0,0,0.8,9.3,6,17.2c5.3,7.9,8.1,19.3,8.9,24.7
	c0.8,5.5,10.2,29.1,16.2,36.8c0,0,4.9,4.5,6.2-1.7c1.3-6.2,2.5-19.1,5.9-24.5c0,0,2.1-3,3.2-1.5s2.1,3.2,3.8,0.6
	c1.7-2.6,2.3-4.7,4-5.1c1.7-0.4,4.3,1.1,4.3,1.1s0.2,3.2-3.2,5.3c-3.4,2.1-3.2,6.2-4,9.8s-0.9,14.7,0.9,13.2
	c1.9-1.5,1.9-0.9,6.2-10.6c4.3-9.6,10.2-10.6,13.2-12.3S62,123.3,62,123.3v2.6c0,0-14.5,13.2-16.2,14s-6.6,3-7.7,5.3
	c0,0,17.1-0.9,18.7-2.1c1.6-1.1,6.5-7,7.6-7l1.7,0.6c0,0-2.3,1.4-3.9,3.5c-1.6,2.1-3.5,2.8-1.8,3.5s3.1,0.8,3.1,0.8l-1.1,1.2
	c0,0-2-1.8-4.5-1.4c-2.5,0.4-20.8,3.4-21.3,4.5c0,0-0.9,2.5-1.5,5.9c-0.6,3.5-2.5,7.5-5.1,9.6c-2.5,2.2-8.5,6.4-9.4,10.8
	c-0.9,4.3,0.2,12.1-1.7,17.9c-1.9,5.9,1.9,17.4,0,23c-1.9,5.7,2.4,18.3,3.2,19.4h-29V235.6z"/>
</svg>
