<?xml version="1.0" encoding="utf-8"?>
<!-- Generator: Adobe Illustrator 19.1.0, SVG Export Plug-In . SVG Version: 6.00 Build 0)  -->
<svg version="1.1" id="Layer_1" xmlns="http://www.w3.org/2000/svg" xmlns:xlink="http://www.w3.org/1999/xlink" x="0px" y="0px"
	 viewBox="-68 69.4 162.9 163.6" style="enable-background:new -68 69.4 162.9 163.6;" xml:space="preserve">
<style type="text/css">
	.st0{fill:#131620;}
	.st1{fill:#FAFAFA;}
</style>
<circle class="st0" cx="13.5" cy="150.7" r="81.4"/>
<g>
	<g>
		<g>
			<polygon class="st1" points="-58.6,175.9 -58.7,175.7 13.6,148.8 -51.5,155.1 -51.5,154.9 15.2,148.4 			"/>
		</g>
		<g>
			<polygon class="st1" points="-26.3,199.8 -26.4,199.7 13.8,149.2 -47.4,194.1 -47.5,194 15,148.1 			"/>
		</g>
		<g>
			<polygon class="st1" points="8,205.9 7.8,205.8 14.2,149.3 -9.9,204.7 -10.1,204.7 14.6,148 14.5,148.6 			"/>
		</g>
		<g>
			<path class="st1" d="M8.2,203.3c-0.1,0-8.6-3.3-17.4-0.1h-0.1l0,0c-0.1-0.1-6.1-6.3-16.1-4.3h-0.1v-0.1c0,0-0.4-2.6-2.5-5.1
				c-1.9-2.3-5.5-4.9-12.1-4.6h-0.2l0.1-0.2c0,0,1.2-2.6,0.7-5.9c-0.5-3-2.5-7.3-9.5-10.6h-0.1v-0.1c0.1-0.1,5.6-12.5,0.5-17.5
				l0.1-0.1c5,4.8,0.1,16.5-0.4,17.6c7,3.3,9,7.7,9.4,10.8c0.4,2.9-0.4,5.2-0.7,5.9c6.7-0.3,10.3,2.4,12.1,4.7
				c1.8,2.2,2.4,4.5,2.5,5.1c9.6-1.9,15.6,3.7,16.1,4.3c8.9-3.2,17.4,0.1,17.5,0.1L8.2,203.3z"/>
		</g>
		<g>
			<path class="st1" d="M-2.3,187.9L-2.3,187.9c-3.5-6.3-11.3-3.2-11.3-3.1l-0.2,0.1v-0.2c0.2-1.8-0.2-3.2-1.3-4.4
				c-2.8-2.9-9.1-2.5-9.1-2.5h-0.2l0.1-0.2c1.3-2.7,1.5-5.1,0.5-7.1c-1.8-3.7-6.9-4.8-7-4.8H-31l0.1-0.1c2.1-2.3,3.1-4.7,2.9-7
				c-0.3-3.3-2.9-5.3-2.9-5.4l0.1-0.2c0,0,2.7,2.1,3,5.5c0.2,2.3-0.7,4.7-2.8,7c0.9,0.2,5.3,1.5,6.9,4.9c1,2,0.8,4.4-0.4,7.1
				c1,0,6.6-0.1,9.1,2.6c1.1,1.1,1.5,2.6,1.3,4.4c1.1-0.4,8-2.6,11.3,3.1c0.8-0.5,7.2-3.8,12.5,0.1l-0.1,0.2
				C4.6,183.8-2.1,187.8-2.3,187.9L-2.3,187.9z"/>
		</g>
		<g>
			<path class="st1" d="M3.5,174.7v-0.2c-0.1-1.6-0.6-2.7-1.5-3.1c-2.1-1.1-5.7,1.2-5.8,1.3l-0.2,0.1l0.1-0.2
				c0.4-1.8,0.2-3.1-0.6-3.9c-1.8-1.8-6.1-0.6-6.2-0.6L-11,168l0.2-0.2c1.4-2,1.8-3.7,1.2-5c-1.2-2.4-5.5-2.7-5.6-2.7h-0.2l0.2-0.2
				c2.1-1.9,3-3.7,2.8-5.3c-0.3-2.1-2.5-3.2-2.6-3.2l0.1-0.2c0.1,0,2.3,1.2,2.7,3.4c0.2,1.6-0.7,3.4-2.7,5.3
				c0.9,0.1,4.4,0.6,5.5,2.8c0.6,1.3,0.3,3-1,5c1-0.2,4.4-0.9,6.1,0.7c0.9,0.8,1.1,2.1,0.8,3.9c0.8-0.5,3.8-2.1,5.8-1.1
				c1,0.5,1.5,1.5,1.6,3.1c0.6-0.5,2.6-2.2,4.8-1.9c1.2,0.1,2.3,0.9,3.1,2.2l-0.2,0.1c-0.8-1.3-1.8-2-3-2.1c-2.4-0.3-4.8,2-4.8,2
				L3.5,174.7z"/>
		</g>
		<g>
			<path class="st1" d="M8.8,162.3v-0.2c0-0.8-0.3-1.3-0.8-1.6c-1.1-0.5-2.9,0.6-2.9,0.6l-0.2,0.1l0.1-0.3c0.3-1,0.3-1.7-0.1-2.2
				c-0.9-0.9-3.3-0.1-3.3-0.1l-0.3,0.1l0.2-0.3c0.9-1.2,1.1-2.2,0.8-2.9c-0.7-1.2-3.1-1.1-3.1-1.1h-0.3H-1c1.1-1.1,1.6-2,1.4-2.8
				c-0.3-1-1.6-1.4-1.6-1.4l0.1-0.2c0.1,0,1.5,0.4,1.8,1.6c0.2,0.8-0.2,1.7-1.3,2.8c0.7,0,2.4,0.1,3,1.2c0.4,0.7,0.2,1.7-0.6,2.9
				c0.7-0.2,2.5-0.6,3.3,0.2c0.4,0.4,0.5,1.2,0.2,2.1c0.5-0.3,1.9-0.9,2.9-0.4c0.5,0.3,0.8,0.8,0.9,1.5c0.6-0.4,2.6-1.6,4,0.1
				l-0.2,0.1c-1.6-1.8-3.9,0-3.9,0L8.8,162.3z"/>
		</g>
		<g>
			<path class="st1" d="M11.4,155.9v-0.2c0-0.4-0.2-0.7-0.4-0.8c-0.5-0.3-1.4,0.3-1.4,0.3l-0.2,0.1l0.1-0.3c0.1-0.5,0.1-0.9-0.1-1.1
				c-0.5-0.4-1.6-0.1-1.6-0.1l-0.3,0.1l0.2-0.3c0.4-0.6,0.5-1,0.4-1.3c-0.3-0.6-1.5-0.6-1.5-0.6H6.3l0.2-0.2c0.6-0.6,0.9-1,0.8-1.4
				c-0.1-0.5-0.8-0.7-0.8-0.7l0.1-0.2c0,0,0.8,0.2,0.9,0.8c0.1,0.4-0.1,0.9-0.7,1.5c0.4,0,1.2,0.2,1.5,0.7c0.2,0.4,0.1,0.8-0.2,1.3
				c0.4-0.1,1.2-0.2,1.6,0.2c0.2,0.2,0.3,0.6,0.2,1c0.3-0.2,0.9-0.4,1.4-0.2c0.3,0.1,0.4,0.4,0.5,0.7c0.2-0.2,0.7-0.5,1.2-0.5
				c0.4,0,0.7,0.3,0.9,0.7l-0.2,0.1c-0.2-0.3-0.5-0.5-0.7-0.6c-0.6-0.1-1.2,0.6-1.2,0.6L11.4,155.9z"/>
		</g>
	</g>
	<g>
		<g>
			<polygon class="st1" points="8,205.9 7.8,205.8 14.3,148.2 34.2,205.5 34,205.5 14.4,149.1 			"/>
		</g>
		<g>
			<polygon class="st1" points="59.7,190.5 13.9,148.3 14.4,148.5 69.8,171.3 69.7,171.5 14.9,148.9 59.9,190.3 			"/>
		</g>
		<g>
			<polygon class="st1" points="77.6,157 13.5,148.6 14.4,148.5 80.7,142.1 80.7,142.3 15.3,148.6 77.6,156.8 			"/>
		</g>
		<g>
			<path class="st1" d="M8.3,203.2L8.2,203c7.5-6,22.1-5.1,23.1-5.1c5.5-7,11.5-10,15.6-11.3c4-1.2,6.9-1.1,7.5-1.1
				c0.6-5.5,4.4-9.3,7.5-11.4c3.1-2.1,6.1-3.2,6.7-3.4c-1.2-7.4,6.3-13.6,7.1-14.2c-2.9-6.5,1.9-14.1,1.9-14.2l0.2,0.1
				c0,0.1-4.7,7.6-1.9,14.1v0.1h-0.1c-0.1,0.1-8.4,6.5-7.1,14.1v0.1h-0.1c-0.1,0-13.1,4.2-14.2,14.7v0.1h-0.1c0,0-3.1-0.3-7.5,1.1
				c-4,1.3-10,4.3-15.5,11.2l0,0h-0.1C31.1,198.2,16,197.1,8.3,203.2z"/>
		</g>
		<g>
			<path class="st1" d="M10.2,187.9l-0.1-0.1c0.1-0.1,8.1-7.4,16-3.7c0.3-0.5,1.5-2.8,3.9-4.9c2.4-2.2,6.6-4.7,12.3-3.9
				c0.1-1.1,1.5-9.5,10.2-10.6c-0.4-0.9-2-6.1,5.3-10.2c-0.5-0.7-3.5-5.3,1.7-10.3l0.1,0.1c-5.5,5.4-1.7,10.1-1.7,10.2l0.1,0.1
				l-0.1,0.1c-8,4.3-5.3,10-5.3,10.1l0.1,0.1h-0.1c-9.2,1-10.2,10.5-10.2,10.6v0.1h-0.1c-11-1.5-16.2,8.7-16.2,8.8v0.1H26
				C18.3,180.5,10.3,187.8,10.2,187.9z"/>
		</g>
		<g>
			<path class="st1" d="M11.4,174.3l-0.2-0.1c0.1-0.1,5-6.1,10.7-2.2c0.3-0.7,1.6-4,4.5-5.5c1.8-0.9,3.8-1,6.1-0.3
				c-0.1-0.6-0.3-2.9,1.1-4.7c1.1-1.4,3-2.2,5.6-2.3c-0.4-0.5-1.5-2.1-0.9-3.8c0.5-1.4,2-2.4,4.5-3c-0.5-0.4-1.7-1.4-1.6-2.9
				c0-1.4,1.1-2.7,3.2-3.9l0.1,0.2c-2,1.2-3.1,2.4-3.1,3.7c0,1.7,1.7,2.8,1.7,2.8l0.2,0.1l-0.2,0.1c-2.6,0.6-4.1,1.6-4.5,2.9
				c-0.6,1.8,1,3.7,1,3.7l0.1,0.2h-0.2c-2.6,0.1-4.5,0.8-5.7,2.2c-1.6,2-1.1,4.7-1.1,4.7v0.2l-0.2-0.1c-2.3-0.7-4.3-0.6-6.1,0.3
				c-3.2,1.7-4.4,5.5-4.4,5.6v0.1l-0.1-0.1C16.3,168.3,11.4,174.2,11.4,174.3z"/>
		</g>
		<g>
			<path class="st1" d="M13,162.2l-0.2-0.1c0-0.1,1-1.6,2.6-2c0.9-0.2,1.8,0,2.8,0.6c0.1-0.5,0.6-2.1,1.9-2.9
				c0.9-0.5,2.1-0.6,3.5-0.1c-0.1-0.5-0.2-1.7,0.5-2.6c0.6-0.7,1.6-1.1,3-1c-0.2-0.3-0.6-1.1-0.3-1.9c0.3-0.7,1-1.2,2.3-1.6
				c-0.2-0.2-0.6-0.8-0.5-1.5c0-0.7,0.5-1.4,1.4-2.1l0.1,0.2c-0.8,0.6-1.3,1.2-1.3,1.9c0,0.8,0.6,1.4,0.6,1.4l0.1,0.1h-0.2
				c-1.3,0.3-2,0.8-2.3,1.5c-0.3,0.9,0.4,1.9,0.4,1.9l0.1,0.2h-0.2c-1.4-0.1-2.4,0.2-3,0.9c-0.9,1-0.5,2.6-0.5,2.6v0.2l-0.2-0.1
				c-1.4-0.5-2.5-0.5-3.5,0c-1.5,0.9-1.9,2.9-1.9,3v0.2l-0.1-0.1c-0.9-0.7-1.9-0.9-2.7-0.7C13.9,160.6,13,162.2,13,162.2z"/>
		</g>
		<g>
			<path class="st1" d="M13.7,155.6l-0.2-0.1c0,0,0.5-0.9,1.4-1c0.5-0.1,0.9,0,1.4,0.4c0.1-0.3,0.5-1.1,1.2-1.5
				c0.5-0.2,1-0.3,1.6-0.1c0-0.3,0-0.8,0.3-1.3c0.3-0.4,0.8-0.6,1.5-0.6c-0.1-0.2-0.2-0.6-0.1-0.9c0.1-0.4,0.5-0.7,1.1-0.8
				c-0.2-0.1-0.4-0.4-0.4-0.7c0-0.4,0.3-0.8,1-1.2l0.1,0.2c-0.6,0.3-0.9,0.7-0.9,1c0,0.4,0.5,0.7,0.5,0.7l0.2,0.1l-0.2,0.1
				c-0.6,0.2-1,0.4-1.2,0.8c-0.2,0.4,0.2,0.9,0.2,0.9l0.1,0.2h-0.2c-0.7,0-1.2,0.1-1.5,0.5c-0.4,0.5-0.3,1.3-0.3,1.3v0.2l-0.2-0.1
				c-0.6-0.2-1.1-0.2-1.6,0c-0.8,0.4-1.1,1.5-1.1,1.5v0.2l-0.1-0.1c-0.5-0.4-0.9-0.5-1.4-0.4C14.2,154.8,13.7,155.6,13.7,155.6z"/>
		</g>
	</g>
	<g>
		<g>
			<polygon class="st1" points="13.7,148.8 14.3,148.5 82.5,121.3 82.6,121.5 15.1,148.4 80.7,142.1 80.7,142.3 			"/>
		</g>
		<g>
			<polygon class="st1" points="13.9,149.2 49.1,97.4 49.3,97.5 14.9,148.1 68.2,103.1 68.4,103.3 			"/>
		</g>
		<g>
			<polygon class="st1" points="14.2,149.4 20.4,91.4 20.6,91.4 14.6,147.8 35.1,92.5 35.2,92.6 			"/>
		</g>
		<g>
			<path class="st1" d="M77.5,142.6c-6.2-4.8-3.8-16.5-3.6-17.6c-7.2-3.3-9.9-7.7-10.9-10.8c-0.9-2.9-0.5-5.3-0.4-5.9
				c-5.9,0.3-9.4-2.4-11.4-4.7c-1.9-2.2-2.6-4.6-2.8-5.1c-1.1,0.3-2.2,0.4-3.3,0.4c-6.1,0-10.1-4.2-10.6-4.7
				c-7.3,3.2-14.4-0.1-14.4-0.1l0.1-0.2c0.1,0,7.1,3.3,14.3,0.1h0.1v0.1c0.1,0.1,5.5,6.3,13.8,4.3h0.1v0.1c0,0,0.7,2.6,2.7,5.1
				c1.9,2.3,5.4,4.9,11.3,4.6h0.1v0.1c0,0-0.7,2.6,0.4,5.9c1,3.1,3.6,7.4,10.9,10.7H74v0.1c0,0.1-2.8,12.5,3.5,17.5V142.6z"/>
		</g>
		<g>
			<path class="st1" d="M59.7,144.2c0,0-3.4-2.4-4.1-6.1c-0.4-2.1,0.2-4.3,1.8-6.5c-0.9-0.2-5.4-1.5-7.4-5c-1.1-2-1.3-4.3-0.4-6.9
				c-0.9,0-5.8,0.1-8.4-2.4c-1.2-1.1-1.8-2.7-1.8-4.5c-1,0.4-7,2.6-10.2-3.1c-0.8,0.5-6.3,3.8-10.8-0.1l0.1-0.2
				c4.8,4.1,10.6,0.1,10.7,0l0.1-0.1l0.1,0.1c3.3,6.2,10,3.1,10.1,3.1l0.2-0.1v0.2c-0.1,1.9,0.5,3.4,1.7,4.6
				c2.8,2.7,8.4,2.3,8.4,2.3H50l-0.1,0.1c-0.9,2.6-0.8,5,0.3,6.9c2.2,3.8,7.4,5,7.5,5h0.2l-0.1,0.1c-1.6,2.1-2.2,4.3-1.8,6.4
				c0.6,3.6,3.9,5.9,4,6L59.7,144.2z"/>
		</g>
		<g>
			<path class="st1" d="M43.9,146.1c-0.1,0-2.7-1.2-3.1-3.6c-0.3-1.6,0.4-3.3,2.2-5.1c-0.9-0.1-4.5-0.6-5.7-2.9
				c-0.7-1.3-0.5-3,0.6-5c-0.9,0.2-4,0.9-5.7-0.6c-0.9-0.8-1.3-2.2-1-4c-0.7,0.5-3.3,2-5.2,1.2c-1-0.5-1.5-1.5-1.7-3.2
				c-0.5,0.5-2.4,2.1-4.3,1.9c-1.1-0.1-2.1-0.9-2.9-2.2l0.2-0.1c0.7,1.3,1.7,2,2.8,2.1c2.2,0.2,4.3-2,4.3-2l0.2-0.2v0.2
				c0.1,1.7,0.7,2.8,1.6,3.2c2,0.9,5.1-1.3,5.2-1.3l0.2-0.1v0.2c-0.3,1.9,0,3.2,0.9,4c1.9,1.7,5.7,0.5,5.8,0.5l0.3-0.1l-0.1,0.2
				c-1.2,2-1.4,3.7-0.7,5c1.3,2.5,5.7,2.8,5.7,2.8h0.2l-0.2,0.2c-1.8,1.8-2.5,3.5-2.3,5c0.4,2.3,2.9,3.4,3,3.4L43.9,146.1z"/>
		</g>
		<g>
			<path class="st1" d="M30,147.2c-0.1,0-1.6-0.4-1.9-1.6c-0.2-0.8,0.2-1.7,1.1-2.7c-0.7,0-2.4-0.1-3.1-1.2
				c-0.4-0.7-0.2-1.7,0.5-2.9c-0.7,0.2-2.4,0.6-3.2-0.2c-0.3-0.5-0.4-1.2-0.2-2.2c-0.5,0.3-1.8,0.9-2.7,0.5
				c-0.5-0.2-0.8-0.8-0.9-1.6c-0.4,0.3-1.3,0.8-2.3,0.7c-0.6-0.1-1.1-0.4-1.6-0.9l0.2-0.1c0.4,0.5,0.9,0.8,1.4,0.8
				c1.2,0.1,2.2-0.8,2.3-0.8l0.2-0.1v0.2c0.1,0.8,0.3,1.3,0.8,1.6c1,0.5,2.7-0.6,2.7-0.6l0.2-0.2l-0.1,0.3c-0.3,1-0.2,1.8,0.2,2.2
				c0.9,0.9,3.2,0.1,3.2,0.1l0.3-0.1l-0.1,0.3c-0.8,1.2-1,2.2-0.6,2.9c0.7,1.2,3.1,1.1,3.1,1.1h0.3l-0.2,0.2c-1,1-1.5,2-1.3,2.7
				c0.3,1.1,1.7,1.5,1.7,1.5V147.2z"/>
		</g>
		<g>
			<path class="st1" d="M22.4,147.9c0,0-0.8-0.2-1-0.9c-0.1-0.4,0.1-0.9,0.6-1.4c-0.4,0-1.2-0.2-1.5-0.8c-0.2-0.4-0.1-0.8,0.2-1.3
				c-0.4,0.1-1.2,0.2-1.6-0.2c-0.2-0.2-0.3-0.6-0.2-1c-0.3,0.2-0.9,0.4-1.4,0.2c-0.3-0.1-0.4-0.4-0.5-0.7c-0.2,0.2-0.7,0.5-1.2,0.5
				c-0.3,0-0.6-0.3-0.9-0.7l0.2-0.1c0.2,0.3,0.4,0.5,0.7,0.6c0.6,0.1,1.1-0.6,1.1-0.6l0.2-0.2v0.2c0,0.4,0.2,0.7,0.4,0.8
				c0.5,0.2,1.4-0.3,1.4-0.3l0.2-0.1l-0.1,0.3c-0.1,0.5-0.1,0.9,0.1,1.1c0.5,0.4,1.6,0.1,1.6,0.1l0.3-0.1l-0.2,0.3
				c-0.4,0.6-0.5,1-0.3,1.3c0.3,0.6,1.5,0.7,1.6,0.7h0.3l-0.2,0.2c-0.6,0.5-0.8,1-0.8,1.4c0.1,0.5,0.8,0.7,0.8,0.7H22.4z"/>
		</g>
	</g>
	<g>
		<g>
			<polygon class="st1" points="14.4,149.2 -0.6,91.8 -0.4,91.7 14.3,148.1 20.4,91.4 20.6,91.4 			"/>
		</g>
		<g>
			<polygon class="st1" points="14.8,148.9 -35.1,125.9 -35,125.8 14,148.3 -23.2,106.9 -23,106.8 			"/>
		</g>
		<g>
			<polygon class="st1" points="-51.5,155.1 -51.5,154.9 13.5,148.6 -45.1,140.4 -45.1,140.2 15.3,148.6 			"/>
		</g>
		<g>
			<path class="st1" d="M-48.4,154.8l-0.2-0.1c0.1-0.1,6.2-7.6,5-14.1v-0.1h0.1c0.1-0.1,9-6.5,9.3-14.2v-0.1h0.1
				c0.1,0,12.2-4.2,14.7-14.7v-0.1h0.1c0,0,2.6,0.3,6.4-1.1c3.5-1.3,8.8-4.3,14-11.2l0,0h0.1c0.1,0,12.5,1.1,19-5l0.1,0.2
				c-6.3,6-18.1,5.1-19.1,5.1c-5.3,7-10.6,10-14.1,11.3c-3.4,1.2-5.9,1.2-6.4,1.1c-2.4,10-13.7,14.2-14.7,14.6
				c-0.4,7.4-8.6,13.7-9.3,14.2C-42.1,147.1-48.3,154.7-48.4,154.8z"/>
		</g>
		<g>
			<path class="st1" d="M-30.8,153.2l-0.1-0.2c6.2-5.4,3.3-10.1,3.3-10.2l-0.1-0.1l0.1-0.1c8.1-4.3,6.5-10.1,6.4-10.1v-0.1h0.1
				c8.5-1,10.4-10.5,10.5-10.6v-0.1h0.1c9.6,1.5,14.8-8.7,14.9-8.8v-0.1l0.1,0.1c6.7,3.7,13.8-3.5,13.8-3.6l0.1,0.1
				c-0.1,0.1-7.2,7.4-14,3.7c-0.6,1-5.7,10.2-14.9,8.9c-0.2,1-2.4,9.5-10.5,10.6c0.2,0.9,1.1,6.1-6.5,10.2
				C-27,143.6-24.9,148.1-30.8,153.2z"/>
		</g>
		<g>
			<path class="st1" d="M-15.5,151.6l-0.1-0.2c2.2-1.2,3.4-2.6,3.5-3.9c0.1-1.6-1.4-2.6-1.4-2.6l-0.2-0.1l0.2-0.1
				c2.6-0.6,4.1-1.6,4.7-3c0.7-1.8-0.6-3.6-0.7-3.6l-0.1-0.2h0.2c2.4-0.1,4.2-0.8,5.4-2.1c1.7-2,1.4-4.8,1.4-4.8v-0.2l0.2,0.1
				c1.9,0.7,3.7,0.7,5.3-0.1c3.2-1.6,4.6-5.7,4.6-5.7V125l0.1,0.1c1.4,1.1,2.8,1.5,4.3,1.3c3-0.4,5.3-3.3,5.3-3.4l0.2,0.1
				c0,0-2.3,3-5.4,3.5c-1.5,0.2-3-0.2-4.4-1.3c-0.3,0.7-1.7,4.2-4.7,5.7c-1.6,0.8-3.4,0.9-5.4,0.2c0,0.6,0.1,3-1.5,4.8
				c-1.2,1.4-3,2.1-5.4,2.2c0.3,0.5,1.2,2.1,0.6,3.7c-0.5,1.4-2.1,2.5-4.6,3.1c0.4,0.3,1.4,1.3,1.3,2.7
				C-12,148.9-13.2,150.3-15.5,151.6z"/>
		</g>
		<g>
			<path class="st1" d="M-1.1,150.2l-0.1-0.2c0.9-0.6,1.4-1.3,1.4-2c0.1-0.8-0.5-1.4-0.5-1.4l-0.1-0.1h0.2c1.3-0.3,2.1-0.8,2.3-1.5
				c0.4-0.9-0.3-1.9-0.3-1.9l-0.1-0.2h0.2c1.3,0.1,2.3-0.2,2.9-0.9c0.9-1,0.6-2.6,0.6-2.6v-0.2l0.2,0.1c1.3,0.5,2.4,0.5,3.2,0
				c1.5-0.9,1.9-3,1.9-3v-0.2l0.1,0.1c0.9,0.6,1.7,0.9,2.5,0.7c1.5-0.3,2.4-1.9,2.4-1.9l0.2,0.1c0,0.1-0.9,1.7-2.5,2
				c-0.8,0.2-1.7,0-2.6-0.6c-0.1,0.5-0.6,2.2-2,3c-0.9,0.5-2,0.5-3.2,0.1c0.1,0.5,0.1,1.7-0.7,2.6c-0.6,0.7-1.6,1-2.9,1
				c0.2,0.3,0.5,1.1,0.2,1.9c-0.3,0.7-1.1,1.3-2.3,1.6c0.2,0.2,0.5,0.7,0.4,1.4C0.3,148.8-0.2,149.6-1.1,150.2z"/>
		</g>
		<g>
			<path class="st1" d="M6.3,149.5l-0.1-0.2c0.6-0.3,0.9-0.7,0.9-1c0-0.4-0.4-0.7-0.4-0.7l-0.2-0.1l0.2-0.1c0.6-0.2,1-0.4,1.2-0.8
				c0.2-0.4-0.1-0.9-0.1-0.9l-0.1-0.2h0.2c0.7,0,1.2-0.1,1.5-0.5c0.4-0.5,0.3-1.3,0.3-1.3v-0.2l0.2,0.1c0.6,0.2,1.1,0.2,1.5,0
				c0.8-0.4,1.1-1.5,1.1-1.5v-0.2l0.1,0.1c0.4,0.4,0.9,0.5,1.3,0.4c0.7-0.1,1.2-0.9,1.2-0.9l0.2,0.1c0,0-0.5,0.9-1.4,1
				c-0.4,0.1-0.9,0-1.4-0.4c-0.1,0.3-0.5,1.2-1.2,1.5c-0.4,0.2-1,0.2-1.5,0.1c0,0.3,0,0.9-0.4,1.3c-0.3,0.4-0.8,0.6-1.5,0.6
				c0.1,0.2,0.2,0.6,0.1,0.9c-0.1,0.4-0.5,0.7-1.1,0.8c0.2,0.1,0.4,0.4,0.4,0.7C7.3,148.7,7,149.1,6.3,149.5z"/>
		</g>
	</g>
</g>
</svg>
