<?xml version="1.0" encoding="utf-8"?>
<!-- Generator: Adobe Illustrator 19.1.0, SVG Export Plug-In . SVG Version: 6.00 Build 0)  -->
<svg version="1.1" id="Layer_1" xmlns="http://www.w3.org/2000/svg" xmlns:xlink="http://www.w3.org/1999/xlink" x="0px" y="0px"
	 viewBox="-68 69.1 162.9 162.9" style="enable-background:new -68 69.1 162.9 162.9;" xml:space="preserve">
<style type="text/css">
	.st0{fill:#E6E6E6;}
	.st1{fill:#4762B2;}
</style>
<circle class="st0" cx="14.3" cy="151.4" r="81.4"/>
<path class="st1" d="M31.2,154.8c0.9-2.4,1.3-4.7,1.2-6.8c1.7,0.1,5.2-0.2,6.9-4.7c0,0-3.9-0.9-7.4,1.6c-0.5-1.6-1.4-3-2.7-3.9
	c-1.1-0.9-2.5-1.3-4-1.4c1.2-3.9-0.7-7.2-0.7-7.2c-3.5,2.7-3.2,5.8-2.6,7.5c-2.2,0.5-4.5,1.7-6.7,3.4
	c-12.5-40.6-55.6-29.9-55.6-29.9s9.8,7.2,11.7,10.7c0.9,1.7,1.3,7.6,1.3,7.6s8.9,0.4,10.9,2.4c2.3,2.3,2.6,12.6,2.6,12.6
	s8.9-1.9,11.4-0.5c3,1.8,6.4,9.2,8.4,14.4c0,3.2,1,6,3.2,7.6c2.3,1.7,5.5,1.9,8.8,0.7c5.5,0.5,12.8,1.6,15.2,3.9
	c2.1,2,2.8,11.1,2.8,11.1s10-2.6,12.8-1.1c2.5,1.3,5.4,9.7,5.4,9.7s5.8-1.3,7.7-0.9c3.9,0.8,13.6,8.1,13.6,8.1
	S73.2,155.6,31.2,154.8z"/>
</svg>
