<?xml version="1.0" encoding="utf-8"?>
<!-- Generator: Adobe Illustrator 19.1.0, SVG Export Plug-In . SVG Version: 6.00 Build 0)  -->
<svg version="1.1" id="Layer_1" xmlns="http://www.w3.org/2000/svg" xmlns:xlink="http://www.w3.org/1999/xlink" x="0px" y="0px"
	 viewBox="-68 69.4 162.9 163.6" style="enable-background:new -68 69.4 162.9 163.6;" xml:space="preserve">
<style type="text/css">
	.st0{fill:#393939;}
	.st1{fill:#CCCC52;}
</style>
<circle class="st0" cx="13.6" cy="151.2" r="81.4"/>
<g>
	<path class="st1" d="M-20,121.5c0-0.4,0-0.7-0.1-1c0.3,0,0.7-0.2,0.8-0.9c0,0-0.6,0-1,0.5c-0.1-0.2-0.3-0.4-0.5-0.5
		c-0.2-0.1-0.4-0.1-0.6-0.1c0-0.6-0.3-1-0.3-1c-0.4,0.5-0.3,1-0.1,1.2c-0.3,0.2-0.6,0.4-0.9,0.7c-3.2-5.4-9-2.4-9-2.4
		s1.7,0.7,2.1,1.2c0.2,0.2,0.4,1.1,0.4,1.1s1.3-0.2,1.7,0c0.4,0.3,0.8,1.7,0.8,1.7s1.2-0.6,1.6-0.5c0.5,0.2,1.2,1.1,1.7,1.8
		c0.1,0.5,0.3,0.8,0.7,1s0.9,0.1,1.3-0.2c0.8-0.1,1.9-0.2,2.3,0c0.4,0.2,0.8,1.5,0.8,1.5s1.4-0.7,1.8-0.6c0.4,0.1,1.1,1.2,1.1,1.2
		s0.8-0.4,1.1-0.4c0.6,0,2.3,0.7,2.3,0.7S-13.9,120.2-20,121.5z"/>
	<path class="st1" d="M-26.7,144.7c-0.2-0.3-0.4-0.5-0.6-0.7c0.2-0.2,0.4-0.5,0.1-1.1c0,0-0.4,0.3-0.5,0.9c-0.2-0.1-0.4-0.1-0.6-0.1
		c-0.2,0-0.4,0.1-0.5,0.3c-0.3-0.5-0.8-0.6-0.8-0.6c0,0.6,0.3,0.8,0.5,0.9c-0.1,0.3-0.2,0.6-0.3,1c-5.1-2.3-7.8,2.8-7.8,2.8
		s1.6-0.3,2.1-0.2c0.2,0.1,0.9,0.5,0.9,0.5s0.8-0.8,1.2-0.9c0.4,0,1.5,0.9,1.5,0.9s0.6-1.1,1-1.2c0.4-0.1,1.5,0.2,2.2,0.4
		c0.3,0.3,0.7,0.4,1,0.4c0.4-0.1,0.7-0.4,0.8-0.8c0.5-0.5,1.3-1.1,1.7-1.2c0.4,0,1.3,0.7,1.3,0.7s0.6-1.2,1-1.4
		c0.3-0.1,1.4,0.3,1.4,0.3s0.4-0.7,0.6-0.8c0.4-0.3,2-0.6,2-0.6S-23,140.7-26.7,144.7z"/>
	<path class="st1" d="M-38.4,123.7c-0.1-0.2-0.3-0.4-0.5-0.6c0.1-0.1,0.4-0.4,0.1-0.9c0,0-0.3,0.2-0.4,0.7c-0.2-0.1-0.3-0.1-0.5-0.1
		c-0.2,0-0.3,0.1-0.4,0.2c-0.2-0.4-0.6-0.5-0.6-0.5c0,0.5,0.2,0.7,0.4,0.7c-0.1,0.2-0.2,0.5-0.2,0.8c-4.1-1.9-6.3,2.3-6.3,2.3
		s1.3-0.3,1.7-0.2c0.2,0,0.7,0.4,0.7,0.4s0.7-0.7,1-0.7c0.3,0,1.2,0.7,1.2,0.7s0.5-0.9,0.8-0.9c0.4-0.1,1.2,0.1,1.7,0.4
		c0.3,0.2,0.5,0.3,0.8,0.3c0.3-0.1,0.5-0.3,0.7-0.7c0.4-0.4,1-0.9,1.4-0.9c0.3,0,1.1,0.6,1.1,0.6s0.5-1,0.8-1.1
		c0.3-0.1,1.2,0.3,1.2,0.3s0.3-0.6,0.5-0.7c0.3-0.3,1.6-0.5,1.6-0.5S-35.4,120.4-38.4,123.7z"/>
	<path class="st1" d="M-22.9,161.5c-0.1-0.2-0.2-0.4-0.4-0.5c0.1-0.1,0.3-0.3,0.1-0.7c0,0-0.3,0.2-0.3,0.6c-0.1-0.1-0.3-0.1-0.4-0.1
		c-0.1,0-0.2,0.1-0.3,0.2c-0.2-0.3-0.5-0.4-0.5-0.4c0,0.4,0.2,0.5,0.3,0.6c-0.1,0.2-0.2,0.4-0.2,0.6c-3.3-1.5-5.2,1.9-5.2,1.9
		s1-0.2,1.4-0.1c0.2,0,0.6,0.4,0.6,0.4s0.5-0.6,0.8-0.6s1,0.6,1,0.6s0.4-0.7,0.6-0.8c0.3-0.1,1,0.1,1.4,0.3c0.2,0.2,0.4,0.3,0.7,0.2
		c0.2-0.1,0.4-0.3,0.6-0.5c0.4-0.3,0.8-0.7,1.1-0.8c0.2,0,0.9,0.5,0.9,0.5s0.4-0.8,0.7-0.9c0.2-0.1,0.9,0.2,0.9,0.2s0.3-0.5,0.4-0.6
		c0.3-0.2,1.3-0.4,1.3-0.4S-20.4,158.8-22.9,161.5z"/>
	<path class="st1" d="M-22.7,128.1c0,0-1.8,0.4-1.4,1.6c0.1,0.2,0.1,0.4,0.2,0.5c0,0.1,0.1,0.1,0.1,0.2c-0.4,0-2.1,0.1-2.2,1.4
		c0,0-1.7,0.4-2.2,1.5c-0.4,1.2-1.3,0.4-1.3,0.4c-1-0.7-2.6-0.2-2.6-0.2c-0.8-1-2.3-0.2-2.6,0c0-0.1,0-0.3-0.1-0.7
		c-0.2-1.2-2-0.7-2-0.7l1.5-1.5c0.7,0.7,1.4,1.1,2.1,1.4c1.5,0.5,2.9,0.3,2.9,0.3c0-0.3,0.1-0.6,0.2-0.8c-0.2-0.1-0.4-0.3-0.4-0.7
		c0,0,0.4,0.1,0.6,0.4c0.1-0.1,0.2-0.2,0.4-0.2c0.2,0,0.3,0,0.5,0c0-0.4,0.4-0.7,0.4-0.7c0.2,0.4,0,0.7-0.1,0.9
		c0.2,0.1,0.3,0.3,0.5,0.6c0,0,0,0,0.1,0c0.2-0.1,0.9-0.5,1.6-1l0,0c0,0,0.1-0.1,0.1-0.1c0.1-0.1,0.1-0.1,0.2-0.2
		c0.6-0.6,1.2-1.5,1.5-2.7L-22.7,128.1z"/>
	<path class="st1" d="M-8.2,137.3c0,0-1.8-0.6-2,0.7c0,0.2-0.1,0.4-0.1,0.5c0,0.1,0,0.1,0,0.2c-0.3-0.2-1.8-1-2.6,0
		c0,0-1.6-0.5-2.6,0.2c-1,0.8-1.3-0.4-1.3-0.4c-0.5-1.1-2.2-1.5-2.2-1.5c-0.1-1.2-1.8-1.4-2.2-1.4c0-0.1,0.1-0.3,0.3-0.7
		c0.4-1.2-1.4-1.6-1.4-1.6l2.1-0.5c0.2,0.9,0.6,1.7,1.1,2.3c1,1.3,2.4,1.8,2.4,1.8c0.2-0.2,0.3-0.4,0.5-0.6c-0.1-0.2-0.2-0.4,0-0.8
		c0,0,0.3,0.3,0.3,0.7c0.2,0,0.3,0,0.4,0c0.2,0.1,0.3,0.2,0.4,0.3c0.3-0.4,0.7-0.4,0.7-0.4c0,0.5-0.4,0.6-0.5,0.7
		c0.1,0.2,0.1,0.5,0.1,0.7c0,0,0,0,0.1,0c0.2,0,1,0.1,1.9-0.1c0,0,0,0,0.1,0s0.1,0,0.1,0c0.1,0,0.2,0,0.3-0.1
		c0.9-0.2,1.8-0.7,2.6-1.6L-8.2,137.3z"/>
	<path class="st1" d="M-12.8,152.9c0,0-1.7-0.2-1.7,1c0,0.2,0,0.4,0,0.5c0,0.1,0,0.1,0,0.2c-0.3-0.1-1.8-0.5-2.3,0.5
		c0,0-1.6-0.1-2.3,0.6c-0.7,0.9-1.2-0.1-1.2-0.1c-0.7-0.9-2.2-0.9-2.2-0.9c-0.4-1.1-1.9-0.9-2.2-0.8c0-0.1,0.1-0.3,0.1-0.6
		c0.2-1.1-1.5-1.2-1.5-1.2l1.7-0.9c0.3,0.8,0.9,1.4,1.4,1.8c1.2,0.9,2.4,1.1,2.4,1.1c0.1-0.2,0.2-0.5,0.4-0.6
		c-0.1-0.1-0.3-0.4-0.2-0.7c0,0,0.3,0.2,0.4,0.6c0.1-0.1,0.3-0.1,0.4-0.1c0.2,0,0.3,0.1,0.4,0.2c0.2-0.4,0.5-0.5,0.5-0.5
		c0.1,0.5-0.2,0.6-0.3,0.7c0.1,0.2,0.2,0.4,0.2,0.6c0,0,0,0,0.1,0c0.2,0,0.9-0.1,1.7-0.4c0,0,0,0,0,0c0,0,0.1,0,0.1-0.1
		c0.1,0,0.2-0.1,0.2-0.1c0.7-0.4,1.5-0.9,2.1-1.9L-12.8,152.9z"/>
	<path class="st1" d="M-24.1,137.7C-24.1,137.7-24.1,138-24.1,137.7C-24.1,137.7-24.1,137.7-24.1,137.7z"/>
</g>
<g>
	<path class="st1" d="M47.1,123.8c0.1-0.5,0.1-1.1-0.1-1.5c0.4,0,1.2-0.3,1.4-1.3c0,0-1,0-1.7,0.7c-0.2-0.3-0.5-0.6-0.9-0.7
		c-0.3-0.1-0.7-0.1-1-0.1c0.1-0.9-0.5-1.5-0.5-1.5c-0.7,0.7-0.4,1.4-0.2,1.7c-0.5,0.2-1,0.6-1.4,1.1c-5.2-7.8-14.8-3.5-14.8-3.5
		s2.7,1.1,3.4,1.7c0.3,0.3,0.7,1.5,0.7,1.5s2.1-0.3,2.7,0c0.7,0.4,1.3,2.5,1.3,2.5s2-0.8,2.7-0.7c0.8,0.2,2,1.6,2.8,2.6
		c0.2,0.7,0.5,1.2,1.2,1.4c0.7,0.2,1.4,0.1,2.1-0.3c1.3-0.1,3.1-0.3,3.8,0c0.6,0.3,1.2,2.1,1.2,2.1s2.2-1.1,3-0.9
		c0.7,0.1,1.8,1.8,1.8,1.8s1.3-0.6,1.8-0.6c1,0,3.7,1.1,3.7,1.1S57,121.9,47.1,123.8z"/>
	<path class="st1" d="M36.1,157.2c-0.3-0.4-0.6-0.8-0.9-1.1c0.3-0.2,0.7-0.8,0.2-1.6c0,0-0.7,0.4-0.8,1.2c-0.3-0.1-0.7-0.1-1-0.1
		c-0.3,0-0.6,0.2-0.8,0.4c-0.5-0.7-1.2-0.8-1.2-0.8c-0.1,0.9,0.5,1.2,0.8,1.3c-0.2,0.4-0.4,0.9-0.4,1.4c-8.3-3.3-12.7,4.1-12.7,4.1
		s2.5-0.5,3.4-0.3c0.4,0.1,1.4,0.8,1.4,0.8s1.4-1.2,2-1.2c0.7,0,2.4,1.2,2.4,1.2s1-1.5,1.6-1.7c0.7-0.2,2.4,0.2,3.5,0.6
		c0.5,0.4,1.1,0.6,1.7,0.5s1.1-0.5,1.4-1.1c0.9-0.7,2.1-1.6,2.8-1.7c0.6,0,2.2,1,2.2,1s1-1.7,1.7-2c0.5-0.2,2.3,0.5,2.3,0.5
		s0.6-1,1-1.2c0.7-0.4,3.3-0.9,3.3-0.9S42.2,151.4,36.1,157.2z"/>
	<path class="st1" d="M16.9,126.9c-0.2-0.3-0.5-0.6-0.8-0.9c0.2-0.2,0.6-0.6,0.2-1.2c0,0-0.5,0.3-0.7,1c-0.3-0.1-0.5-0.1-0.8-0.1
		c-0.3,0-0.5,0.1-0.7,0.3c-0.4-0.5-1-0.7-1-0.7c-0.1,0.7,0.4,1,0.7,1.1c-0.2,0.3-0.3,0.7-0.3,1.1c-6.7-2.7-10.4,3.3-10.4,3.3
		s2.1-0.4,2.8-0.2c0.3,0,1.1,0.6,1.1,0.6s1.1-1,1.6-1c0.5,0,2,1,2,1s0.8-1.2,1.2-1.3c0.6-0.2,2,0.2,2.8,0.5c0.4,0.3,0.9,0.5,1.4,0.4
		c0.5-0.1,0.9-0.4,1.1-1c0.7-0.6,1.7-1.3,2.3-1.3c0.5,0,1.7,0.8,1.7,0.8s0.8-1.4,1.4-1.6c0.4-0.1,1.9,0.4,1.9,0.4s0.5-0.8,0.8-1
		c0.5-0.4,2.7-0.7,2.7-0.7S21.9,122.2,16.9,126.9z"/>
	<path class="st1" d="M42.4,181.3c-0.2-0.3-0.4-0.5-0.6-0.7c0.2-0.1,0.5-0.5,0.2-1.1c0,0-0.4,0.3-0.5,0.8c-0.2-0.1-0.4-0.1-0.7-0.1
		c-0.2,0-0.4,0.1-0.5,0.2c-0.3-0.4-0.8-0.5-0.8-0.5c-0.1,0.6,0.3,0.8,0.5,0.9c-0.2,0.2-0.3,0.6-0.3,0.9c-5.5-2.2-8.5,2.7-8.5,2.7
		s1.7-0.3,2.2-0.2c0.3,0,0.9,0.5,0.9,0.5s0.9-0.8,1.3-0.8s1.6,0.8,1.6,0.8s0.7-1,1-1.1c0.5-0.1,1.6,0.2,2.3,0.4
		c0.3,0.3,0.7,0.4,1.1,0.3c0.4-0.1,0.7-0.4,0.9-0.8c0.6-0.5,1.4-1.1,1.8-1.1c0.4,0,1.4,0.7,1.4,0.7s0.7-1.1,1.1-1.3
		c0.4-0.1,1.5,0.3,1.5,0.3s0.4-0.7,0.7-0.8c0.4-0.3,2.2-0.6,2.2-0.6S46.5,177.5,42.4,181.3z"/>
	<path class="st1" d="M42.7,133.2c0,0-2.9,0.6-2.2,2.3c0.1,0.3,0.2,0.5,0.3,0.7c0.1,0.1,0.1,0.2,0.1,0.2c-0.6,0-3.4,0.2-3.6,2
		c0,0-2.7,0.6-3.5,2.1c-0.7,1.7-2.1,0.5-2.1,0.5c-1.6-1-4.3-0.2-4.3-0.2c-1.2-1.4-3.7-0.3-4.2,0c0-0.2-0.1-0.5-0.2-1
		c-0.4-1.8-3.3-1-3.3-1l2.4-2.2c1.1,1,2.3,1.6,3.4,2c2.5,0.8,4.8,0.4,4.8,0.4c0-0.4,0.1-0.8,0.3-1.1c-0.3-0.1-0.7-0.4-0.7-1
		c0,0,0.7,0.1,1,0.6c0.2-0.1,0.4-0.3,0.6-0.3c0.3,0,0.5,0,0.8,0c0.1-0.6,0.6-1,0.6-1c0.4,0.6,0.1,1.1-0.2,1.2
		c0.3,0.2,0.5,0.5,0.8,0.8c0,0,0.1,0,0.1,0c0.4-0.1,1.5-0.7,2.6-1.5l0.1,0c0.1,0,0.1-0.1,0.2-0.1c0.1-0.1,0.2-0.2,0.3-0.3
		c1-0.9,2-2.2,2.4-3.9L42.7,133.2z"/>
	<path class="st1" d="M66.4,146.5c0,0-2.9-0.8-3.3,1c-0.1,0.3-0.1,0.6-0.2,0.7c0,0.1-0.1,0.2-0.1,0.2c-0.5-0.2-3-1.4-4.2,0
		c0,0-2.7-0.7-4.3,0.2c-1.6,1.1-2.1-0.5-2.1-0.5c-0.8-1.5-3.5-2.1-3.5-2.1c-0.2-1.8-3-2-3.6-2c0.1-0.1,0.2-0.4,0.4-1
		c0.7-1.7-2.2-2.3-2.2-2.3l3.4-0.8c0.3,1.3,1,2.4,1.8,3.3c1.7,1.8,3.8,2.5,3.8,2.5c0.3-0.3,0.5-0.6,0.9-0.8c-0.2-0.2-0.4-0.6,0-1.2
		c0,0,0.5,0.4,0.5,1c0.3,0,0.5,0,0.7,0c0.3,0.1,0.5,0.2,0.7,0.4c0.4-0.5,1.1-0.6,1.1-0.6c-0.1,0.7-0.6,0.9-0.9,1
		c0.1,0.3,0.2,0.7,0.2,1c0,0,0.1,0,0.1,0c0.4,0,1.7,0.1,3.1-0.1c0,0,0.1,0,0.1,0s0.2,0,0.2,0c0.2,0,0.3,0,0.4-0.1
		c1.4-0.3,3-1,4.3-2.2L66.4,146.5z"/>
	<path class="st1" d="M58.8,168.9c0,0-2.7-0.2-2.7,1.4c0,0.3,0,0.5,0,0.7c0,0.1,0,0.2,0,0.2c-0.5-0.1-3-0.7-3.7,0.7
		c0,0-2.5-0.2-3.8,0.9c-1.2,1.3-2-0.1-2-0.1c-1.1-1.2-3.6-1.3-3.6-1.3c-0.6-1.5-3.1-1.2-3.6-1.1c0.1-0.1,0.1-0.4,0.2-0.9
		c0.3-1.6-2.5-1.7-2.5-1.7l2.8-1.2c0.5,1.1,1.4,2,2.3,2.6c1.9,1.3,4,1.6,4,1.6c0.2-0.3,0.4-0.7,0.7-0.9c-0.2-0.1-0.5-0.5-0.3-1.1
		c0,0,0.5,0.2,0.7,0.8c0.2-0.1,0.4-0.1,0.7-0.1c0.3,0,0.5,0.1,0.7,0.3c0.3-0.5,0.9-0.7,0.9-0.7c0.1,0.7-0.3,0.9-0.5,1
		c0.2,0.2,0.3,0.5,0.4,0.9c0,0,0.1,0,0.1,0c0.4,0,1.5-0.1,2.8-0.6c0,0,0.1,0,0.1,0c0.1,0,0.2,0,0.2-0.1c0.1,0,0.3-0.1,0.4-0.1
		c1.2-0.5,2.5-1.3,3.4-2.7L58.8,168.9z"/>
	<path class="st1" d="M40.3,147c0,0-0.1,0.5-0.2,0C40.3,147,40.3,147,40.3,147z"/>
</g>
</svg>
