<?xml version="1.0" encoding="utf-8"?>
<!-- Generator: Adobe Illustrator 19.1.0, SVG Export Plug-In . SVG Version: 6.00 Build 0)  -->
<svg version="1.1" id="Layer_1" xmlns="http://www.w3.org/2000/svg" xmlns:xlink="http://www.w3.org/1999/xlink" x="0px" y="0px"
	 viewBox="0 0 162.9 163.6" style="enable-background:new 0 0 162.9 163.6;" xml:space="preserve">
<style type="text/css">
	.st0{fill:#E6E6E6;}
	.st1{fill:#3A3A3A;}
</style>
<circle class="st0" cx="81.4" cy="81.4" r="81.4"/>
<g>
	<path class="st1" d="M105.9,101.4l-4.7,62.2H61.6L55,101.4c6.1-0.4,8.1-8.2,8.1-8.2c4.6-11.2,16.6-10.7,16.6-10.7c1,0,2,0.1,3,0.2
		c10.9,1.7,14,12.7,14,12.7h4.1C101.4,101.1,105.9,101.4,105.9,101.4z"/>
	<path class="st1" d="M81,82.7L81,82.7c-0.9-0.1-1.9-0.2-3-0.2c0,0-12-0.6-16.6,10.7c0,0-1.9,7.8-8.1,8.2l6.6,62.2h-6.6l-8-63.9
		c4.3-0.6,7.3-6,7.3-6c1.8-4.1,1.7-4.5,6.3-10.4c4.5-5.9,13.7-3.7,13.7-3.7L81,82.7z"/>
	<g>
		<g>
			<path class="st0" d="M65.9,112.5h1.9c1.3,0,2.2,0.1,2.6,0.1c0.5,0.1,0.8,0.4,1.1,0.8c0.3,0.4,0.4,1.1,0.4,2
				c0,0.8-0.1,1.4-0.3,1.6c-0.2,0.3-0.6,0.5-1.2,0.5c0.5,0.1,0.9,0.3,1.1,0.5c0.2,0.2,0.3,0.4,0.3,0.6c0,0.2,0.1,0.7,0.1,1.6v2.8
				h-2.5v-3.5c0-0.6,0-0.9-0.1-1c-0.1-0.1-0.3-0.2-0.7-0.2v4.7h-2.7V112.5z M68.7,114.3v2.3c0.3,0,0.5,0,0.6-0.1
				c0.1-0.1,0.2-0.4,0.2-0.8v-0.6c0-0.3-0.1-0.6-0.2-0.7C69.2,114.4,69,114.3,68.7,114.3z"/>
			<path class="st0" d="M74.8,120.9v2.1h-2v-2.1H74.8z"/>
		</g>
		<g>
			<path class="st0" d="M81.3,112.5V123h-2.7v-10.5H81.3z"/>
			<path class="st0" d="M84,120.9v2.1h-2v-2.1H84z"/>
		</g>
		<g>
			<path class="st0" d="M88.3,112.5H91c0.7,0,1.3,0.1,1.7,0.2c0.4,0.1,0.7,0.3,0.9,0.5c0.2,0.2,0.3,0.5,0.4,0.8
				c0.1,0.3,0.1,0.8,0.1,1.5v0.9c0,0.7-0.1,1.2-0.2,1.5c-0.1,0.3-0.4,0.5-0.8,0.7c-0.4,0.2-0.9,0.2-1.4,0.2H91v4.2h-2.7V112.5z
				 M91,114.3v2.7c0.1,0,0.1,0,0.2,0c0.3,0,0.4-0.1,0.5-0.2c0.1-0.1,0.1-0.4,0.1-0.8v-0.9c0-0.4-0.1-0.6-0.2-0.7
				C91.6,114.4,91.4,114.3,91,114.3z"/>
			<path class="st0" d="M94.9,120.9v2.1h-2v-2.1H94.9z"/>
		</g>
	</g>
</g>
<g>
	<path class="st1" d="M118.5,85.3c-4.8-0.1-8.2-4.4-13.7-6.8c-5.5-2.4-3.6-2.2-7-2.3c-3.4-0.1-21.6,0.7-24-7.1c0,0-3-4.3-0.6-12.7
		c0,0,3.3-6.5,0.6-8.6c-2.7-2-3.5-3.6-3.5-3.6c-7.3-1.5-11.5-2.5-11.5-2.5c0.6-0.5,1.6-0.9,2.8-1.1c0.8-0.2,1.8-0.3,2.7-0.4
		c3.3-0.3,6.7-0.1,6.9-0.1c0,0,0,0,0,0c0.1,0,0.2-0.1,0.2-0.1c1.5-1,3.6-3.6,7.9-2.3c4.3,1.3,5.6,4.2,5.7,9c0.1,4.8-1,5.4,2.8,7.4
		c3.8,2.1,15.9,12.5,19.7,16c3.8,3.4,13.5,9.4,14.3,9.7c0.8,0.3,2.1,2,1.6,3.7C122.9,85.1,123.2,85.4,118.5,85.3z"/>
	<path class="st1" d="M80.4,84.1c0.5-1.8,3.6-1.9,3.6-1.9l2.5-4.3L84,74.2h2.1l1.7,3.7l-3,5.1c0,0-2.9-0.5-3.2,1.1H80.4z"/>
	<path class="st1" d="M84.6,84.6c0.5-1.8,3.6-1.9,3.6-1.9l2.5-4.3l-2.5-3.7h2.1l1.7,3.7l-3,5.1c0,0-2.9-0.5-3.2,1.1H84.6z"/>
</g>
</svg>
