<?xml version="1.0" encoding="utf-8"?>
<!-- Generator: Adobe Illustrator 19.1.0, SVG Export Plug-In . SVG Version: 6.00 Build 0)  -->
<svg version="1.1" id="Layer_1" xmlns="http://www.w3.org/2000/svg" xmlns:xlink="http://www.w3.org/1999/xlink" x="0px" y="0px"
	 viewBox="-68 69.4 162.9 163.6" style="enable-background:new -68 69.4 162.9 163.6;" xml:space="preserve">
<style type="text/css">
	.st0{fill:#E6E6E6;}
	.st1{fill:#4D5A80;}
	.st2{fill:#3A3A3A;}
</style>
<circle class="st0" cx="13.7" cy="151.7" r="81.4"/>
<g>
	<g>
		<ellipse class="st1" cx="13.7" cy="170.2" rx="24.9" ry="18"/>
		<circle class="st0" cx="5.3" cy="162.7" r="4.4"/>
		<circle class="st2" cx="6.1" cy="161.1" r="2.5"/>
		<circle class="st0" cx="20.9" cy="162.7" r="4.4"/>
		<circle class="st2" cx="21.7" cy="161.1" r="2.5"/>
		<g>
			<polygon class="st2" points="70.7,185.7 58.9,142.1 36.1,164.3 34.6,162.8 60,138.1 72,182.8 75.8,181 76.7,182.8 			"/>
		</g>
		<g>
			<polygon class="st2" points="69.9,191.1 63.9,191.1 55.2,160.1 35.8,169.5 34.9,167.6 56.5,157.2 65.5,189 69.9,189 			"/>
		</g>
		<g>
			<polygon class="st2" points="57.1,173.9 51.9,173.9 40.1,135.9 30.5,158.8 28.6,158 40.4,129.8 53.4,171.9 57.1,171.9 			"/>
		</g>
		<g>
			<polygon class="st2" points="47,193.2 42.5,190.3 50.9,178.2 35.1,173.9 35.6,171.9 54.3,176.9 45.4,189.8 48.1,191.5 			"/>
		</g>
		<g>
			<polygon class="st2" points="-43.4,185.7 -49.4,182.8 -48.5,181 -44.7,182.8 -32.7,138.1 -7.3,162.8 -8.8,164.3 -31.6,142.1 			
				"/>
		</g>
		<g>
			<polygon class="st2" points="-36.6,191.1 -42.6,191.1 -42.6,189 -38.2,189 -29.2,157.2 -7.6,167.6 -8.5,169.5 -27.9,160.1 			"/>
		</g>
		<g>
			<polygon class="st2" points="-24.6,173.9 -29.8,173.9 -29.8,171.9 -26.1,171.9 -13.1,129.8 -1.3,158 -3.2,158.8 -12.8,135.9 			
				"/>
		</g>
		<g>
			<polygon class="st2" points="-19.7,193.2 -20.8,191.5 -18.1,189.8 -27,176.9 -8.3,171.9 -7.8,173.9 -23.6,178.2 -15.2,190.3 			
				"/>
		</g>
	</g>
	<g>
		<rect x="12.6" y="69" class="st2" width="2.1" height="85.9"/>
	</g>
</g>
</svg>
