<?xml version="1.0" encoding="utf-8"?>
<!-- Generator: Adobe Illustrator 19.1.0, SVG Export Plug-In . SVG Version: 6.00 Build 0)  -->
<svg version="1.1" id="Layer_1" xmlns="http://www.w3.org/2000/svg" xmlns:xlink="http://www.w3.org/1999/xlink" x="0px" y="0px"
	 viewBox="-68 69.4 162.9 163.6" style="enable-background:new -68 69.4 162.9 163.6;" xml:space="preserve">
<style type="text/css">
	.st0{fill:#393939;}
	.st1{fill:#EBC2C2;}
	.st2{fill:#E6E6E6;}
	.st3{fill:#3A3A3A;}
</style>
<circle class="st0" cx="13.4" cy="150.8" r="81.4"/>
<g>
	<path class="st1" d="M-33.3,233l-10.6-50.4h-13.4c0,0,23-15.4,19.7-34.5c0,0,9.1,26.9,22.1,27.3l-6.7-40.3h-10.7v-14.3h-6.7
		c0,0,10.6-12.5,10.6-18.2c0,0,4.8,14.4,8.2,15.3V94.4h-8.6c0,0,10.1-10.6,11-20.1c0,0,8.2,19.7,12,19.7H-15v19.2v4.4
		c0,0,7.4-9.7,7.4-15.9c0,0,3.1,15.6,7.9,16.5H-6v15.1l3.4,24.9h6.2v-13.5h36.9v-17.2h-9.6c0,0,17.8-16.3,19.2-23.5
		c0,0,11.5,22.1,16.3,23h-8.2v59c0,0,8.6-5.3,11.5-17.3c0,0,3.8,16.3,14.4,18.7H77L66.4,233H-33.3z"/>
	<g>
		<path class="st2" d="M4.4,192.1c0,0-7.6-0.4-7.6,4.3c0,4.7,0,17.6,0,17.6h7.6H12c0,0,0-13,0-17.6S4.4,192.1,4.4,192.1z"/>
		<g>
			<rect x="-3.1" y="200.3" class="st3" width="15.1" height="2.9"/>
		</g>
		<g>
			<rect x="3" y="192.1" class="st3" width="2.9" height="21.9"/>
		</g>
	</g>
	<g>
		<path class="st2" d="M33.9,158.8c0,0-7.6-0.4-7.6,4.3c0,4.7,0,17.6,0,17.6h7.6h7.6c0,0,0-13,0-17.6
			C41.5,158.4,33.9,158.8,33.9,158.8z"/>
		<g>
			<rect x="26.4" y="166.9" class="st3" width="15.1" height="2.9"/>
		</g>
		<g>
			<rect x="32.5" y="158.8" class="st3" width="2.9" height="21.9"/>
		</g>
	</g>
	<g>
		<path class="st2" d="M49.8,130.2c0,0-4.4-0.2-4.4,2.5s0,10.3,0,10.3h4.4h4.4c0,0,0-7.6,0-10.3C54.2,130,49.8,130.2,49.8,130.2z"/>
		<g>
			<rect x="45.3" y="135" class="st3" width="8.9" height="1.7"/>
		</g>
		<g>
			<rect x="48.9" y="130.2" class="st3" width="1.7" height="12.9"/>
		</g>
	</g>
	<g>
		<path class="st2" d="M-31.3,183.2c0,0-4.4,0.6-3.9,3.3c0.5,2.7,1.9,10.2,1.9,10.2l4.4-0.8l4.4-0.8c0,0-1.4-7.5-1.9-10.2
			C-27,182.2-31.3,183.2-31.3,183.2z"/>
		<g>
			
				<rect x="-34.7" y="187.9" transform="matrix(-0.9823 0.1872 -0.1872 -0.9823 -24.648 379.8297)" class="st3" width="8.9" height="1.7"/>
		</g>
		<g>
			
				<rect x="-30.9" y="183.1" transform="matrix(-0.9825 0.1864 -0.1864 -0.9825 -24.2453 381.3683)" class="st3" width="1.7" height="12.9"/>
		</g>
	</g>
	<g>
		<path class="st2" d="M-26.6,122.5c0,0-3.5-0.2-3.5,2s0,8.1,0,8.1h3.5h3.5c0,0,0-6,0-8.1S-26.6,122.5-26.6,122.5z"/>
	</g>
	<g>
		<path class="st2" d="M-11.6,119.3c0,0-3.5-0.2-3.5,2s0,8.1,0,8.1h3.5h3.5c0,0,0-6,0-8.1C-8.2,119.1-11.6,119.3-11.6,119.3z"/>
	</g>
	<g>
		<path class="st2" d="M67.8,189c0,0-3.4-0.9-3.8,1.2c-0.5,2.1-1.7,8-1.7,8l3.4,0.7l3.4,0.7c0,0,1.2-5.8,1.7-8
			C71.3,189.5,67.8,189,67.8,189z"/>
	</g>
</g>
</svg>
