<?xml version="1.0" encoding="utf-8"?>
<!-- Generator: Adobe Illustrator 19.1.0, SVG Export Plug-In . SVG Version: 6.00 Build 0)  -->
<svg version="1.1" id="Layer_1" xmlns="http://www.w3.org/2000/svg" xmlns:xlink="http://www.w3.org/1999/xlink" x="0px" y="0px"
	 viewBox="-68 69.1 162.9 162.9" style="enable-background:new -68 69.1 162.9 162.9;" xml:space="preserve">
<style type="text/css">
	.st0{fill:#E6E6E6;}
	.st1{fill:#B2B247;}
	.st2{fill:#B25959;}
	.st3{fill:#4762B2;}
	.st4{fill:#666666;}
</style>
<path class="st0" d="M94.9,150.6c0,21.4-8.3,40.9-21.8,55.4c-14.9,16-36.1,26-59.6,26c-27.7,0-52.2-13.9-66.9-35
	c-9.2-13.2-14.6-29.2-14.6-46.4c0-45,36.5-81.5,81.4-81.5C58.4,69.1,94.9,105.6,94.9,150.6z"/>
<g>
	<g>
		<path class="st1" d="M-4.5,182.9c-10.9,25.9-12.8,30.4-12.8,30.4l-34.9-14.7l13-30.7c0,0,6.9-25.8,28.7-16.6
			C-10.6,151.2,6.4,157-4.5,182.9z"/>
		<path class="st1" d="M-43.6,158.4c0,0,8.6-22.4,32-7.7c-21.7-9.2-28.7,16.6-28.7,16.6l-13,30.7l-6-2.5L-43.6,158.4z"/>
	</g>
	<path class="st2" d="M39.2,139.1c0,0-7.9,0.9-14.8,1.6c0.1-13.9,0.3-25.3,0.3-25.3L12,113.3c0,0,0.3,13.7,1.1,27.8
		c-6-1.4-15.8-6.5-15.8-6.5l-0.6,16.9c0,0,9.9-0.6,17-1c0.2,3.4,0.5,6.6,0.8,9.5c1.9,16.9-4.1,46.4-4.1,46.4l17.3,0.6
		c0,0-1.3-9.1-2.7-30.2c-0.5-7.1-0.6-16.5-0.7-25.7c5.6,1.4,14.2,4,14.2,4L39.2,139.1z"/>
	<path class="st3" d="M61.3,150.5c-23.4,0-19.7,19.5-19.7,19.5l7.3,37.3h12.3h0.1h12.3l7.4-37.2C81,170.1,84.6,150.5,61.3,150.5z"/>
	<path class="st4" d="M73.1,206c-14.9,16-36.1,26-59.6,26c-27.7,0-52.2-13.9-66.9-35C-20.4,196.6,49.3,203.5,73.1,206z"/>
</g>
</svg>
