<?xml version="1.0" encoding="utf-8"?>
<!-- Generator: Adobe Illustrator 19.1.0, SVG Export Plug-In . SVG Version: 6.00 Build 0)  -->
<svg version="1.1" id="Layer_1" xmlns="http://www.w3.org/2000/svg" xmlns:xlink="http://www.w3.org/1999/xlink" x="0px" y="0px"
	 viewBox="0 0 162.9 162.9" style="enable-background:new 0 0 162.9 162.9;" xml:space="preserve">
<style type="text/css">
	.st0{fill:#E6E6E6;}
	.st1{fill:#3A3A3A;}
</style>
<path class="st0" d="M162.9,81.5c0,21.4-8.3,40.9-21.8,55.4c-14.9,16-36.1,26-59.6,26c-27.7,0-52.2-13.9-66.9-35
	C5.4,114.7,0,98.7,0,81.5C0,36.5,36.5,0,81.4,0C126.4,0,162.9,36.5,162.9,81.5z"/>
<g>
	<g>
		<path class="st1" d="M63.5,113.8c-10.9,25.9-12.8,30.4-12.8,30.4l-34.9-14.7l13-30.7c0,0,6.9-25.8,28.7-16.6
			C57.4,82.1,74.4,87.9,63.5,113.8z"/>
		<path class="st1" d="M24.4,89.3c0,0,8.6-22.4,32-7.7c-21.7-9.2-28.7,16.6-28.7,16.6l-13,30.7l-6-2.5L24.4,89.3z"/>
	</g>
	<path class="st1" d="M107.2,70c0,0-7.9,0.9-14.8,1.6c0.1-13.9,0.3-25.3,0.3-25.3l-12.7-2.1c0,0,0.3,13.7,1.1,27.8
		c-6-1.4-15.8-6.5-15.8-6.5l-0.6,16.9c0,0,9.9-0.6,17-1c0.2,3.4,0.5,6.6,0.8,9.5c1.9,16.9-4.1,46.4-4.1,46.4l17.3,0.6
		c0,0-1.3-9.1-2.7-30.2c-0.5-7.1-0.6-16.5-0.7-25.7c5.6,1.4,14.2,4,14.2,4L107.2,70z"/>
	<path class="st1" d="M129.3,81.4c-23.4,0-19.7,19.5-19.7,19.5l7.3,37.3h12.3h0.1h12.3L149,101C149,101,152.6,81.4,129.3,81.4z"/>
	<path class="st1" d="M141.1,136.9c-14.9,16-36.1,26-59.6,26c-27.7,0-52.2-13.9-66.9-35C47.6,127.5,117.3,134.4,141.1,136.9z"/>
</g>
</svg>
