<?xml version="1.0" encoding="utf-8"?>
<!-- Generator: Adobe Illustrator 19.1.0, SVG Export Plug-In . SVG Version: 6.00 Build 0)  -->
<svg version="1.1" id="Layer_1" xmlns="http://www.w3.org/2000/svg" xmlns:xlink="http://www.w3.org/1999/xlink" x="0px" y="0px"
	 viewBox="-68 69.4 162.9 163.6" style="enable-background:new -68 69.4 162.9 163.6;" xml:space="preserve">
<style type="text/css">
	.st0{fill:#393939;}
	.st1{fill:#CCCC52;}
</style>
<circle class="st0" cx="13.6" cy="151.2" r="81.4"/>
<g>
	<path class="st1" d="M28.6,93.5c0.1-1.1,0.1-2.2-0.2-3.1c0.8-0.1,2.2-0.6,2.5-2.7c0,0-1.8,0-3.1,1.5c-0.4-0.6-0.9-1.2-1.6-1.4
		c-0.6-0.3-1.2-0.3-1.9-0.2c0.1-1.8-1-3.1-1-3.1c-1.3,1.5-0.8,2.9-0.4,3.6c-0.9,0.5-1.8,1.2-2.6,2.2C10.7,73.9-7,82.9-7,82.9
		s5,2.2,6.2,3.5c0.6,0.6,1.3,3.2,1.3,3.2s3.9-0.7,5,0c1.2,0.8,2.4,5.2,2.4,5.2s3.7-1.7,4.9-1.4c1.5,0.5,3.7,3.4,5.1,5.4
		c0.3,1.4,1,2.5,2.2,3s2.6,0.3,3.9-0.6c2.4-0.3,5.7-0.6,7,0.1c1.1,0.6,2.3,4.5,2.3,4.5s4.1-2.2,5.5-1.8c1.2,0.3,3.4,3.7,3.4,3.7
		s2.4-1.2,3.3-1.2c1.8,0,6.8,2.2,6.8,2.2S47,89.6,28.6,93.5z"/>
	<path class="st1" d="M8.3,163.5c-0.5-0.9-1.1-1.6-1.7-2.2c0.5-0.5,1.3-1.6,0.4-3.3c0,0-1.3,0.9-1.5,2.6c-0.5-0.2-1.2-0.3-1.8-0.2
		c-0.6,0.1-1.1,0.4-1.5,0.8c-0.9-1.4-2.3-1.7-2.3-1.7c-0.1,1.8,0.9,2.5,1.5,2.8c-0.4,0.8-0.7,1.8-0.8,2.9c-15.3-7-23.5,8.6-23.5,8.6
		s4.7-1,6.3-0.6c0.7,0.2,2.6,1.6,2.6,1.6s2.5-2.5,3.6-2.6c1.3-0.1,4.4,2.6,4.4,2.6s1.8-3.2,2.9-3.5c1.3-0.4,4.4,0.5,6.5,1.3
		c0.9,0.9,2,1.3,3.1,1.1c1.1-0.2,2-1.1,2.5-2.4c1.6-1.5,3.8-3.4,5.1-3.5c1.1-0.1,4,2.1,4,2.1s1.9-3.6,3.1-4.1c1-0.4,4.3,1,4.3,1
		s1.1-2.1,1.8-2.5c1.3-0.9,6-1.9,6-1.9S19.6,151.3,8.3,163.5z"/>
	<path class="st1" d="M-27,100.1c-0.4-0.7-0.9-1.3-1.4-1.8c0.4-0.4,1.1-1.3,0.4-2.6c0,0-1,0.7-1.2,2.1c-0.5-0.2-1-0.3-1.5-0.2
		c-0.5,0.1-0.9,0.3-1.2,0.7c-0.7-1.1-1.9-1.4-1.9-1.4c-0.1,1.4,0.7,2,1.2,2.2c-0.3,0.6-0.6,1.4-0.6,2.3c-12.4-5.6-19.1,7-19.1,7
		s3.8-0.8,5.1-0.5c0.6,0.1,2.1,1.3,2.1,1.3s2-2,2.9-2.1c1-0.1,3.6,2.1,3.6,2.1s1.4-2.6,2.3-2.8c1.1-0.4,3.6,0.4,5.2,1.1
		c0.8,0.7,1.6,1,2.5,0.9c0.9-0.2,1.6-0.9,2-2c1.3-1.2,3.1-2.7,4.2-2.8c0.9-0.1,3.2,1.7,3.2,1.7s1.5-3,2.5-3.3
		c0.8-0.3,3.5,0.8,3.5,0.8s0.9-1.7,1.4-2c1-0.8,4.9-1.5,4.9-1.5S-17.9,90.2-27,100.1z"/>
	<path class="st1" d="M20,214.1c-0.3-0.6-0.7-1.1-1.1-1.4c0.3-0.3,0.9-1,0.3-2.2c0,0-0.8,0.6-1,1.7c-0.4-0.2-0.8-0.2-1.2-0.2
		c-0.4,0.1-0.7,0.3-1,0.5c-0.6-0.9-1.5-1.1-1.5-1.1c-0.1,1.2,0.6,1.6,1,1.8c-0.3,0.5-0.5,1.2-0.5,1.9c-10.1-4.6-15.6,5.7-15.6,5.7
		s3.1-0.7,4.1-0.4c0.5,0.1,1.7,1.1,1.7,1.1s1.6-1.7,2.4-1.7s2.9,1.7,2.9,1.7s1.2-2.1,1.9-2.3c0.9-0.3,2.9,0.4,4.3,0.9
		c0.6,0.6,1.3,0.8,2,0.7c0.7-0.2,1.3-0.8,1.7-1.6c1.1-1,2.5-2.2,3.4-2.3c0.7-0.1,2.6,1.4,2.6,1.4s1.2-2.4,2-2.7
		c0.7-0.3,2.8,0.6,2.8,0.6s0.8-1.4,1.2-1.7c0.8-0.6,4-1.2,4-1.2S27.5,206,20,214.1z"/>
	<path class="st1" d="M20.5,113.3c0,0-5.4,1.3-4.1,4.8c0.2,0.6,0.4,1.1,0.6,1.5c0.1,0.2,0.2,0.4,0.2,0.5c-1.1,0-6.2,0.4-6.6,4.1
		c0,0-5,1.3-6.5,4.5c-1.3,3.5-3.8,1.1-3.8,1.1c-3-2-7.9-0.5-7.9-0.5c-2.3-3-6.8-0.6-7.8-0.1c0-0.4-0.1-1-0.4-2.1c-0.7-3.7-6-2-6-2
		l4.4-4.6c2,2.1,4.2,3.4,6.3,4.2c4.6,1.6,8.8,0.9,8.8,0.9c0-0.9,0.2-1.7,0.5-2.3c-0.5-0.2-1.3-0.8-1.3-2.1c0,0,1.2,0.2,1.9,1.3
		c0.3-0.3,0.7-0.6,1.1-0.7c0.5-0.1,1-0.1,1.5,0.1c0.1-1.3,1.1-2.1,1.1-2.1c0.7,1.3,0.1,2.2-0.3,2.6c0.5,0.4,1,1,1.4,1.7
		c0,0,0.1,0,0.2-0.1c0.7-0.3,2.8-1.4,4.8-3.1l0.1-0.1c0.1-0.1,0.2-0.2,0.3-0.3c0.2-0.2,0.4-0.4,0.6-0.6c1.9-1.9,3.7-4.6,4.4-8.1
		L20.5,113.3z"/>
	<path class="st1" d="M64.3,141.1c0,0-5.3-1.7-6,2c-0.1,0.7-0.2,1.2-0.3,1.5c0,0.2-0.1,0.4-0.1,0.5c-0.9-0.5-5.5-2.9-7.8,0.1
		c0,0-4.9-1.5-7.9,0.5c-3,2.3-3.8-1.1-3.8-1.1c-1.5-3.2-6.5-4.5-6.5-4.5c-0.4-3.7-5.5-4.1-6.6-4.1c0.1-0.3,0.4-0.9,0.8-2
		c1.3-3.5-4.1-4.8-4.1-4.8l6.2-1.6c0.6,2.8,1.8,5.1,3.3,6.9c3.1,3.8,7.1,5.3,7.1,5.3c0.5-0.7,1-1.3,1.6-1.7c-0.3-0.5-0.7-1.3,0-2.5
		c0,0,0.9,0.8,0.9,2.1c0.5-0.1,0.9-0.1,1.3,0c0.5,0.2,0.9,0.5,1.2,0.9c0.8-1.1,2-1.2,2-1.2c-0.1,1.5-1.1,1.9-1.6,2.1
		c0.2,0.6,0.3,1.4,0.3,2.1c0,0,0.1,0,0.2,0c0.7,0.1,3.1,0.3,5.8-0.2c0,0,0.1,0,0.2,0s0.3,0,0.4-0.1c0.3-0.1,0.6-0.1,0.8-0.2
		c2.6-0.6,5.5-2,8-4.7L64.3,141.1z"/>
	<path class="st1" d="M50.3,188.1c0,0-5-0.5-5,2.9c0,0.6,0,1.1,0,1.4c0,0.2,0,0.4,0,0.5c-0.9-0.3-5.5-1.5-6.9,1.5c0,0-4.7-0.4-7,1.9
		c-2.2,2.7-3.6-0.2-3.6-0.2c-2-2.6-6.7-2.8-6.7-2.8c-1.1-3.2-5.7-2.6-6.7-2.4c0.1-0.3,0.2-0.9,0.3-1.9c0.5-3.4-4.6-3.5-4.6-3.5
		l5.2-2.6c1,2.4,2.6,4.2,4.2,5.5c3.5,2.8,7.3,3.4,7.3,3.4c0.3-0.7,0.7-1.4,1.2-1.8c-0.4-0.3-0.9-1.1-0.5-2.2c0,0,0.9,0.5,1.2,1.7
		c0.4-0.2,0.8-0.3,1.2-0.2c0.5,0,0.9,0.3,1.2,0.6c0.5-1.1,1.6-1.5,1.6-1.5c0.2,1.4-0.6,1.9-1,2.1c0.3,0.5,0.6,1.1,0.7,1.9
		c0,0,0.1,0,0.2,0c0.7-0.1,2.8-0.3,5.1-1.3c0,0,0.1,0,0.1-0.1c0.1,0,0.3-0.1,0.4-0.2c0.2-0.1,0.5-0.2,0.7-0.3
		c2.2-1.1,4.6-2.8,6.2-5.7L50.3,188.1z"/>
	<path class="st1" d="M16.2,142.2c0,0-0.1,1.1-0.3-0.1C16.2,142.2,16.2,142.2,16.2,142.2z"/>
</g>
</svg>
