<?xml version="1.0" encoding="utf-8"?>
<!-- Generator: Adobe Illustrator 19.1.0, SVG Export Plug-In . SVG Version: 6.00 Build 0)  -->
<svg version="1.1" id="Layer_1" xmlns="http://www.w3.org/2000/svg" xmlns:xlink="http://www.w3.org/1999/xlink" x="0px" y="0px"
	 viewBox="0 0 162.9 163.6" style="enable-background:new 0 0 162.9 163.6;" xml:space="preserve">
<style type="text/css">
	.st0{fill:#E6E6E6;}
	.st1{fill:#3A3A3A;}
</style>
<circle class="st0" cx="81.7" cy="82.3" r="81.4"/>
<g>
	<g>
		<ellipse class="st1" cx="81.7" cy="100.8" rx="24.9" ry="18"/>
		<circle class="st0" cx="73.3" cy="93.3" r="4.4"/>
		<circle class="st1" cx="74.1" cy="91.7" r="2.5"/>
		<circle class="st0" cx="88.9" cy="93.3" r="4.4"/>
		<circle class="st1" cx="89.7" cy="91.7" r="2.5"/>
		<g>
			<polygon class="st1" points="138.7,116.3 126.9,72.7 104.1,94.9 102.6,93.4 128,68.7 140,113.4 143.8,111.6 144.7,113.4 			"/>
		</g>
		<g>
			<polygon class="st1" points="137.9,121.7 131.9,121.7 123.2,90.7 103.8,100.1 102.9,98.2 124.5,87.8 133.5,119.6 137.9,119.6 			
				"/>
		</g>
		<g>
			<polygon class="st1" points="125.1,104.5 119.9,104.5 108.1,66.5 98.5,89.4 96.6,88.6 108.4,60.4 121.4,102.5 125.1,102.5 			"/>
		</g>
		<g>
			<polygon class="st1" points="115,123.8 110.5,120.9 118.9,108.8 103.1,104.5 103.6,102.5 122.3,107.5 113.4,120.4 116.1,122.1 
							"/>
		</g>
		<g>
			<polygon class="st1" points="24.6,116.3 18.6,113.4 19.5,111.6 23.3,113.4 35.3,68.7 60.7,93.4 59.2,94.9 36.4,72.7 			"/>
		</g>
		<g>
			<polygon class="st1" points="31.4,121.7 25.4,121.7 25.4,119.6 29.8,119.6 38.8,87.8 60.4,98.2 59.5,100.1 40.1,90.7 			"/>
		</g>
		<g>
			<polygon class="st1" points="43.4,104.5 38.2,104.5 38.2,102.5 41.9,102.5 54.9,60.4 66.7,88.6 64.8,89.4 55.2,66.5 			"/>
		</g>
		<g>
			<polygon class="st1" points="48.3,123.8 47.2,122.1 49.9,120.4 41,107.5 59.7,102.5 60.2,104.5 44.4,108.8 52.8,120.9 			"/>
		</g>
	</g>
	<g>
		<rect x="80.6" y="-0.4" class="st1" width="2.1" height="85.9"/>
	</g>
</g>
</svg>
