<?xml version="1.0" encoding="utf-8"?>
<!-- Generator: Adobe Illustrator 19.1.0, SVG Export Plug-In . SVG Version: 6.00 Build 0)  -->
<svg version="1.1" id="Layer_1" xmlns="http://www.w3.org/2000/svg" xmlns:xlink="http://www.w3.org/1999/xlink" x="0px" y="0px"
	 viewBox="0 0 162.9 163.6" style="enable-background:new 0 0 162.9 163.6;" xml:space="preserve">
<style type="text/css">
	.st0{fill:#E6E6E6;}
	.st1{fill:#3A3A3A;}
</style>
<circle class="st0" cx="81.4" cy="81.4" r="81.4"/>
<g>
	<path class="st1" d="M34.7,163.6l-10.6-50.4H10.7c0,0,23-15.4,19.7-34.5c0,0,9.1,26.9,22.1,27.3l-6.7-40.3H35.1V51.4h-6.7
		c0,0,10.6-12.5,10.6-18.2c0,0,4.8,14.4,8.2,15.3V25h-8.6c0,0,10.1-10.6,11-20.1c0,0,8.2,19.7,12,19.7h-8.6v19.2v4.4
		c0,0,7.4-9.7,7.4-15.9c0,0,3.1,15.6,7.9,16.5H62v15.1l3.4,24.9h6.2V75.3h36.9V58.1h-9.6c0,0,17.8-16.3,19.2-23.5
		c0,0,11.5,22.1,16.3,23h-8.2v59c0,0,8.6-5.3,11.5-17.3c0,0,3.8,16.3,14.4,18.7H145l-10.6,45.6H34.7z"/>
	<g>
		<path class="st0" d="M72.4,122.7c0,0-7.6-0.4-7.6,4.3c0,4.7,0,17.6,0,17.6h7.6H80c0,0,0-13,0-17.6C80,122.4,72.4,122.7,72.4,122.7
			z"/>
		<g>
			<rect x="64.9" y="130.9" class="st1" width="15.1" height="2.9"/>
		</g>
		<g>
			<rect x="71" y="122.7" class="st1" width="2.9" height="21.9"/>
		</g>
	</g>
	<g>
		<path class="st0" d="M101.9,89.4c0,0-7.6-0.4-7.6,4.3c0,4.7,0,17.6,0,17.6h7.6h7.6c0,0,0-13,0-17.6
			C109.5,89,101.9,89.4,101.9,89.4z"/>
		<g>
			<rect x="94.4" y="97.5" class="st1" width="15.1" height="2.9"/>
		</g>
		<g>
			<rect x="100.5" y="89.4" class="st1" width="2.9" height="21.9"/>
		</g>
	</g>
	<g>
		<path class="st0" d="M117.8,60.8c0,0-4.4-0.2-4.4,2.5c0,2.7,0,10.3,0,10.3h4.4h4.4c0,0,0-7.6,0-10.3
			C122.2,60.6,117.8,60.8,117.8,60.8z"/>
		<g>
			<rect x="113.3" y="65.6" class="st1" width="8.9" height="1.7"/>
		</g>
		<g>
			<rect x="116.9" y="60.8" class="st1" width="1.7" height="12.9"/>
		</g>
	</g>
	<g>
		<path class="st0" d="M36.7,113.8c0,0-4.4,0.6-3.9,3.3c0.5,2.7,1.9,10.2,1.9,10.2l4.4-0.8l4.4-0.8c0,0-1.4-7.5-1.9-10.2
			C41,112.8,36.7,113.8,36.7,113.8z"/>
		<g>
			
				<rect x="33.3" y="118.5" transform="matrix(0.9823 -0.1872 0.1872 0.9823 -21.6831 9.1803)" class="st1" width="8.9" height="1.7"/>
		</g>
		<g>
			
				<rect x="37.1" y="113.7" transform="matrix(0.9825 -0.1864 0.1864 0.9825 -21.7329 9.1709)" class="st1" width="1.7" height="12.9"/>
		</g>
	</g>
	<g>
		<path class="st0" d="M41.4,53.1c0,0-3.5-0.2-3.5,2s0,8.1,0,8.1h3.5h3.5c0,0,0-6,0-8.1S41.4,53.1,41.4,53.1z"/>
	</g>
	<g>
		<path class="st0" d="M56.4,49.9c0,0-3.5-0.2-3.5,2c0,2.2,0,8.1,0,8.1h3.5h3.5c0,0,0-6,0-8.1C59.8,49.7,56.4,49.9,56.4,49.9z"/>
	</g>
	<g>
		<path class="st0" d="M135.8,119.6c0,0-3.4-0.9-3.8,1.2c-0.5,2.1-1.7,8-1.7,8l3.4,0.7l3.4,0.7c0,0,1.2-5.8,1.7-8
			C139.3,120.1,135.8,119.6,135.8,119.6z"/>
	</g>
</g>
</svg>
