<?xml version="1.0" encoding="utf-8"?>
<!-- Generator: Adobe Illustrator 19.1.0, SVG Export Plug-In . SVG Version: 6.00 Build 0)  -->
<svg version="1.1" id="Layer_1" xmlns="http://www.w3.org/2000/svg" xmlns:xlink="http://www.w3.org/1999/xlink" x="0px" y="0px"
	 viewBox="-68 69.1 162.9 162.9" style="enable-background:new -68 69.1 162.9 162.9;" xml:space="preserve">
<style type="text/css">
	.st0{fill:#3D4766;}
	.st1{fill:#CCCCCC;}
</style>
<circle class="st0" cx="13.4" cy="150.9" r="81.4"/>
<g>
	<g>
		<g>
			<path class="st1" d="M94.9,75.7v0.6v0.2l-0.2,0.1l0,0l-1,0.3l-1.5,0.5l0,0L77.9,82l0,0l-1.6,0.5l-14.7,4.7l0,0l-2,0.6l0,0
				L29,97.6l-1.7,0.6l0,0l-33,10.5l-1.4,0.4l0,0l-38.7,12.4l-1.2,0.4l-20.8,6.6l-0.3-0.9l20.8-6.6l1.1-0.3l38.8-12.4l1.5-0.5
				l32.8-10.5l1.8-0.6l0,0L59.1,87l0,0l1.7-0.6l15-4.8l0,0l1.7-0.5l0,0l13.9-4.4l-14.1-0.2h-1.5l0,0l-15.7-0.4h-1.7l-30.5-0.4h-1.4
				l0,0l-36.6-0.6l0,0h-1.3l-40-0.5h-1.2l-13.1-0.2v-1.3l12.1,0.2h1.3l39.8,0.6h1.4l36.8,0.6h1.2l31,0.5l0,0h0.8l17.1,0.3h0.4l0,0
				l17.9,0.3h0.2L94.9,75.7z"/>
		</g>
		<g>
			<path class="st1" d="M94.9,75.7v0.6l-0.2,0.3l0,0l-1.8,2.9l-7.4,11.9l-0.9,1.4l-8.2,13.3l-1,1.6l0,0l-16.8,27l0,0l-1.1,1.8l0,0
				l-18.2,29.4l-0.8,1.2l0,0l-21.4,34.5l-0.7,1l-1.4,2.3l-0.8-0.5l1.5-2.3l0.7-1.1l0,0l21.4-34.4l0,0l0.9-1.5L56.8,136l1.1-1.8l0,0
				l16.8-27l1.2-2l0,0l8-12.9l0,0l1-1.7l7.5-12.1l-11.2,9.3l-1.3,1.1l0,0l-12.1,10l-1.5,1.2l-24.7,20.4l0,0l-1.4,1.2l0,0l-26.7,22
				l-1.1,0.9l-31.1,25.7l-1.1,0.9l-14.1,11.7l-0.6-0.8l14.2-11.7l1.2-1l0,0l31-25.6l1.3-1.1l0,0l26.5-21.9l1.8-1.5l24.4-20.1
				l1.8-1.5L79.4,88l1.6-1.3l0,0l11.3-9.3l0,0l1.8-1.5l0.2-0.2H94.9z"/>
		</g>
		<g>
			<polygon class="st1" points="94.9,75.7 94.9,76.3 94.9,76.5 90.9,231.7 89.9,231.7 90.1,224.7 90.1,223.6 91.2,182.6 91.2,181.3 
				92.1,146.8 92.1,146.8 92.1,145 93,113 93,111.5 93.4,95.4 93.5,93.8 93.8,79.9 90,93.2 89.5,94.8 84.9,110.3 84.5,111.8 
				75.6,142.3 75.1,144.1 65.3,177.8 64.9,179.1 53.4,218.2 53.1,219.4 51.9,223.4 51,223.1 52.2,219.1 52.5,218 63.9,178.8 
				63.9,178.8 64.3,177.5 64.3,177.5 74.1,143.9 74.1,143.9 74.8,141.7 74.8,141.7 83.6,111.5 84.2,109.5 84.2,109.5 88.5,94.5 
				88.5,94.5 89,92.8 93,79.5 93.7,76.9 94,75.9 94.1,75.7 94.2,75.7 			"/>
		</g>
		<g>
			<path class="st1" d="M90.8,224l-0.5,0.8c0,0-0.1-0.1-0.2-0.1c-2.3-1.3-19.8-10.9-37-5.3c-0.1,0-0.2,0-0.2,0.1l-0.3,0.1l-0.2-0.3
				c0,0-0.1-0.1-0.1-0.2c-1.6-2-15.8-18.8-35.7-16.5c-0.1,0-0.2,0-0.2,0l-0.4,0.1l-0.1-0.4c0,0,0-0.1,0-0.2
				c-0.7-2.5-8.5-28.8-35.4-31c-0.1,0-0.1,0-0.2,0l-0.6-0.1l0.2-0.6c0,0,0-0.1,0-0.2c0.5-2.2,5.1-27.6-26.6-48.5
				c-0.1,0-0.1-0.1-0.2-0.1l-0.3-0.2l0.1-0.3c0,0,0-0.1,0.1-0.3c0.7-3,6.3-31.1-5.3-46.4c-0.3-0.4-0.7-0.9-1-1.3h1.3
				c0.3,0.4,0.7,0.8,1,1.3c10.8,15.1,6.2,41.1,5.2,46c0,0.2-0.1,0.4-0.1,0.5c0.2,0.1,0.4,0.3,0.6,0.4c28.7,19.2,27.4,42.2,26.6,47.9
				c-0.1,0.3-0.1,0.6-0.1,0.8c0.2,0,0.4,0,0.6,0.1c24.9,2.6,33.4,25.5,35,30.7c0.1,0.3,0.1,0.5,0.2,0.7c0.2,0,0.4,0,0.6-0.1
				c18.8-1.7,32.5,12.9,35.4,16.4c0.2,0.2,0.3,0.3,0.4,0.5c0.2-0.1,0.4-0.1,0.6-0.2c16.5-5,33.1,3.4,36.7,5.4
				C90.6,223.9,90.8,224,90.8,224z"/>
		</g>
		<g>
			<path class="st1" d="M92,182l-0.7,0.7c0-0.1-0.1-0.1-0.2-0.1c-11.9-11.4-24.8-4.4-26.3-3.5c-0.1,0.1-0.1,0.1-0.2,0.1l-0.5,0.3
				l-0.2-0.5c0-0.1-0.1-0.1-0.1-0.2c-8.7-17-23.7-12.3-25.4-11.7l0,0c-0.1,0-0.1,0.1-0.1,0.1l-0.7,0.3v-0.9
				c-0.1-19.5-22.9-21.9-25.3-22c-0.1,0-0.2,0-0.2,0h-0.6l0.2-0.6v-0.1c7-23.6-16.7-33.9-18.8-34.8l0,0c-0.1,0-0.1,0-0.1-0.1
				l-0.6-0.2l0.4-0.5l0.1-0.1c10.3-14.7-0.2-28.7-4-33.1c-0.5-0.6-0.9-1-1.1-1.2h1.4c0.3,0.3,0.7,0.7,1,1.2l0,0
				c4.3,5,13.3,18.3,4.2,32.6c-0.1,0.2-0.3,0.4-0.4,0.7c0.2,0.1,0.4,0.2,0.6,0.3c5.1,2.4,24.2,12.8,18.9,34
				c-0.1,0.3-0.2,0.6-0.2,0.9c0.2,0,0.4,0,0.6,0.1c5,0.6,24,4,25.1,21.4c0,0.3,0,0.6,0,1c0.2,0,0.4-0.1,0.6-0.2
				c4.1-1.1,17-3.1,25,11.6c0.1,0.2,0.2,0.4,0.3,0.6c0.2-0.1,0.4-0.2,0.6-0.3c3.5-1.8,15.1-6.3,26,3.5C91.5,181.5,91.8,181.8,92,182
				z"/>
		</g>
		<g>
			<path class="st1" d="M93,146.5l-0.9,0.5c0,0,0-0.1-0.1-0.1c-2.3-4.2-5-6.4-8.1-6.8c-4.5-0.5-8.4,3.5-9,4.1c0,0.1-0.1,0.1-0.1,0.1
				l-0.7,0.8L74,144v-0.1c-0.7-5.1-2.4-8.4-5.2-9.6c-4.6-2-10.6,1.7-11.4,2.2c-0.1,0-0.1,0-0.1,0l-0.9,0.6l0.1-1.1v-0.1
				c0.6-5.3-0.5-9.2-3.2-11.7c-4.5-4.1-12.2-2.9-13.2-2.8c-0.1,0-0.1,0-0.1,0l-1,0.2l0.5-0.9v-0.1c2.6-5,3-9.5,1.3-13.2
				c-3.2-6.7-12.4-9.1-13.7-9.4l0,0C27,98,27,98,27,98l-0.9-0.2l0.6-0.6l0.1-0.1c3.6-3.8,5.3-7.7,5-11.6c-0.3-4.6-3.4-8.1-5.4-10
				l0,0c-0.4-0.4-0.8-0.7-1-0.9l0.1-0.2h1.2c0.4,0.3,0.8,0.7,1.2,1.1c2.1,2.1,4.7,5.5,5,9.9c0.3,3.7-1.1,7.4-4.2,11.1l0,0
				c-0.2,0.2-0.4,0.5-0.6,0.7c0.2,0.1,0.5,0.1,0.8,0.2c3.2,1,10.1,3.7,12.8,9.6c1.7,3.5,1.5,7.6-0.4,12.2c-0.1,0.4-0.3,0.8-0.5,1.1
				c0.2,0,0.5-0.1,0.8-0.1c2.9-0.3,8.6-0.3,12.5,3.2c2.6,2.4,3.8,5.9,3.7,10.6c0,0.3,0,0.7,0,1c0.2-0.1,0.5-0.3,0.9-0.5
				c2.4-1.3,6.9-3,10.7-1.3c2.7,1.2,4.6,4,5.5,8.4c0.1,0.4,0.1,0.7,0.2,1.1c0.2-0.2,0.4-0.4,0.6-0.6c1.7-1.5,4.9-3.6,8.5-3.2
				c3,0.3,5.7,2.3,8,5.9C92.5,145.5,92.7,146,93,146.5z"/>
		</g>
		<g>
			<path class="st1" d="M93.9,112.6l-0.8,0.6l-0.1-0.1c-1.2-1.6-2.5-2.5-4-2.6c-2.2-0.2-4,1.1-4.4,1.4c-0.1,0.1-0.1,0.1-0.1,0.1
				l-0.7,0.6l-0.1-0.9v-0.1c-0.3-2.5-1.2-4-2.5-4.7c-2.2-1-5.1,0.5-5.7,0.9l0,0c-0.1,0-0.1,0.1-0.1,0.1l-1,0.6l0.2-1.1v-0.1
				c0.6-2.9,0.2-4.9-1-6.1c-2.2-2.1-6.5-1.2-7.2-1c-0.1,0-0.1,0-0.1,0l-1.1,0.3l0.6-1v-0.1c1.7-3.1,2.1-5.6,1.1-7.5
				c-1.7-3.1-6.6-3.8-7.3-3.9l0,0h-0.1l-1-0.1l0.7-0.7l0.1-0.1l0,0c2.1-2.3,3-4.5,2.6-6.5c-0.4-2.2-2.3-3.6-3.4-4.3
				c-0.5-0.3-0.8-0.4-0.8-0.5l0.2-0.6l0,0h0.8c0.4,0.2,0.9,0.6,1.5,1c1.1,0.9,2.3,2.3,2.7,4.1c0.4,1.9-0.2,4-1.8,6.2
				c-0.2,0.2-0.3,0.4-0.5,0.6c0.3,0.1,0.7,0.1,1.1,0.2l0,0c2,0.5,4.8,1.6,6.2,4c1,1.8,0.9,4-0.1,6.5c-0.1,0.4-0.3,0.7-0.5,1.1
				c0.2,0,0.5-0.1,0.8-0.1c1.8-0.2,4.6-0.1,6.4,1.6c1.2,1.1,1.7,2.7,1.6,4.8c0,0.4-0.1,0.8-0.1,1.3c0.2-0.1,0.4-0.2,0.7-0.3
				c1.4-0.5,3.4-1,5.1-0.2c1.3,0.6,2.2,1.8,2.7,3.6c0.1,0.4,0.2,0.8,0.3,1.2c0.1-0.1,0.3-0.2,0.5-0.3c1-0.5,2.4-1.1,4.1-0.9
				c1.5,0.2,2.8,0.9,4,2.1C93.3,111.8,93.6,112.2,93.9,112.6z"/>
		</g>
		<g>
			<path class="st1" d="M94.4,95l-0.9,0.5c0,0,0-0.1-0.1-0.1c-0.6-1-1.2-1.6-1.9-1.7c-1-0.1-1.8,0.8-2.1,1.1l-0.1,0.1l-0.7,0.9
				l-0.2-1.1v-0.1c-0.2-1.1-0.6-1.9-1.2-2.2c-1-0.4-2.2,0.2-2.6,0.4c-0.1,0-0.1,0.1-0.1,0.1l-0.9,0.6l0.2-1.1v-0.1
				c0.2-1.4,0-2.3-0.6-2.9c-0.9-0.9-2.7-0.7-3.4-0.6l0,0h-0.1l-1.1,0.3l0.6-1c0,0,0,0,0-0.1c0.8-1.3,0.9-2.4,0.5-3.3
				c-0.7-1.6-3-2.1-3.6-2.2c-0.1,0-0.1,0-0.1,0l-1-0.2l0.7-0.7c0,0,0.1,0,0.1-0.1l0,0c1.1-1.1,1.6-2.2,1.5-3.2c-0.2-1-1-1.7-1.6-2
				l0,0c-0.2-0.2-0.4-0.2-0.4-0.2l0.3-0.7H76l0,0c0.3,0.2,0.8,0.5,1.2,1c0.5,0.5,0.9,1.1,1,1.8c0.2,0.9-0.1,1.8-0.7,2.8l0,0
				c-0.1,0.2-0.3,0.5-0.5,0.7c0.2,0.1,0.5,0.2,0.8,0.3l0,0c1,0.4,2.2,1.1,2.8,2.3c0.3,0.7,0.4,1.5,0.2,2.4c-0.1,0.3-0.2,0.7-0.3,1
				c0.2,0,0.4,0,0.7,0c0.9,0,2,0.2,2.7,0.9c0.5,0.5,0.8,1.1,0.9,2c0,0.3,0.1,0.6,0,1c0.2-0.1,0.4-0.1,0.6-0.2
				c0.7-0.2,1.4-0.2,2.2,0.1c0.6,0.3,1,0.7,1.3,1.4c0.1,0.2,0.2,0.5,0.3,0.8c0.2-0.1,0.4-0.3,0.6-0.4c0.5-0.3,1-0.5,1.7-0.4
				s1.3,0.4,1.9,1C93.8,94.1,94.1,94.5,94.4,95z"/>
		</g>
	</g>
</g>
</svg>
