<?xml version="1.0" encoding="utf-8"?>
<!-- Generator: Adobe Illustrator 19.0.0, SVG Export Plug-In . SVG Version: 6.00 Build 0)  -->
<svg version="1.1" xmlns="http://www.w3.org/2000/svg" xmlns:xlink="http://www.w3.org/1999/xlink" x="0px" y="0px"
	 viewBox="206 -116 1024 1024" style="enable-background:new 206 -116 1024 1024;" xml:space="preserve">
<style type="text/css">
	.st0{fill:#C77E13;}
	.st1{fill:#FFCA00;}
	.st2{fill:#F0B000;}
	.st3{fill-opacity:0.302;}
	.st4{display:none;fill:#FFCA00;}
</style>
<g id="Layer_1">
	<g transform="matrix( 1, 0, 0, 1, 0,0) ">
		<g>
			<g id="Layer6_0_FILL">
				<path class="st0" d="M1127.6,402.7c0-110.5-39.1-204.9-117.3-283.1C932.2,41.4,837.8,2.3,727.3,2.3S522.4,41.4,444.2,119.6
					C366.1,197.8,327,292.1,327,402.7s39.1,204.9,117.2,283C522.4,763.9,616.8,803,727.3,803s204.9-39.1,283-117.2
					C1088.5,607.5,1127.6,513.2,1127.6,402.7z"/>
			</g>
		</g>
	</g>
	<g transform="matrix( 1, 0, 0, 1, 0,0) ">
		<g>
			<g id="Layer5_0_FILL">
				<path class="st1" d="M1002,111.4l38.2-38.2C953.2-10,848.9-51.7,727.3-51.7C601.8-51.7,494.7-7.3,406,81.4
					c-88.7,88.7-133,195.8-133,321.3c0,121.6,41.6,225.9,124.9,312.9l38.2-38.2C363.4,600.9,327,509.3,327,402.7
					c0-110.5,39.1-204.9,117.2-283.1C522.4,41.4,616.8,2.3,727.3,2.3C834,2.3,925.5,38.7,1002,111.4z"/>
				<path class="st2" d="M1048.6,81.4c-2.7-2.7-5.5-5.4-8.3-8.1l-38.2,38.2c2.8,2.7,5.6,5.4,8.3,8.1
					c78.2,78.2,117.3,172.6,117.3,283.1c0,110.5-39.1,204.9-117.3,283C932.2,763.9,837.8,803,727.3,803s-204.9-39.1-283.1-117.2
					c-2.7-2.7-5.4-5.5-8.1-8.3l-38.2,38.2c2.7,2.8,5.4,5.6,8.1,8.3C494.7,812.6,601.8,857,727.3,857s232.6-44.4,321.3-133.1
					c88.7-88.7,133.1-195.8,133.1-321.2C1181.7,277.2,1137.3,170.1,1048.6,81.4z"/>
			</g>
		</g>
	</g>
	<g transform="matrix( 1, 0, 0, 1, 0,0) ">
		<g>
			<g id="Layer4_0_FILL">
				<path class="st3" d="M990.6,300l-19.3-34.4c-24.4-29.9-96-61.3-134.6-61.5h-31l-40,245.7L611.4,677.2l151.4,124.4h0.2
					c95.3-7.6,177.8-46.2,247.3-115.8c52.6-52.5,87.5-112.4,104.7-179.5L990.6,300z"/>
			</g>
		</g>
	</g>
	<g transform="matrix( 1, 0, 0, 1, 0,0) ">
		<g>
			<g id="Layer2_0_FILL">
				<path class="st1" d="M950.4,123.6c-3.1-5.1-7.7-10.4-13.8-15.8c-6-5.4-11.8-9.3-17.2-11.9c-5.4-2.5-9-2.8-10.6-1
					c-1.6,1.8-0.9,5.3,2.2,10.4c3.1,5.2,7.7,10.4,13.8,15.8c6.1,5.4,11.8,9.4,17.2,11.9l11.8,4.8c0.9,0.8,1.8,1.6,2.7,2.4v-5.2
					L950.4,123.6z"/>
			</g>
		</g>
	</g>
	<g transform="matrix( 0.114532470703125, -0.87054443359375, 0.87054443359375, 0.114532470703125, 463.85,860.3) ">
		<g transform="matrix( 1, 0, 0, 1, 0,0) ">
			<g>
				<g id="laurel_leaf_0_Layer0_0_FILL">
					<path class="st1" d="M161.8,240.3L161.8,240.3c-0.1,0.1-0.2,0.1-0.2,0.1c-0.3-0.1-0.6-0.2-0.8-0.4c-0.1,0-0.1-0.1-0.2-0.1
						c-1-0.6-1.8-1.6-2.4-2.9c-7.2-17.3-16.4-32-27.5-44.1c-11.1-12.1-14.6-8.3-10.5,11.4c4,19.4,17.5,32.7,40.3,40.1
						c0.1,0,0.2,0.1,0.3,0.1c0.2,0.1,0.5,0.2,0.8,0.2c0.1,0,0.2-0.1,0.2-0.1c0,0,0,0,0.1,0L161.8,240.3z"/>
					<path class="st2" d="M192.5,192.9c-3.9,4.3-7.6,8.9-11.1,13.9c-2.1,3-4.1,6.1-6,9.3c-3.4,5.7-6.4,11.8-9.3,18.2
						c-0.1,0.3-0.3,0.6-0.4,0.9c0,0.1-0.1,0.2-0.1,0.3c-0.2,0.5-0.4,1-0.7,1.6c-0.1,0.2-0.2,0.4-0.4,0.6c-0.2,0.3-0.4,0.6-0.6,0.9
						c-0.5,0.7-1.1,1.2-1.9,1.5c-0.1,0.1-0.3,0.2-0.4,0.2l0.1,4.4c0.2,0,0.3-0.1,0.4-0.1c0.6-0.2,1.2-0.4,1.8-0.6
						c0.4-0.1,0.8-0.2,1.1-0.3c0.2-0.1,0.5-0.2,0.7-0.2c0.2,0,0.3-0.1,0.4-0.2c0.1,0,0.1,0,0.1,0c13.7-5.1,23.6-12.5,29.9-22.3
						c1.4-2.3,2.7-4.7,3.8-7.2c1.2-2.9,2.2-6,2.9-9.3C207.1,184.7,203.6,180.9,192.5,192.9z"/>
				</g>
			</g>
		</g>
	</g>
	<g transform="matrix( 0.272216796875, -0.8347625732421875, 0.8347625732421875, 0.272216796875, 409.6,846.7) ">
		<g transform="matrix( 1, 0, 0, 1, 0,0) ">
			<g>
				<g id="laurel_leaf_0_Layer0_0_FILL_1_">
					<path class="st1" d="M198.5,207L198.5,207c-0.1,0.1-0.2,0.1-0.2,0.1c-0.3-0.1-0.6-0.2-0.8-0.4c-0.1,0-0.1-0.1-0.1-0.1
						c-1-0.6-1.8-1.6-2.4-2.8c-7.2-17.3-16.4-32-27.5-44.1c-11.1-12.1-14.6-8.3-10.4,11.4c4,19.4,17.5,32.7,40.2,40.1
						c0.1,0,0.2,0.1,0.4,0.1c0.2,0.1,0.5,0.2,0.8,0.2c0.1,0,0.2-0.1,0.2-0.1c0,0,0,0,0.1,0L198.5,207z"/>
					<path class="st2" d="M229.2,159.6c-3.9,4.3-7.6,8.9-11.1,13.9c-2.1,3-4.1,6.1-6,9.3c-3.4,5.7-6.4,11.8-9.2,18.2
						c-0.1,0.3-0.3,0.6-0.4,0.8c0,0.1-0.1,0.2-0.1,0.3c-0.2,0.5-0.4,1-0.6,1.6c-0.1,0.2-0.2,0.4-0.4,0.6c-0.2,0.3-0.4,0.6-0.6,0.9
						c-0.5,0.7-1.1,1.2-1.9,1.5c-0.1,0.1-0.3,0.2-0.4,0.2l0.1,4.4c0.2,0,0.3-0.1,0.4-0.2c0.6-0.2,1.2-0.4,1.8-0.6
						c0.4-0.1,0.8-0.2,1.1-0.4c0.2-0.1,0.5-0.2,0.7-0.2c0.2,0,0.3-0.1,0.4-0.1c0.1,0,0.1,0,0.1-0.1c13.7-5.1,23.6-12.5,29.9-22.3
						c1.4-2.3,2.7-4.7,3.8-7.2c1.2-2.9,2.2-6,2.8-9.3C243.8,151.4,240.3,147.6,229.2,159.6z"/>
				</g>
			</g>
		</g>
	</g>
	<g transform="matrix( 0.401336669921875, -0.78094482421875, 0.78094482421875, 0.401336669921875, 361.3,826.7) ">
		<g transform="matrix( 1, 0, 0, 1, 0,0) ">
			<g>
				<g id="laurel_leaf_0_Layer0_0_FILL_2_">
					<path class="st1" d="M224.9,173.2L224.9,173.2c-0.1,0.1-0.2,0.1-0.2,0.1c-0.3-0.1-0.6-0.2-0.9-0.4c-0.1,0-0.1-0.1-0.1-0.1
						c-1-0.6-1.8-1.6-2.4-2.8c-7.2-17.3-16.4-32-27.5-44.1c-11.1-12.1-14.6-8.3-10.4,11.4c4,19.4,17.5,32.7,40.2,40.1
						c0.1,0,0.2,0.1,0.3,0.1c0.2,0.1,0.5,0.2,0.8,0.2c0.1,0,0.2-0.1,0.2-0.1c0,0,0,0,0.1,0L224.9,173.2z"/>
					<path class="st2" d="M255.6,125.8c-3.9,4.3-7.6,8.9-11.1,13.8c-2.1,3-4.1,6.1-6,9.3c-3.4,5.7-6.4,11.8-9.2,18.2
						c-0.1,0.3-0.3,0.6-0.4,0.8c0,0.1-0.1,0.2-0.1,0.3c-0.2,0.5-0.4,1-0.7,1.6c-0.1,0.2-0.2,0.4-0.3,0.6c-0.2,0.3-0.4,0.6-0.6,0.9
						c-0.5,0.7-1.1,1.2-1.8,1.5c-0.1,0.1-0.3,0.2-0.4,0.2l0.1,4.4c0.2,0,0.3-0.1,0.4-0.1c0.6-0.2,1.2-0.4,1.8-0.6
						c0.4-0.1,0.8-0.2,1.1-0.3c0.2-0.1,0.5-0.2,0.7-0.2c0.2,0,0.3-0.1,0.4-0.2c0.1,0,0.1,0,0.1-0.1c13.7-5.1,23.6-12.5,29.9-22.3
						c1.4-2.3,2.7-4.7,3.8-7.2c1.2-2.9,2.2-6,2.9-9.3C270.2,117.6,266.7,113.8,255.6,125.8z"/>
				</g>
			</g>
		</g>
	</g>
	<g transform="matrix( 0.5330047607421875, -0.6977386474609375, 0.6977386474609375, 0.5330047607421875, 323.1,803.1) ">
		<g transform="matrix( 1, 0, 0, 1, 0,0) ">
			<g>
				<g id="laurel_leaf_0_Layer0_0_FILL_3_">
					<path class="st1" d="M247.6,131.1L247.6,131.1c-0.1,0.1-0.2,0.1-0.2,0.1c-0.3-0.1-0.6-0.2-0.9-0.4c-0.1,0-0.1-0.1-0.1-0.1
						c-1-0.6-1.8-1.6-2.4-2.9c-7.2-17.3-16.4-32-27.5-44.1s-14.6-8.3-10.4,11.4c4,19.4,17.5,32.7,40.2,40.1c0.1,0,0.2,0.1,0.4,0.1
						c0.2,0.1,0.5,0.2,0.8,0.2c0.1,0,0.2-0.1,0.2-0.1c0,0,0,0,0,0L247.6,131.1z"/>
					<path class="st2" d="M278.3,83.8c-3.9,4.3-7.6,8.9-11.1,13.8c-2.1,3-4.1,6.1-6,9.3c-3.4,5.7-6.4,11.8-9.2,18.2
						c-0.1,0.3-0.3,0.6-0.4,0.8c0,0.1-0.1,0.2-0.1,0.3c-0.2,0.5-0.4,1-0.6,1.5c-0.1,0.2-0.2,0.4-0.4,0.7c-0.2,0.3-0.4,0.6-0.6,0.9
						c-0.5,0.7-1.1,1.2-1.9,1.5c-0.1,0.1-0.3,0.2-0.4,0.2l0.1,4.4c0.2,0,0.3-0.1,0.5-0.1c0.6-0.2,1.2-0.4,1.8-0.6
						c0.4-0.1,0.8-0.2,1.1-0.3c0.2-0.1,0.5-0.2,0.7-0.2c0.2,0,0.3-0.1,0.4-0.2c0.1,0,0.1,0,0.1,0c13.7-5.1,23.6-12.5,29.9-22.3
						c1.4-2.3,2.7-4.7,3.8-7.2c1.2-2.9,2.2-6,2.8-9.3C292.9,75.5,289.4,71.7,278.3,83.8z"/>
				</g>
			</g>
		</g>
	</g>
	<g transform="matrix( 0.5863037109375, -0.6535491943359375, 0.6535491943359375, 0.5863037109375, 287.5,773.4) ">
		<g transform="matrix( 1, 0, 0, 1, 0,0) ">
			<g>
				<g id="laurel_leaf_0_Layer0_0_FILL_4_">
					<path class="st1" d="M255.2,111.3L255.2,111.3c-0.1,0.1-0.2,0.1-0.2,0.1c-0.3-0.1-0.6-0.2-0.9-0.4c-0.1,0-0.1-0.1-0.1-0.1
						c-1-0.6-1.8-1.6-2.4-2.8c-7.2-17.3-16.4-32-27.5-44.1s-14.6-8.3-10.4,11.4c4,19.4,17.5,32.7,40.3,40.1c0.1,0,0.2,0.1,0.4,0.1
						c0.2,0.1,0.5,0.2,0.8,0.2c0.1,0,0.2-0.1,0.2-0.1c0,0,0,0,0.1,0L255.2,111.3z"/>
					<path class="st2" d="M285.9,64c-3.9,4.3-7.6,8.9-11.1,13.9c-2.1,3-4.1,6.1-6,9.3c-3.4,5.7-6.4,11.8-9.2,18.3
						c-0.1,0.3-0.3,0.6-0.4,0.8c0,0.1-0.1,0.2-0.1,0.3c-0.2,0.5-0.4,1-0.6,1.6c-0.1,0.2-0.2,0.4-0.4,0.7c-0.2,0.3-0.4,0.6-0.6,0.9
						c-0.5,0.7-1.1,1.2-1.8,1.5c-0.1,0.1-0.3,0.2-0.4,0.2l0.1,4.4c0.2,0,0.3-0.1,0.4-0.2c0.6-0.2,1.2-0.4,1.8-0.6
						c0.4-0.1,0.8-0.2,1.1-0.3c0.2-0.1,0.5-0.2,0.7-0.3c0.2,0,0.3-0.1,0.4-0.2c0.1,0,0.1,0,0.1,0c13.7-5.1,23.6-12.5,29.9-22.3
						c1.4-2.3,2.7-4.7,3.7-7.2c1.2-2.9,2.2-6,2.9-9.3C300.5,55.7,297,51.9,285.9,64z"/>
				</g>
			</g>
		</g>
	</g>
	<g transform="matrix( 0.655487060546875, -0.5841522216796875, 0.5841522216796875, 0.655487060546875, 256.3,739.75) ">
		<g transform="matrix( 1, 0, 0, 1, 0,0) ">
			<g>
				<g id="laurel_leaf_0_Layer0_0_FILL_5_">
					<path class="st1" d="M263.3,82.4L263.3,82.4c-0.1,0.1-0.2,0.1-0.2,0.1c-0.3-0.1-0.6-0.2-0.9-0.4c-0.1,0-0.1-0.1-0.1-0.1
						c-1-0.6-1.8-1.6-2.4-2.9c-7.2-17.3-16.4-32-27.5-44.1c-11.1-12.1-14.6-8.3-10.4,11.4c4,19.4,17.5,32.7,40.3,40.1
						c0.1,0,0.2,0.1,0.4,0.1c0.2,0.1,0.5,0.2,0.8,0.2c0.1,0,0.2-0.1,0.2-0.1c0,0,0,0,0,0L263.3,82.4z"/>
					<path class="st2" d="M294,35c-3.9,4.3-7.6,8.9-11.1,13.9c-2.1,3-4.1,6.1-6,9.3c-3.4,5.7-6.4,11.8-9.2,18.3
						c-0.1,0.3-0.3,0.6-0.4,0.8c0,0.1-0.1,0.2-0.1,0.3c-0.2,0.5-0.4,1-0.6,1.5c-0.1,0.2-0.2,0.4-0.4,0.7c-0.2,0.3-0.4,0.6-0.6,0.9
						c-0.5,0.7-1.1,1.2-1.8,1.5c-0.1,0.1-0.3,0.2-0.4,0.2l0.1,4.4c0.2,0,0.3-0.1,0.5-0.2c0.6-0.2,1.2-0.4,1.8-0.6
						c0.4-0.1,0.8-0.2,1.1-0.3c0.2-0.1,0.5-0.2,0.7-0.2c0.2,0,0.3-0.1,0.4-0.2c0.1,0,0.1,0,0.1-0.1c13.7-5.1,23.6-12.5,29.9-22.3
						c1.4-2.3,2.7-4.7,3.8-7.2c1.2-2.9,2.2-6,2.9-9.3C308.5,26.7,305.1,22.9,294,35z"/>
				</g>
			</g>
		</g>
	</g>
	<g transform="matrix( 0.7303466796875, -0.4873046875, 0.4873046875, 0.7303466796875, 227.7,702.85) ">
		<g transform="matrix( 1, 0, 0, 1, 0,0) ">
			<g>
				<g id="laurel_leaf_0_Layer0_0_FILL_6_">
					<path class="st1" d="M268.7,45.2L268.7,45.2c-0.1,0.1-0.2,0.1-0.2,0.1c-0.3-0.1-0.6-0.2-0.9-0.4c-0.1,0-0.1-0.1-0.1-0.1
						c-1-0.6-1.8-1.6-2.4-2.9c-7.2-17.3-16.4-32-27.5-44.1S223-10.4,227.1,9.3c4,19.4,17.5,32.7,40.2,40.1c0.1,0,0.2,0.1,0.4,0.1
						c0.2,0.1,0.5,0.2,0.8,0.2c0.1,0,0.2-0.1,0.2-0.1c0,0,0,0,0.1,0L268.7,45.2z"/>
					<path class="st2" d="M299.4-2.1c-3.9,4.3-7.6,8.9-11.1,13.8c-2.1,3-4.1,6.1-6,9.3c-3.4,5.7-6.4,11.8-9.2,18.2
						c-0.1,0.3-0.3,0.6-0.4,0.8c0,0.1-0.1,0.2-0.1,0.3c-0.2,0.5-0.4,1-0.6,1.5c-0.1,0.2-0.2,0.4-0.4,0.6c-0.2,0.3-0.4,0.6-0.6,0.9
						c-0.5,0.7-1.1,1.2-1.9,1.5c-0.1,0.1-0.3,0.2-0.4,0.2l0.1,4.4c0.2,0,0.3-0.1,0.4-0.2c0.6-0.2,1.2-0.4,1.8-0.6
						c0.4-0.1,0.8-0.2,1.1-0.3c0.2-0.1,0.5-0.2,0.7-0.2c0.2,0,0.3-0.1,0.4-0.2c0.1,0,0.1,0,0.1,0C287,43,297,35.6,303.2,25.8
						c1.4-2.3,2.7-4.7,3.8-7.2c1.2-2.9,2.2-6,2.8-9.3C314-10.4,310.5-14.2,299.4-2.1z"/>
				</g>
			</g>
		</g>
	</g>
	<g transform="matrix( 0.79888916015625, -0.36419677734375, 0.36419677734375, 0.79888916015625, 204.5,659.65) ">
		<g transform="matrix( 1, 0, 0, 1, 0,0) ">
			<g>
				<g id="laurel_leaf_0_Layer0_0_FILL_7_">
					<path class="st1" d="M268.5,2L268.5,2c-0.1,0.1-0.2,0.1-0.2,0.1c-0.3-0.1-0.6-0.2-0.8-0.4c-0.1,0-0.1-0.1-0.2-0.1
						c-1-0.6-1.8-1.6-2.4-2.9c-7.2-17.3-16.4-32-27.5-44.1c-11.1-12.1-14.6-8.3-10.4,11.4c4,19.4,17.5,32.7,40.2,40.1
						c0.1,0,0.2,0.1,0.3,0.1c0.2,0.1,0.5,0.2,0.8,0.3c0.1,0,0.2-0.1,0.2-0.1c0,0,0,0,0.1,0L268.5,2z"/>
					<path class="st2" d="M299.2-45.3c-3.9,4.3-7.6,8.9-11.1,13.8c-2.1,3-4.1,6.1-6,9.3c-3.4,5.7-6.4,11.8-9.2,18.2
						c-0.1,0.3-0.3,0.6-0.4,0.8c0,0.1-0.1,0.2-0.1,0.3c-0.2,0.5-0.4,1-0.6,1.5c-0.1,0.2-0.2,0.4-0.4,0.6c-0.2,0.3-0.4,0.6-0.6,0.9
						c-0.5,0.7-1.1,1.2-1.9,1.5c-0.1,0.1-0.3,0.2-0.4,0.2l0.1,4.4c0.2,0,0.3-0.1,0.4-0.1c0.6-0.2,1.2-0.4,1.8-0.6
						c0.4-0.1,0.8-0.2,1.1-0.3c0.2-0.1,0.5-0.2,0.7-0.2c0.2,0,0.3-0.1,0.4-0.2c0.1,0,0.1,0,0.1,0c13.7-5.1,23.6-12.5,29.9-22.3
						c1.4-2.3,2.7-4.7,3.8-7.2c1.2-2.9,2.2-6,2.9-9.3C313.8-53.6,310.3-57.4,299.2-45.3z"/>
				</g>
			</g>
		</g>
	</g>
	<g transform="matrix( 0.848907470703125, -0.22406005859375, 0.22406005859375, 0.848907470703125, 187.65,613.9) ">
		<g transform="matrix( 1, 0, 0, 1, 0,0) ">
			<g>
				<g id="laurel_leaf_0_Layer0_0_FILL_8_">
					<path class="st1" d="M260.8-43L260.8-43c-0.1,0.1-0.2,0.1-0.2,0.1c-0.3-0.1-0.6-0.2-0.9-0.4c-0.1,0-0.1-0.1-0.1-0.1
						c-1-0.6-1.8-1.6-2.4-2.9c-7.2-17.3-16.4-32-27.5-44.1s-14.6-8.3-10.5,11.4c4,19.4,17.5,32.7,40.3,40.1c0.1,0,0.2,0.1,0.4,0.1
						c0.2,0.1,0.5,0.2,0.8,0.2c0.1,0,0.2-0.1,0.2-0.1c0,0,0,0,0,0L260.8-43z"/>
					<path class="st2" d="M291.5-90.3c-3.9,4.3-7.6,8.9-11.1,13.9c-2.1,3-4.1,6.1-6,9.3c-3.4,5.7-6.4,11.8-9.2,18.3
						c-0.1,0.3-0.3,0.6-0.4,0.8c0,0.1-0.1,0.2-0.1,0.3c-0.2,0.5-0.4,1-0.6,1.5c-0.1,0.2-0.2,0.4-0.4,0.7c-0.2,0.3-0.4,0.6-0.6,0.9
						c-0.5,0.7-1.1,1.2-1.9,1.5c-0.1,0.1-0.3,0.2-0.4,0.2l0.1,4.4c0.2,0,0.3-0.1,0.5-0.2c0.6-0.2,1.2-0.4,1.8-0.6
						c0.4-0.1,0.8-0.2,1.1-0.3c0.2-0.1,0.5-0.2,0.7-0.2c0.2,0,0.3-0.1,0.4-0.2c0.1,0,0.1,0,0.1,0c13.7-5.1,23.6-12.5,29.9-22.3
						c1.4-2.3,2.7-4.7,3.8-7.2c1.2-2.9,2.2-6,2.9-9.3C306.1-98.6,302.6-102.4,291.5-90.3z"/>
				</g>
			</g>
		</g>
	</g>
	<g transform="matrix( 0.867828369140625, -0.1335906982421875, 0.1335906982421875, 0.867828369140625, 177.8,570.55) ">
		<g transform="matrix( 1, 0, 0, 1, 0,0) ">
			<g>
				<g id="laurel_leaf_0_Layer0_0_FILL_9_">
					<path class="st1" d="M252.2-70L252.2-70c-0.1,0.1-0.2,0.1-0.2,0.1c-0.3-0.1-0.6-0.2-0.9-0.4c-0.1,0-0.1-0.1-0.1-0.1
						c-1-0.6-1.8-1.6-2.4-2.8c-7.2-17.3-16.4-32-27.5-44.1c-11.1-12.1-14.6-8.3-10.5,11.4c4,19.4,17.5,32.7,40.2,40.1
						c0.1,0,0.2,0.1,0.4,0.1c0.2,0.1,0.5,0.2,0.8,0.2c0.1,0,0.2-0.1,0.2-0.1c0,0,0,0,0,0L252.2-70z"/>
					<path class="st2" d="M282.9-117.3c-3.9,4.3-7.6,8.9-11.1,13.9c-2.1,3-4.1,6.1-6,9.3c-3.4,5.7-6.4,11.8-9.2,18.3
						c-0.1,0.3-0.3,0.6-0.4,0.8c0,0.1-0.1,0.2-0.1,0.3c-0.2,0.5-0.4,1-0.7,1.5c-0.1,0.2-0.2,0.4-0.3,0.7c-0.2,0.3-0.4,0.6-0.6,0.9
						c-0.5,0.7-1.1,1.2-1.9,1.5c-0.1,0.1-0.3,0.2-0.4,0.2l0.1,4.4c0.2,0,0.3-0.1,0.5-0.2c0.6-0.2,1.2-0.4,1.8-0.6
						c0.4-0.1,0.8-0.2,1.1-0.3c0.2-0.1,0.5-0.2,0.7-0.2c0.2,0,0.3-0.1,0.4-0.2c0.1,0,0.1,0,0.1,0c13.7-5.1,23.6-12.5,29.9-22.3
						c1.4-2.3,2.7-4.7,3.8-7.2c1.2-2.9,2.2-6,2.9-9.3C297.5-125.6,294-129.4,282.9-117.3z"/>
				</g>
			</g>
		</g>
	</g>
	<g transform="matrix( 0.87774658203125, 0.0218505859375, -0.021820068359375, 0.87774658203125, 174.4,525.75) ">
		<g transform="matrix( 1, 0, 0, 1, 0,0) ">
			<g>
				<g id="laurel_leaf_0_Layer0_0_FILL_10_">
					<path class="st1" d="M231.5-113L231.5-113c-0.1,0.1-0.2,0.1-0.2,0.1c-0.3-0.1-0.6-0.2-0.9-0.4c-0.1,0-0.1-0.1-0.1-0.1
						c-1-0.6-1.8-1.6-2.4-2.8c-7.2-17.3-16.4-32-27.5-44.1c-11.1-12.1-14.6-8.3-10.4,11.4c4,19.4,17.5,32.7,40.2,40.1
						c0.1,0,0.2,0.1,0.4,0.1c0.2,0.1,0.5,0.2,0.8,0.2c0.1,0,0.2-0.1,0.2-0.1c0,0,0,0,0,0L231.5-113z"/>
					<path class="st2" d="M262.2-160.4c-3.9,4.3-7.6,8.9-11.1,13.9c-2.1,3-4.1,6.1-6,9.3c-3.4,5.7-6.4,11.8-9.2,18.2
						c-0.1,0.3-0.3,0.6-0.4,0.8c0,0.1-0.1,0.2-0.1,0.3c-0.2,0.5-0.4,1-0.6,1.6c-0.1,0.2-0.2,0.4-0.4,0.7c-0.2,0.3-0.4,0.6-0.6,0.9
						c-0.5,0.7-1.1,1.2-1.9,1.5c-0.1,0.1-0.3,0.2-0.4,0.2l0.1,4.4c0.2,0,0.3-0.1,0.5-0.1c0.6-0.2,1.2-0.4,1.8-0.6
						c0.4-0.1,0.8-0.2,1.1-0.3c0.2-0.1,0.5-0.2,0.7-0.2c0.2,0,0.3-0.1,0.4-0.2c0.1,0,0.1,0,0.1,0c13.7-5.1,23.6-12.5,29.9-22.3
						c1.4-2.3,2.7-4.7,3.8-7.2c1.2-2.9,2.2-6,2.9-9.3C276.7-168.6,273.3-172.4,262.2-160.4z"/>
				</g>
			</g>
		</g>
	</g>
	<g transform="matrix( 0.87322998046875, 0.0909423828125, -0.0909271240234375, 0.87322998046875, 177.55,479.5) ">
		<g transform="matrix( 1, 0, 0, 1, 0,0) ">
			<g>
				<g id="laurel_leaf_0_Layer0_0_FILL_11_">
					<path class="st1" d="M219.9-130.8L219.9-130.8c-0.1,0.1-0.2,0.1-0.2,0.1c-0.3-0.1-0.6-0.2-0.9-0.4c-0.1,0-0.1-0.1-0.1-0.1
						c-1-0.6-1.8-1.6-2.4-2.9c-7.2-17.3-16.4-32-27.5-44.1c-11.1-12.1-14.6-8.3-10.5,11.4c4,19.4,17.5,32.7,40.2,40.1
						c0.1,0,0.2,0.1,0.4,0.1c0.2,0.1,0.5,0.2,0.8,0.2c0.1,0,0.2-0.1,0.2-0.1c0,0,0,0,0,0L219.9-130.8z"/>
					<path class="st2" d="M250.6-178.2c-3.9,4.3-7.6,8.9-11.1,13.8c-2.1,3-4.1,6.1-6,9.3c-3.4,5.7-6.4,11.8-9.3,18.2
						c-0.1,0.3-0.3,0.6-0.4,0.9c0,0.1-0.1,0.2-0.1,0.3c-0.2,0.5-0.4,1-0.6,1.6c-0.1,0.2-0.2,0.4-0.4,0.6c-0.2,0.3-0.4,0.6-0.6,0.9
						c-0.5,0.7-1.1,1.2-1.9,1.5c-0.1,0.1-0.3,0.2-0.4,0.2l0.1,4.4c0.2,0,0.3-0.1,0.5-0.2c0.6-0.2,1.2-0.4,1.8-0.6
						c0.4-0.1,0.8-0.2,1.1-0.3c0.2-0.1,0.5-0.2,0.7-0.2c0.2,0,0.3-0.1,0.4-0.2c0.1,0,0.1,0,0.1-0.1c13.7-5.1,23.6-12.5,29.9-22.3
						c1.4-2.3,2.7-4.7,3.7-7.2c1.2-2.9,2.2-6,2.9-9.3C265.2-186.4,261.7-190.2,250.6-178.2z"/>
				</g>
			</g>
		</g>
	</g>
	<g transform="matrix( 0.857666015625, 0.1876678466796875, -0.187652587890625, 0.857696533203125, 184.5,433.5) ">
		<g transform="matrix( 1, 0, 0, 1, 0,0) ">
			<g>
				<g id="laurel_leaf_0_Layer0_0_FILL_12_">
					<path class="st1" d="M201.2-154.3L201.2-154.3c-0.1,0.1-0.2,0.1-0.2,0.1c-0.3-0.1-0.6-0.2-0.9-0.4c-0.1,0-0.1-0.1-0.1-0.1
						c-1-0.6-1.8-1.6-2.4-2.9c-7.2-17.3-16.4-32-27.5-44.1c-11.1-12.1-14.6-8.3-10.4,11.4c4,19.4,17.5,32.7,40.2,40.1
						c0.1,0,0.2,0.1,0.4,0.1c0.2,0.1,0.5,0.2,0.8,0.2c0.1,0,0.2-0.1,0.2-0.1c0,0,0,0,0.1,0L201.2-154.3z"/>
					<path class="st2" d="M231.9-201.7c-3.9,4.3-7.6,8.9-11.1,13.8c-2.1,3-4.1,6.1-6,9.3c-3.4,5.7-6.4,11.8-9.2,18.2
						c-0.1,0.3-0.3,0.6-0.4,0.9c0,0.1-0.1,0.2-0.1,0.3c-0.2,0.5-0.4,1-0.7,1.5c-0.1,0.2-0.2,0.4-0.3,0.7c-0.2,0.3-0.4,0.6-0.6,0.9
						c-0.5,0.7-1.1,1.2-1.9,1.5c-0.1,0.1-0.3,0.2-0.4,0.2l0.1,4.4c0.2,0,0.3-0.1,0.4-0.1c0.6-0.2,1.2-0.4,1.8-0.6
						c0.4-0.1,0.8-0.2,1.1-0.3c0.2-0.1,0.5-0.2,0.7-0.2c0.2,0,0.3-0.1,0.4-0.2c0.1,0,0.1,0,0.1,0c13.7-5.1,23.6-12.5,29.9-22.3
						c1.4-2.3,2.7-4.7,3.8-7.2c1.2-2.9,2.2-6,2.8-9.3C246.5-209.9,243-213.7,231.9-201.7z"/>
				</g>
			</g>
		</g>
	</g>
	<g transform="matrix( 0.8232421875, 0.305145263671875, -0.305145263671875, 0.8232421875, 199.55,389.7) ">
		<g transform="matrix( 1, 0, 0, 1, 0,0) ">
			<g>
				<g id="laurel_leaf_0_Layer0_0_FILL_13_">
					<path class="st1" d="M174.3-180.5L174.3-180.5c-0.1,0.1-0.2,0.1-0.2,0.1c-0.3-0.1-0.6-0.2-0.8-0.4c-0.1,0-0.1-0.1-0.2-0.1
						c-1-0.6-1.8-1.6-2.4-2.9c-7.2-17.3-16.4-32-27.5-44.1c-11.1-12.1-14.6-8.3-10.5,11.4c4,19.4,17.5,32.7,40.3,40.1
						c0.1,0,0.2,0.1,0.3,0.1c0.2,0.1,0.5,0.2,0.8,0.2c0.1,0,0.2-0.1,0.2-0.1c0,0,0,0,0.1,0L174.3-180.5z"/>
					<path class="st2" d="M205-227.9c-3.9,4.3-7.6,8.9-11.1,13.9c-2.1,3-4.1,6.1-6,9.3c-3.4,5.7-6.4,11.8-9.3,18.2
						c-0.1,0.3-0.3,0.6-0.4,0.9c0,0.1-0.1,0.2-0.1,0.3c-0.2,0.5-0.4,1-0.6,1.6c-0.1,0.2-0.2,0.4-0.4,0.6c-0.2,0.3-0.4,0.6-0.6,0.9
						c-0.5,0.7-1.1,1.2-1.9,1.5c-0.1,0.1-0.3,0.2-0.4,0.2l0.1,4.4c0.2,0,0.3-0.1,0.4-0.1c0.6-0.2,1.2-0.4,1.8-0.6
						c0.4-0.1,0.8-0.2,1.1-0.3c0.2-0.1,0.5-0.2,0.7-0.2c0.2,0,0.3-0.1,0.4-0.2c0.1,0,0.1,0,0.1-0.1c13.7-5.1,23.6-12.5,29.9-22.3
						c1.4-2.3,2.7-4.7,3.8-7.2c1.2-2.9,2.2-6,2.9-9.3C219.6-236.1,216.1-239.9,205-227.9z"/>
				</g>
			</g>
		</g>
	</g>
	<g transform="matrix( 0.7638397216796875, 0.432891845703125, -0.432891845703125, 0.7638397216796875, 220.95,345.6) ">
		<g transform="matrix( 1, 0, 0, 1, 0,0) ">
			<g>
				<g id="laurel_leaf_0_Layer0_0_FILL_14_">
					<path class="st1" d="M139.2-205.7L139.2-205.7c-0.1,0.1-0.2,0.1-0.2,0.1c-0.3-0.1-0.6-0.2-0.8-0.4c-0.1,0-0.1-0.1-0.2-0.1
						c-1-0.6-1.8-1.6-2.4-2.9c-7.2-17.3-16.4-32-27.5-44.1c-11.1-12.1-14.6-8.3-10.4,11.4c4,19.4,17.5,32.7,40.2,40.1
						c0.1,0,0.2,0.1,0.3,0.1c0.2,0.1,0.5,0.2,0.8,0.2c0.1,0,0.2-0.1,0.2-0.1c0,0,0,0,0.1,0L139.2-205.7z"/>
					<path class="st2" d="M169.9-253.1c-3.9,4.3-7.6,8.9-11.1,13.8c-2.1,3-4.1,6.1-6,9.3c-3.4,5.7-6.4,11.8-9.2,18.2
						c-0.1,0.3-0.3,0.6-0.4,0.9c0,0.1-0.1,0.2-0.1,0.3c-0.2,0.5-0.4,1-0.6,1.6c-0.1,0.2-0.2,0.4-0.4,0.6c-0.2,0.3-0.4,0.6-0.6,0.9
						c-0.5,0.7-1.1,1.2-1.9,1.5c-0.1,0.1-0.3,0.2-0.4,0.2l0.1,4.4c0.2,0,0.3-0.1,0.4-0.1c0.6-0.2,1.2-0.4,1.8-0.6
						c0.4-0.1,0.8-0.2,1.1-0.3c0.2-0.1,0.5-0.2,0.7-0.2c0.2,0,0.3-0.1,0.4-0.2c0.1,0,0.1,0,0.1,0c13.7-5.1,23.6-12.5,29.9-22.3
						c1.4-2.3,2.7-4.7,3.7-7.2c1.2-2.9,2.2-6,2.9-9.3C184.5-261.3,181-265.1,169.9-253.1z"/>
				</g>
			</g>
		</g>
	</g>
	<g transform="matrix( 0.67974853515625, 0.5556640625, -0.5556640625, 0.67974853515625, 248.05,305.05) ">
		<g transform="matrix( 1, 0, 0, 1, 0,0) ">
			<g>
				<g id="laurel_leaf_0_Layer0_0_FILL_15_">
					<path class="st1" d="M98.2-225.9L98.2-225.9c-0.1,0.1-0.2,0.1-0.2,0.1c-0.3-0.1-0.6-0.2-0.8-0.4c-0.1,0-0.1-0.1-0.2-0.1
						c-1-0.6-1.8-1.6-2.4-2.9c-7.2-17.3-16.4-32-27.5-44.1s-14.6-8.3-10.4,11.4c4,19.4,17.5,32.7,40.2,40.1c0.1,0,0.2,0.1,0.3,0.1
						c0.2,0.1,0.5,0.2,0.8,0.2c0.1,0,0.2-0.1,0.2-0.1c0,0,0,0,0,0L98.2-225.9z"/>
					<path class="st2" d="M128.9-273.2c-3.9,4.3-7.6,8.9-11.1,13.8c-2.1,3-4.1,6.1-6,9.3c-3.4,5.7-6.4,11.8-9.2,18.2
						c-0.1,0.3-0.3,0.6-0.4,0.9c0,0.1-0.1,0.2-0.1,0.3c-0.2,0.5-0.4,1-0.7,1.5c-0.1,0.2-0.2,0.4-0.3,0.7c-0.2,0.3-0.4,0.6-0.6,0.9
						c-0.5,0.7-1.1,1.2-1.8,1.5c-0.1,0.1-0.3,0.2-0.4,0.2l0.1,4.4c0.2,0,0.3-0.1,0.5-0.2c0.6-0.2,1.2-0.4,1.8-0.6
						c0.4-0.1,0.8-0.2,1.1-0.4c0.2-0.1,0.5-0.2,0.7-0.2c0.2,0,0.3-0.1,0.4-0.1c0.1,0,0.1,0,0.1-0.1c13.7-5.1,23.6-12.5,29.9-22.3
						c1.4-2.3,2.7-4.7,3.8-7.2c1.2-2.9,2.2-6,2.9-9.3C143.5-281.5,140-285.3,128.9-273.2z"/>
				</g>
			</g>
		</g>
	</g>
	<g transform="matrix( 0.5845794677734375, 0.655059814453125, -0.655059814453125, 0.5845794677734375, 286.6,263.45) ">
		<g transform="matrix( 1, 0, 0, 1, 0,0) ">
			<g>
				<g id="laurel_leaf_0_Layer0_0_FILL_16_">
					<path class="st1" d="M57.8-238.1L57.8-238.1c-0.1,0.1-0.2,0.1-0.2,0.1c-0.3-0.1-0.6-0.2-0.8-0.4c-0.1,0-0.1-0.1-0.2-0.1
						c-1-0.6-1.8-1.6-2.4-2.9c-7.2-17.3-16.4-32-27.5-44.1c-11.1-12.1-14.6-8.3-10.4,11.4c4,19.4,17.5,32.7,40.3,40.1
						c0.1,0,0.2,0.1,0.4,0.1c0.2,0.1,0.5,0.2,0.8,0.2c0.1,0,0.2-0.1,0.2-0.1c0,0,0,0,0,0L57.8-238.1z"/>
					<path class="st2" d="M88.5-285.5c-3.9,4.3-7.6,8.9-11.1,13.9c-2.1,3-4.1,6.1-6,9.3c-3.4,5.7-6.4,11.8-9.2,18.3
						c-0.1,0.3-0.3,0.6-0.4,0.8c0,0.1-0.1,0.2-0.1,0.3c-0.2,0.5-0.4,1-0.6,1.6c-0.1,0.2-0.2,0.4-0.4,0.6c-0.2,0.3-0.4,0.6-0.6,0.9
						c-0.5,0.7-1.1,1.2-1.8,1.5c-0.1,0.1-0.3,0.2-0.4,0.2l0.1,4.4c0.2,0,0.3-0.1,0.5-0.2c0.6-0.2,1.2-0.4,1.8-0.6
						c0.4-0.1,0.8-0.2,1.1-0.4c0.2-0.1,0.5-0.2,0.7-0.2c0.2,0,0.3-0.1,0.4-0.2c0.1,0,0.1,0,0.1,0c13.7-5.1,23.6-12.5,29.9-22.3
						c1.4-2.3,2.7-4.7,3.8-7.2c1.2-2.9,2.2-6,2.8-9.3C103.1-293.7,99.6-297.5,88.5-285.5z"/>
				</g>
			</g>
		</g>
	</g>
	<g transform="matrix( 0.137725830078125, 0.8671722412109375, -0.8671722412109375, 0.137725830078125, 582.25,859.7) ">
		<g transform="matrix( 1, 0, 0, 1, 0,0) ">
			<g>
				<g id="laurel_leaf_0_Layer0_0_FILL_17_">
					<path class="st1" d="M-93.5-227.5L-93.5-227.5c-0.1,0.1-0.2,0.1-0.2,0.1c-0.3-0.1-0.6-0.2-0.9-0.4c-0.1,0-0.1-0.1-0.1-0.1
						c-1-0.6-1.8-1.6-2.4-2.9c-7.2-17.3-16.4-32-27.5-44.1c-11.1-12.1-14.6-8.3-10.5,11.4c4,19.4,17.5,32.7,40.2,40.1
						c0.1,0,0.2,0.1,0.3,0.1c0.2,0.1,0.5,0.2,0.8,0.2c0.1,0,0.2-0.1,0.2-0.1c0,0,0,0,0.1,0L-93.5-227.5z"/>
					<path class="st2" d="M-62.8-274.9c-3.9,4.3-7.6,8.9-11.1,13.9c-2.1,3-4.1,6.1-6,9.3c-3.4,5.7-6.4,11.8-9.2,18.2
						c-0.1,0.3-0.3,0.6-0.4,0.9c0,0.1-0.1,0.2-0.1,0.3c-0.2,0.5-0.4,1-0.6,1.5c-0.1,0.2-0.2,0.4-0.4,0.7c-0.2,0.3-0.4,0.6-0.6,0.9
						c-0.5,0.7-1.1,1.2-1.8,1.5c-0.1,0.1-0.3,0.2-0.4,0.2l0.1,4.4c0.2,0,0.3-0.1,0.4-0.2c0.6-0.2,1.2-0.4,1.8-0.6
						c0.4-0.1,0.8-0.2,1.1-0.4c0.2-0.1,0.5-0.2,0.7-0.2c0.2,0,0.3-0.1,0.4-0.1c0.1,0,0.1,0,0.1-0.1c13.7-5.1,23.6-12.5,29.9-22.3
						c1.4-2.3,2.7-4.7,3.8-7.2c1.2-2.9,2.2-6,2.9-9.3C-48.2-283.1-51.7-286.9-62.8-274.9z"/>
				</g>
			</g>
		</g>
	</g>
	<g transform="matrix( 0.290924072265625, 0.8284149169921875, -0.8284149169921875, 0.290924072265625, 636.5,845.95) ">
		<g transform="matrix( 1, 0, 0, 1, 0,0) ">
			<g>
				<g id="laurel_leaf_0_Layer0_0_FILL_18_">
					<path class="st1" d="M-46.7-240.2L-46.7-240.2c-0.1,0.1-0.2,0.1-0.2,0.1c-0.3-0.1-0.6-0.2-0.8-0.4c-0.1,0-0.1-0.1-0.2-0.1
						c-1-0.6-1.8-1.6-2.4-2.8c-7.2-17.3-16.4-32-27.5-44.1c-11.1-12.1-14.6-8.3-10.4,11.4c4,19.4,17.5,32.7,40.2,40.1
						c0.1,0,0.2,0.1,0.3,0.1c0.2,0.1,0.5,0.2,0.8,0.2c0.1,0,0.2-0.1,0.2-0.1c0,0,0,0,0,0L-46.7-240.2z"/>
					<path class="st2" d="M-16-287.6c-3.9,4.3-7.6,8.9-11.1,13.9c-2.1,3-4.1,6.1-6,9.3c-3.4,5.7-6.4,11.8-9.2,18.2
						c-0.1,0.3-0.3,0.6-0.4,0.9c0,0.1-0.1,0.2-0.1,0.3c-0.2,0.5-0.4,1-0.7,1.6c-0.1,0.2-0.2,0.4-0.3,0.6c-0.2,0.3-0.4,0.6-0.6,0.9
						c-0.5,0.7-1.1,1.2-1.9,1.5c-0.1,0.1-0.3,0.2-0.4,0.2l0.1,4.4c0.2,0,0.3-0.1,0.5-0.1c0.6-0.2,1.2-0.4,1.8-0.6
						c0.4-0.1,0.8-0.2,1.1-0.4c0.2-0.1,0.5-0.2,0.7-0.2c0.2,0,0.3-0.1,0.4-0.1c0.1,0,0.1,0,0.1-0.1c13.7-5.1,23.6-12.5,29.9-22.3
						c1.4-2.3,2.7-4.7,3.7-7.2c1.2-2.9,2.2-6,2.8-9.3C-1.4-295.9-4.9-299.7-16-287.6z"/>
				</g>
			</g>
		</g>
	</g>
	<g transform="matrix( 0.4362030029296875, 0.7620086669921875, -0.7620086669921875, 0.4362030029296875, 684.35,825.7) ">
		<g transform="matrix( 1, 0, 0, 1, 0,0) ">
			<g>
				<g id="laurel_leaf_0_Layer0_0_FILL_19_">
					<path class="st1" d="M2.1-244.4L2.1-244.4c-0.1,0.1-0.2,0.1-0.2,0.1c-0.3-0.1-0.6-0.2-0.8-0.4c-0.1,0-0.1-0.1-0.1-0.1
						c-1-0.6-1.8-1.6-2.4-2.9c-7.2-17.3-16.4-32-27.5-44.1c-11.1-12.1-14.6-8.3-10.4,11.4c4,19.4,17.5,32.7,40.2,40.1
						c0.1,0,0.2,0.1,0.3,0.1c0.2,0.1,0.5,0.2,0.7,0.2c0.1,0,0.2-0.1,0.2-0.1c0,0,0,0,0,0L2.1-244.4z"/>
					<path class="st2" d="M32.8-291.7c-3.9,4.3-7.6,8.9-11.1,13.9c-2.1,3-4.1,6.1-6,9.3c-3.4,5.7-6.4,11.8-9.2,18.2
						c-0.1,0.3-0.3,0.6-0.4,0.9c0,0.1-0.1,0.2-0.1,0.3c-0.2,0.5-0.4,1-0.6,1.6c-0.1,0.2-0.2,0.4-0.3,0.7c-0.2,0.3-0.4,0.6-0.6,0.9
						c-0.5,0.7-1.1,1.2-1.8,1.5c-0.1,0.1-0.3,0.2-0.4,0.2l0.1,4.4c0.2,0,0.3-0.1,0.4-0.1c0.6-0.2,1.2-0.4,1.8-0.6
						c0.4-0.1,0.8-0.2,1.1-0.3c0.2-0.1,0.5-0.2,0.7-0.2c0.2,0,0.3-0.1,0.4-0.2c0.1,0,0.1,0,0.1,0c13.7-5.1,23.6-12.5,29.9-22.3
						c1.4-2.3,2.7-4.7,3.7-7.2c1.2-2.9,2.2-6,2.8-9.3C47.4-300,43.9-303.8,32.8-291.7z"/>
				</g>
			</g>
		</g>
	</g>
	<g transform="matrix( 0.559814453125, 0.6763916015625, -0.6763916015625, 0.559814453125, 722.45,802.35) ">
		<g transform="matrix( 1, 0, 0, 1, 0,0) ">
			<g>
				<g id="laurel_leaf_0_Layer0_0_FILL_20_">
					<path class="st1" d="M48-240.1L48-240.1c-0.1,0.1-0.2,0.1-0.2,0.1c-0.3-0.1-0.6-0.2-0.8-0.4c-0.1,0-0.1-0.1-0.2-0.1
						c-1-0.6-1.8-1.6-2.4-2.8c-7.2-17.3-16.4-32-27.5-44.1C5.8-299.5,2.3-295.7,6.5-276c4,19.4,17.5,32.7,40.3,40.1
						c0.1,0,0.2,0.1,0.3,0.1c0.2,0.1,0.5,0.2,0.8,0.2c0.1,0,0.2-0.1,0.2-0.1c0,0,0,0,0,0L48-240.1z"/>
					<path class="st2" d="M78.7-287.4c-3.9,4.3-7.6,8.9-11.1,13.9c-2.1,3-4.1,6.1-6,9.3c-3.4,5.7-6.4,11.8-9.2,18.3
						c-0.1,0.3-0.3,0.6-0.4,0.9c0,0.1-0.1,0.2-0.1,0.3c-0.2,0.5-0.4,1-0.7,1.5c-0.1,0.2-0.2,0.4-0.3,0.7c-0.2,0.3-0.4,0.6-0.6,0.9
						c-0.5,0.7-1.1,1.2-1.8,1.5c-0.1,0.1-0.3,0.2-0.4,0.2l0.1,4.4c0.2,0,0.3-0.1,0.5-0.1c0.6-0.2,1.2-0.4,1.8-0.6
						c0.4-0.1,0.8-0.2,1.1-0.4c0.2-0.1,0.5-0.2,0.7-0.2c0.2,0,0.3-0.1,0.4-0.1c0.1,0,0.1,0,0.1-0.1c13.7-5.1,23.6-12.5,29.9-22.3
						c1.4-2.3,2.7-4.7,3.8-7.2c1.2-2.9,2.2-6,2.8-9.3C93.3-295.7,89.8-299.5,78.7-287.4z"/>
				</g>
			</g>
		</g>
	</g>
	<g transform="matrix( 0.62432861328125, 0.617279052734375, -0.617279052734375, 0.62432861328125, 757.7,772.3) ">
		<g transform="matrix( 1, 0, 0, 1, 0,0) ">
			<g>
				<g id="laurel_leaf_0_Layer0_0_FILL_21_">
					<path class="st1" d="M74.2-234L74.2-234c-0.1,0.1-0.2,0.1-0.2,0.1c-0.3-0.1-0.6-0.2-0.8-0.4c-0.1,0-0.1-0.1-0.2-0.1
						c-1-0.6-1.8-1.6-2.4-2.8c-7.2-17.3-16.4-32-27.5-44.1C32-293.4,28.5-289.6,32.6-270c4,19.4,17.5,32.7,40.2,40.1
						c0.1,0,0.2,0.1,0.4,0.1c0.2,0.1,0.5,0.2,0.8,0.2c0.1,0,0.2-0.1,0.2-0.1c0,0,0,0,0,0L74.2-234z"/>
					<path class="st2" d="M104.9-281.4c-3.9,4.3-7.6,8.9-11.1,13.8c-2.1,3-4.1,6.1-6,9.3c-3.4,5.7-6.4,11.8-9.3,18.2
						c-0.1,0.3-0.3,0.6-0.4,0.8c0,0.1-0.1,0.2-0.1,0.3c-0.2,0.5-0.4,1-0.6,1.6c-0.1,0.2-0.2,0.4-0.4,0.6c-0.2,0.3-0.4,0.6-0.6,0.9
						c-0.5,0.7-1.1,1.2-1.8,1.5c-0.1,0.1-0.3,0.2-0.4,0.2l0.1,4.4c0.2,0,0.3-0.1,0.5-0.1c0.6-0.2,1.2-0.4,1.8-0.6
						c0.4-0.1,0.8-0.2,1.1-0.3c0.2-0.1,0.5-0.2,0.7-0.2c0.2,0,0.3-0.1,0.4-0.2c0.1,0,0.1,0,0.1-0.1c13.7-5.1,23.6-12.5,29.9-22.3
						c1.4-2.3,2.7-4.7,3.8-7.2c1.2-2.9,2.2-6,2.8-9.3C119.4-289.6,116-293.4,104.9-281.4z"/>
				</g>
			</g>
		</g>
	</g>
	<g transform="matrix( 0.6796722412109375, 0.5557861328125, -0.5557861328125, 0.6796722412109375, 788.95,738.95) ">
		<g transform="matrix( 1, 0, 0, 1, 0,0) ">
			<g>
				<g id="laurel_leaf_0_Layer0_0_FILL_22_">
					<path class="st1" d="M98.2-225.9L98.2-225.9c-0.1,0.1-0.2,0.1-0.2,0.1c-0.3-0.1-0.6-0.2-0.9-0.4c-0.1,0-0.1-0.1-0.1-0.1
						c-1-0.6-1.8-1.6-2.4-2.9c-7.2-17.3-16.4-32-27.5-44.1s-14.6-8.3-10.5,11.4c4,19.4,17.5,32.7,40.3,40.1c0.1,0,0.2,0.1,0.4,0.1
						c0.2,0.1,0.5,0.2,0.8,0.3c0.1,0,0.2-0.1,0.2-0.1c0,0,0,0,0,0L98.2-225.9z"/>
					<path class="st2" d="M128.9-273.3c-3.9,4.3-7.6,8.9-11.1,13.9c-2.1,3-4.1,6.1-6,9.3c-3.4,5.7-6.4,11.8-9.3,18.2
						c-0.1,0.3-0.3,0.6-0.4,0.9c0,0.1-0.1,0.2-0.1,0.3c-0.2,0.5-0.4,1-0.6,1.5c-0.1,0.2-0.2,0.4-0.4,0.7c-0.2,0.3-0.4,0.6-0.6,0.9
						c-0.5,0.7-1.1,1.2-1.8,1.5c-0.1,0.1-0.3,0.2-0.4,0.2l0.1,4.4c0.2,0,0.3-0.1,0.5-0.2c0.6-0.2,1.2-0.4,1.8-0.6
						c0.4-0.1,0.8-0.2,1.1-0.4c0.2-0.1,0.5-0.2,0.7-0.2c0.2,0,0.3-0.1,0.4-0.1c0.1,0,0.1,0,0.1-0.1c13.7-5.1,23.6-12.5,29.9-22.3
						c1.4-2.3,2.7-4.7,3.8-7.2c1.2-2.9,2.2-6,2.9-9.3C143.5-281.5,140-285.3,128.9-273.3z"/>
				</g>
			</g>
		</g>
	</g>
	<g transform="matrix( 0.76416015625, 0.43231201171875, -0.43231201171875, 0.76416015625, 816.7,701.75) ">
		<g transform="matrix( 1, 0, 0, 1, 0,0) ">
			<g>
				<g id="laurel_leaf_0_Layer0_0_FILL_23_">
					<path class="st1" d="M139.4-205.6L139.4-205.6c-0.1,0.1-0.2,0.1-0.2,0.1c-0.3-0.1-0.6-0.2-0.9-0.4c-0.1,0-0.1-0.1-0.1-0.1
						c-1-0.6-1.8-1.6-2.4-2.9c-7.2-17.3-16.4-32-27.5-44.1c-11.1-12.1-14.6-8.3-10.4,11.4c4,19.4,17.5,32.7,40.3,40.1
						c0.1,0,0.2,0.1,0.3,0.1c0.2,0.1,0.5,0.2,0.8,0.2c0.1,0,0.2-0.1,0.2-0.1c0,0,0,0,0.1,0L139.4-205.6z"/>
					<path class="st2" d="M170.1-253c-3.9,4.3-7.6,8.9-11.1,13.9c-2.1,3-4.1,6.1-6,9.3c-3.4,5.7-6.4,11.8-9.2,18.3
						c-0.1,0.3-0.3,0.6-0.4,0.8c0,0.1-0.1,0.2-0.1,0.3c-0.2,0.5-0.4,1-0.6,1.6c-0.1,0.2-0.2,0.4-0.4,0.6c-0.2,0.3-0.4,0.6-0.6,0.9
						c-0.5,0.7-1.1,1.2-1.8,1.5c-0.1,0.1-0.3,0.2-0.4,0.2l0.1,4.4c0.2,0,0.3-0.1,0.4-0.1c0.6-0.2,1.2-0.4,1.8-0.6
						c0.4-0.1,0.8-0.2,1.1-0.3c0.2-0.1,0.5-0.2,0.7-0.2c0.2,0,0.3-0.1,0.4-0.2c0.1,0,0.1,0,0.1,0c13.7-5.1,23.6-12.5,29.9-22.3
						c1.4-2.3,2.7-4.7,3.8-7.2c1.2-2.9,2.2-6,2.9-9.3C184.6-261.2,181.2-265,170.1-253z"/>
				</g>
			</g>
		</g>
	</g>
	<g transform="matrix( 0.822418212890625, 0.307373046875, -0.307373046875, 0.822418212890625, 839.7,658.9) ">
		<g transform="matrix( 1, 0, 0, 1, 0,0) ">
			<g>
				<g id="laurel_leaf_0_Layer0_0_FILL_24_">
					<path class="st1" d="M173.7-181L173.7-181c-0.1,0.1-0.2,0.1-0.2,0.1c-0.3-0.1-0.6-0.2-0.8-0.4c-0.1,0-0.1-0.1-0.2-0.1
						c-1-0.6-1.8-1.6-2.4-2.8c-7.2-17.3-16.4-32-27.5-44.1c-11.1-12.1-14.6-8.3-10.4,11.4c4,19.4,17.5,32.7,40.3,40.1
						c0.1,0,0.2,0.1,0.3,0.1c0.2,0.1,0.5,0.2,0.8,0.2c0.1,0,0.2-0.1,0.2-0.1c0,0,0,0,0.1,0L173.7-181z"/>
					<path class="st2" d="M204.4-228.4c-3.9,4.3-7.6,8.9-11.1,13.9c-2.1,3-4.1,6.1-6,9.3c-3.4,5.7-6.4,11.8-9.2,18.2
						c-0.1,0.3-0.3,0.6-0.4,0.9c0,0.1-0.1,0.2-0.1,0.3c-0.2,0.5-0.4,1-0.6,1.6c-0.1,0.2-0.2,0.4-0.4,0.6c-0.2,0.3-0.4,0.6-0.6,0.9
						c-0.5,0.7-1.1,1.2-1.9,1.5c-0.1,0.1-0.3,0.2-0.4,0.2l0.1,4.4c0.2,0,0.3-0.1,0.4-0.1c0.6-0.2,1.2-0.4,1.8-0.6
						c0.4-0.1,0.8-0.2,1.1-0.3c0.2-0.1,0.5-0.2,0.7-0.2c0.2,0,0.3-0.1,0.4-0.2c0.1,0,0.1,0,0.1-0.1c13.7-5.1,23.6-12.5,29.9-22.3
						c1.4-2.3,2.7-4.7,3.8-7.2c1.2-2.9,2.2-6,2.9-9.3C219-236.6,215.5-240.4,204.4-228.4z"/>
				</g>
			</g>
		</g>
	</g>
	<g transform="matrix( 0.86279296875, 0.1624755859375, -0.1624755859375, 0.86279296875, 856.5,613.4) ">
		<g transform="matrix( 1, 0, 0, 1, 0,0) ">
			<g>
				<g id="laurel_leaf_0_Layer0_0_FILL_25_">
					<path class="st1" d="M206.3-148.4L206.3-148.4c-0.1,0.1-0.2,0.1-0.2,0.1c-0.3-0.1-0.6-0.2-0.8-0.4c-0.1,0-0.1-0.1-0.2-0.1
						c-1-0.6-1.8-1.6-2.4-2.9c-7.2-17.3-16.4-32-27.5-44.1c-11.1-12.1-14.6-8.3-10.4,11.4c4,19.4,17.5,32.7,40.3,40.1
						c0.1,0,0.2,0.1,0.3,0.1c0.2,0.1,0.5,0.2,0.8,0.2c0.1,0,0.2-0.1,0.2-0.1c0,0,0,0,0.1,0L206.3-148.4z"/>
					<path class="st2" d="M237-195.7c-3.9,4.3-7.6,8.9-11.1,13.9c-2.1,3-4.1,6.1-6,9.3c-3.4,5.7-6.4,11.8-9.2,18.2
						c-0.1,0.3-0.3,0.6-0.4,0.8c0,0.1-0.1,0.2-0.1,0.3c-0.2,0.5-0.4,1-0.6,1.6c-0.1,0.2-0.2,0.4-0.4,0.6c-0.2,0.3-0.4,0.6-0.6,0.9
						c-0.5,0.7-1.1,1.2-1.8,1.5c-0.1,0.1-0.3,0.2-0.4,0.2l0.1,4.4c0.2,0,0.3-0.1,0.4-0.1c0.6-0.2,1.2-0.4,1.8-0.6
						c0.4-0.1,0.8-0.2,1.1-0.3c0.2-0.1,0.5-0.2,0.7-0.2c0.2,0,0.3-0.1,0.4-0.2c0.1,0,0.1,0,0.1,0c13.7-5.1,23.6-12.5,29.9-22.3
						c1.4-2.3,2.7-4.7,3.8-7.2c1.2-2.9,2.2-6,2.8-9.3C251.6-204,248.1-207.8,237-195.7z"/>
				</g>
			</g>
		</g>
	</g>
	<g transform="matrix( 0.877197265625, 0.0382537841796875, -0.0382537841796875, 0.877197265625, 865.9,570.35) ">
		<g transform="matrix( 1, 0, 0, 1, 0,0) ">
			<g>
				<g id="laurel_leaf_0_Layer0_0_FILL_26_">
					<path class="st1" d="M228.8-117.3L228.8-117.3c-0.1,0.1-0.2,0.1-0.2,0.1c-0.3-0.1-0.6-0.2-0.9-0.4c-0.1,0-0.1-0.1-0.1-0.1
						c-1-0.6-1.8-1.6-2.4-2.8c-7.2-17.3-16.4-32-27.5-44.1c-11.1-12.1-14.6-8.3-10.4,11.4c4,19.4,17.5,32.7,40.3,40.1
						c0.1,0,0.2,0.1,0.3,0.1c0.2,0.1,0.5,0.2,0.8,0.2c0.1,0,0.2-0.1,0.2-0.1c0,0,0,0,0.1,0L228.8-117.3z"/>
					<path class="st2" d="M259.5-164.7c-3.9,4.3-7.6,8.9-11.1,13.9c-2.1,3-4.1,6.1-6,9.3c-3.4,5.7-6.4,11.8-9.2,18.2
						c-0.1,0.3-0.3,0.6-0.4,0.8c0,0.1-0.1,0.2-0.1,0.3c-0.2,0.5-0.4,1-0.6,1.6c-0.1,0.2-0.2,0.4-0.4,0.7c-0.2,0.3-0.4,0.6-0.6,0.9
						c-0.5,0.7-1.1,1.2-1.8,1.5c-0.1,0.1-0.3,0.2-0.4,0.2l0.1,4.4c0.2,0,0.3-0.1,0.4-0.2c0.6-0.2,1.2-0.4,1.8-0.6
						c0.4-0.1,0.8-0.2,1.1-0.3c0.2-0.1,0.5-0.2,0.7-0.2c0.2,0,0.3-0.1,0.4-0.2c0.1,0,0.1,0,0.1-0.1c13.7-5.1,23.6-12.5,29.9-22.3
						c1.4-2.3,2.7-4.7,3.8-7.2c1.2-2.9,2.2-6,2.9-9.3C274.1-172.9,270.6-176.7,259.5-164.7z"/>
				</g>
			</g>
		</g>
	</g>
	<g transform="matrix( 0.873870849609375, -0.0852203369140625, 0.0852508544921875, 0.873870849609375, 869.85,525.85) ">
		<g transform="matrix( 1, 0, 0, 1, 0,0) ">
			<g>
				<g id="laurel_leaf_0_Layer0_0_FILL_27_">
					<path class="st1" d="M246.5-83.8L246.5-83.8c-0.1,0.1-0.2,0.1-0.2,0.1c-0.3-0.1-0.6-0.2-0.9-0.4c-0.1,0-0.1-0.1-0.1-0.1
						c-1-0.6-1.8-1.6-2.4-2.8c-7.2-17.3-16.4-32-27.5-44.1c-11.1-12.1-14.6-8.3-10.4,11.4c4,19.4,17.5,32.7,40.2,40.1
						c0.1,0,0.2,0.1,0.4,0.1c0.2,0.1,0.5,0.2,0.8,0.2c0.1,0,0.2-0.1,0.2-0.1c0,0,0,0,0.1,0L246.5-83.8z"/>
					<path class="st2" d="M277.2-131.2c-3.9,4.3-7.6,8.9-11.1,13.8c-2.1,3-4.1,6.1-6,9.3c-3.4,5.7-6.4,11.8-9.2,18.2
						c-0.1,0.3-0.3,0.6-0.4,0.8c0,0.1-0.1,0.2-0.1,0.3c-0.2,0.5-0.4,1-0.7,1.5c-0.1,0.2-0.2,0.4-0.3,0.7c-0.2,0.3-0.4,0.6-0.6,0.9
						c-0.5,0.7-1.1,1.2-1.8,1.5c-0.1,0.1-0.3,0.2-0.4,0.2l0.1,4.4c0.2,0,0.3-0.1,0.4-0.2c0.6-0.2,1.2-0.4,1.8-0.6
						c0.4-0.1,0.8-0.2,1.1-0.3c0.2-0.1,0.5-0.2,0.7-0.2c0.2,0,0.3-0.1,0.4-0.2c0.1,0,0.1,0,0.1-0.1c13.7-5.1,23.6-12.5,29.9-22.3
						c1.4-2.3,2.7-4.7,3.8-7.2c1.2-2.9,2.2-6,2.9-9.3C291.8-139.4,288.3-143.2,277.2-131.2z"/>
				</g>
			</g>
		</g>
	</g>
	<g transform="matrix( 0.86328125, -0.159759521484375, 0.1597747802734375, 0.86328125, 866.8,479.8) ">
		<g transform="matrix( 1, 0, 0, 1, 0,0) ">
			<g>
				<g id="laurel_leaf_0_Layer0_0_FILL_28_">
					<path class="st1" d="M255-62.3L255-62.3c-0.1,0.1-0.2,0.1-0.2,0.1c-0.3-0.1-0.6-0.2-0.9-0.4c-0.1,0-0.1-0.1-0.1-0.1
						c-1-0.6-1.8-1.6-2.4-2.8c-7.2-17.3-16.4-32-27.5-44.1s-14.6-8.3-10.4,11.4c4,19.4,17.5,32.7,40.2,40.1c0.1,0,0.2,0.1,0.4,0.1
						c0.2,0.1,0.5,0.2,0.8,0.2c0.1,0,0.2-0.1,0.2-0.1c0,0,0,0,0.1,0L255-62.3z"/>
					<path class="st2" d="M285.7-109.7c-3.9,4.3-7.6,8.9-11.1,13.8c-2.1,3-4.1,6.1-6,9.3c-3.4,5.7-6.4,11.8-9.3,18.2
						c-0.1,0.3-0.3,0.6-0.4,0.8c0,0.1-0.1,0.2-0.1,0.3c-0.2,0.5-0.4,1-0.6,1.5c-0.1,0.2-0.2,0.4-0.4,0.7c-0.2,0.3-0.4,0.6-0.6,0.9
						c-0.5,0.7-1.1,1.2-1.9,1.5c-0.1,0.1-0.3,0.2-0.4,0.2l0.1,4.4c0.2,0,0.3-0.1,0.4-0.2c0.6-0.2,1.2-0.4,1.8-0.6
						c0.4-0.1,0.8-0.2,1.1-0.3c0.2-0.1,0.5-0.2,0.7-0.2c0.2,0,0.3-0.1,0.4-0.2c0.1,0,0.1,0,0.1,0c13.7-5.1,23.6-12.5,29.9-22.3
						c1.4-2.3,2.7-4.7,3.8-7.2c1.2-2.9,2.2-6,2.9-9.3C300.3-117.9,296.8-121.7,285.7-109.7z"/>
				</g>
			</g>
		</g>
	</g>
	<g transform="matrix( 0.8484954833984375, -0.2254638671875, 0.2255096435546875, 0.8485107421875, 858.45,434.8) ">
		<g transform="matrix( 1, 0, 0, 1, 0,0) ">
			<g>
				<g id="laurel_leaf_0_Layer0_0_FILL_29_">
					<path class="st1" d="M260.9-42.5L260.9-42.5c-0.1,0.1-0.2,0.1-0.2,0.1c-0.3-0.1-0.6-0.2-0.9-0.4c-0.1,0-0.1-0.1-0.1-0.1
						c-1-0.6-1.8-1.6-2.4-2.8c-7.2-17.3-16.4-32-27.5-44.1c-11.1-12.1-14.6-8.3-10.5,11.4c4,19.4,17.5,32.7,40.2,40.1
						c0.1,0,0.2,0.1,0.4,0.1c0.2,0.1,0.5,0.2,0.8,0.2c0.1,0,0.2-0.1,0.2-0.1c0,0,0,0,0,0L260.9-42.5z"/>
					<path class="st2" d="M291.6-89.9c-3.9,4.3-7.6,8.9-11.1,13.8c-2.1,3-4.1,6.1-6,9.3c-3.4,5.7-6.4,11.8-9.2,18.2
						c-0.1,0.3-0.3,0.6-0.4,0.8c0,0.1-0.1,0.2-0.1,0.3c-0.2,0.5-0.4,1-0.7,1.5c-0.1,0.2-0.2,0.4-0.3,0.7c-0.2,0.3-0.4,0.6-0.6,0.9
						c-0.5,0.7-1.1,1.2-1.9,1.5c-0.1,0.1-0.3,0.2-0.4,0.2l0.1,4.4c0.2,0,0.3-0.1,0.5-0.1c0.6-0.2,1.2-0.4,1.8-0.6
						c0.4-0.1,0.8-0.2,1.1-0.3c0.2-0.1,0.5-0.2,0.7-0.2c0.2,0,0.3-0.1,0.4-0.2c0.1,0,0.1,0,0.1,0c13.7-5.1,23.6-12.5,29.9-22.3
						c1.4-2.3,2.7-4.7,3.8-7.2c1.2-2.9,2.2-6,2.9-9.3C306.2-98.2,302.7-102,291.6-89.9z"/>
				</g>
			</g>
		</g>
	</g>
	<g transform="matrix( 0.797882080078125, -0.3663330078125, 0.3663330078125, 0.797882080078125, 844.85,390.5) ">
		<g transform="matrix( 1, 0, 0, 1, 0,0) ">
			<g>
				<g id="laurel_leaf_0_Layer0_0_FILL_30_">
					<path class="st1" d="M268.6,2.7L268.6,2.7c-0.1,0.1-0.2,0.1-0.2,0.1c-0.3-0.1-0.6-0.2-0.8-0.4c-0.1,0-0.1-0.1-0.2-0.1
						c-1-0.6-1.8-1.6-2.4-2.9c-7.2-17.3-16.4-32-27.5-44.1c-11.1-12.1-14.6-8.3-10.4,11.4c4,19.4,17.5,32.7,40.3,40.1
						c0.1,0,0.2,0.1,0.3,0.1c0.2,0.1,0.5,0.2,0.8,0.2c0.1,0,0.2-0.1,0.2-0.1c0,0,0,0,0.1,0L268.6,2.7z"/>
					<path class="st2" d="M299.3-44.6c-3.9,4.3-7.6,8.9-11.1,13.9c-2.1,3-4.1,6.1-6,9.3c-3.4,5.7-6.4,11.8-9.2,18.3
						c-0.1,0.3-0.3,0.6-0.4,0.8c0,0.1-0.1,0.2-0.1,0.3c-0.2,0.5-0.4,1-0.6,1.5c-0.1,0.2-0.2,0.4-0.4,0.6c-0.2,0.3-0.4,0.6-0.6,0.9
						c-0.5,0.7-1.1,1.2-1.9,1.5c-0.1,0.1-0.3,0.2-0.4,0.2l0.1,4.4c0.2,0,0.3-0.1,0.4-0.1c0.6-0.2,1.2-0.4,1.8-0.6
						c0.4-0.1,0.8-0.2,1.1-0.3c0.2-0.1,0.5-0.2,0.7-0.2c0.2,0,0.3-0.1,0.4-0.2c0.1,0,0.1,0,0.1,0c13.7-5.1,23.6-12.5,29.9-22.3
						c1.4-2.3,2.7-4.7,3.8-7.2c1.2-2.9,2.2-6,2.8-9.3C313.8-52.9,310.4-56.7,299.3-44.6z"/>
				</g>
			</g>
		</g>
	</g>
	<g transform="matrix( 0.7327880859375, -0.48358154296875, 0.48358154296875, 0.7327880859375, 823.7,346.5) ">
		<g transform="matrix( 1, 0, 0, 1, 0,0) ">
			<g>
				<g id="laurel_leaf_0_Layer0_0_FILL_31_">
					<path class="st1" d="M268.8,43.9L268.8,43.9c-0.1,0.1-0.2,0.1-0.2,0.1c-0.3-0.1-0.6-0.2-0.9-0.4c-0.1,0-0.1-0.1-0.1-0.1
						c-1-0.6-1.8-1.6-2.4-2.9c-7.2-17.3-16.4-32-27.5-44.1s-14.6-8.3-10.5,11.4c4,19.4,17.5,32.7,40.2,40.1c0.1,0,0.2,0.1,0.4,0.1
						c0.2,0.1,0.5,0.2,0.8,0.2c0.1,0,0.2-0.1,0.2-0.1c0,0,0,0,0,0L268.8,43.9z"/>
					<path class="st2" d="M299.5-3.5c-3.9,4.3-7.6,8.9-11.1,13.8c-2.1,3-4.1,6.1-6,9.3c-3.4,5.7-6.4,11.8-9.2,18.2
						c-0.1,0.3-0.3,0.6-0.4,0.8c0,0.1-0.1,0.2-0.1,0.3c-0.2,0.5-0.4,1-0.6,1.5c-0.1,0.2-0.2,0.4-0.4,0.7c-0.2,0.3-0.4,0.6-0.6,0.9
						c-0.5,0.7-1.1,1.2-1.9,1.5c-0.1,0.1-0.3,0.2-0.4,0.2l0.1,4.4c0.2,0,0.3-0.1,0.5-0.1c0.6-0.2,1.2-0.4,1.8-0.6
						c0.4-0.1,0.8-0.2,1.1-0.3c0.2-0.1,0.5-0.2,0.7-0.2c0.2,0,0.3-0.1,0.4-0.2c0.1,0,0.1,0,0.1,0c13.7-5.1,23.6-12.5,29.9-22.3
						c1.4-2.3,2.7-4.7,3.8-7.2c1.2-2.9,2.2-6,2.9-9.3C314.1-11.8,310.6-15.6,299.5-3.5z"/>
				</g>
			</g>
		</g>
	</g>
	<g transform="matrix( 0.64776611328125, -0.592620849609375, 0.592620849609375, 0.64776611328125, 796.9,306.05) ">
		<g transform="matrix( 1, 0, 0, 1, 0,0) ">
			<g>
				<g id="laurel_leaf_0_Layer0_0_FILL_32_">
					<path class="st1" d="M262.5,85.8L262.5,85.8c-0.1,0.1-0.2,0.1-0.2,0.1c-0.3-0.1-0.6-0.2-0.9-0.4c-0.1,0-0.1-0.1-0.1-0.1
						c-1-0.6-1.8-1.6-2.4-2.9c-7.2-17.3-16.4-32-27.5-44.1c-11.1-12.1-14.6-8.3-10.4,11.4c4,19.4,17.5,32.7,40.2,40.1
						c0.1,0,0.2,0.1,0.3,0.1c0.2,0.1,0.5,0.2,0.8,0.2c0.1,0,0.2-0.1,0.2-0.1c0,0,0,0,0.1,0L262.5,85.8z"/>
					<path class="st2" d="M293.2,38.4c-3.9,4.3-7.6,8.9-11.1,13.8c-2.1,3-4.1,6.1-6,9.3c-3.4,5.7-6.4,11.8-9.2,18.2
						c-0.1,0.3-0.3,0.6-0.4,0.8c0,0.1-0.1,0.2-0.1,0.3c-0.2,0.5-0.4,1-0.6,1.5c-0.1,0.2-0.2,0.4-0.4,0.7c-0.2,0.3-0.4,0.6-0.6,0.9
						c-0.5,0.7-1.1,1.2-1.9,1.5c-0.1,0.1-0.3,0.2-0.4,0.2l0.1,4.4c0.2,0,0.3-0.1,0.4-0.2c0.6-0.2,1.2-0.4,1.8-0.6
						c0.4-0.1,0.8-0.2,1.1-0.3c0.2-0.1,0.5-0.2,0.7-0.2c0.2,0,0.3-0.1,0.4-0.2c0.1,0,0.1,0,0.1,0c13.7-5.1,23.6-12.5,29.9-22.3
						c1.4-2.3,2.7-4.7,3.8-7.2c1.2-2.9,2.2-6,2.9-9.3C307.8,30.2,304.3,26.4,293.2,38.4z"/>
				</g>
			</g>
		</g>
	</g>
	<g transform="matrix( 0.554901123046875, -0.68035888671875, 0.68035888671875, 0.554901123046875, 758.7,264.65) ">
		<g transform="matrix( 1, 0, 0, 1, 0,0) ">
			<g>
				<g id="laurel_leaf_0_Layer0_0_FILL_33_">
					<path class="st1" d="M250.9,123.2L250.9,123.2c-0.1,0.1-0.2,0.1-0.2,0.1c-0.3-0.1-0.6-0.2-0.9-0.4c-0.1,0-0.1-0.1-0.1-0.1
						c-1-0.6-1.8-1.6-2.4-2.9c-7.2-17.3-16.4-32-27.5-44.1c-11.1-12.1-14.6-8.3-10.4,11.4c4,19.4,17.5,32.7,40.2,40.1
						c0.1,0,0.2,0.1,0.4,0.1c0.2,0.1,0.5,0.2,0.8,0.2c0.1,0,0.2-0.1,0.2-0.1c0,0,0,0,0.1,0L250.9,123.2z"/>
					<path class="st2" d="M281.6,75.9c-3.9,4.3-7.6,8.9-11.1,13.8c-2.1,3-4.1,6.1-6,9.3c-3.4,5.7-6.4,11.8-9.3,18.2
						c-0.1,0.3-0.3,0.6-0.4,0.8c0,0.1-0.1,0.2-0.1,0.3c-0.2,0.5-0.4,1-0.7,1.5c-0.1,0.2-0.2,0.4-0.3,0.7c-0.2,0.3-0.4,0.6-0.6,0.9
						c-0.5,0.7-1.1,1.2-1.8,1.5c-0.1,0.1-0.3,0.2-0.4,0.2l0.1,4.4c0.2,0,0.3-0.1,0.4-0.2c0.6-0.2,1.2-0.4,1.8-0.6
						c0.4-0.1,0.8-0.2,1.1-0.3c0.2-0.1,0.5-0.2,0.7-0.2c0.2,0,0.3-0.1,0.4-0.2c0.1,0,0.1,0,0.1,0c13.7-5.1,23.6-12.5,29.9-22.3
						c1.4-2.3,2.7-4.7,3.8-7.2c1.2-2.9,2.2-6,2.9-9.3C296.2,67.6,292.7,63.8,281.6,75.9z"/>
				</g>
			</g>
		</g>
	</g>
	<g transform="matrix( 1, 0, 0, 1, 0,0) ">
		<g>
			<g id="Layer1_0_FILL">
				<path class="st2" d="M549.5,94.9c-1.6-1.8-5.2-1.5-10.6,1c-5.5,2.6-11.2,6.5-17.2,11.9c-6.1,5.4-10.7,10.7-13.8,15.8l-6.1,11.2
					v0.1c-7.3,6.3-14.4,12.9-21.4,19.9c-63.6,63.6-97.5,139.4-101.9,227.5c-0.1,2.9-0.2,5.7-0.3,8.6c-0.1,3.7-0.1,7.3-0.1,11
					c0,96.5,34.1,178.9,102.4,247.2c28,28,58.4,50.2,91.1,66.7c43.1,21.7,90.4,33.5,141.8,35.3v-3.3c-51.4-1.9-98.7-13.8-141.8-35.9
					c-31.7-16.2-61.2-37.9-88.4-65c-67.5-67.5-101.3-149-101.2-244.5c0-3.9,0.1-7.7,0.1-11.5c0.1-2.9,0.2-5.7,0.4-8.6
					c4.5-86.8,38-161.6,100.8-224.4c7-7,14.1-13.7,21.5-20.1l11.8-4.8c5.4-2.5,11.2-6.4,17.2-11.9c6.1-5.4,10.7-10.7,13.8-15.8
					C550.3,100.2,551.1,96.7,549.5,94.9 M956.5,134.9L956.5,134.9l0,5.2c6.4,5.7,12.7,11.6,18.8,17.8
					c62.7,62.7,96.3,137.5,100.7,224.4c0.2,2.9,0.3,5.7,0.3,8.6c0.1,3.8,0.2,7.6,0.2,11.5c0,95.5-33.8,177-101.3,244.5
					c-27.2,27.2-56.7,48.9-88.4,65.1c-43.1,22-90.3,33.9-141.8,35.8v3.3c51.4-1.8,98.6-13.6,141.8-35.3C919.6,699.2,950,677,978,649
					c68.2-68.3,102.3-150.7,102.3-247.2c0-3.7,0-7.4-0.2-11c-0.1-2.9-0.2-5.7-0.3-8.6c-4.3-88-38.3-163.9-101.8-227.5
					C971,147.8,963.8,141.1,956.5,134.9z"/>
			</g>
		</g>
	</g>
	<g transform="matrix( 1, 0, 0, 1, 0,0) ">
		<g>
			<g id="Layer0_0_FILL">
				<path class="st1" d="M729,18.9l-18,51l-54,1.3l42.9,32.9l-15.4,51.7l44.5-30.6V18.9z"/>
				<path class="st2" d="M747,69.9l-18-51v106.2l44.4,30.6l-15.4-51.7L801,71.2L747,69.9z"/>
			</g>
		</g>
	</g>
</g>
<g id="Layer_2">
	<g id="XMLID_16_">
		<path id="XMLID_14_" class="st1" d="M707,220c-0.3,1.2-3.9,2-7.3-1c0,0-4.2-3.7,0-6.4c0,0,4.1,0,5.6,2
			C706.8,216.6,707.3,218.8,707,220z"/>
		<path id="XMLID_13_" class="st1" d="M685.6,218.9c-3.4,3.1-6.9,2.2-7.3,1c-0.3-1.2,0.2-3.4,1.7-5.4c1.5-2,5.6-2,5.6-2
			C689.9,215.2,685.6,218.9,685.6,218.9z"/>
		<path id="XMLID_26_" class="st1" d="M768,489.2c6.7,4,14.2,3.7,19.9-9.2c12-27.2,28.2-99.7,0.3-143.4c-1.9-3-4-5.8-6.4-8.5
			c-2-2.3-4.2-4.5-6.5-6.6c0,0-26.1-54-32.4-60.3c-6.3-6.3-30.7-9.9-35.4-9.9c0,0,21.6-3.6,23-9.7c0,0,7.2-11.3-9-39.8
			c0,0-13.1-28.4-29.9-28.8c0,0-10.1-2-25.9,20.5c0,0-24.6,35.6-13.8,50c0,0,4.7,7.5,21.6,9.7c0,0-31.5,3.6-38.7,18.9
			c-7.2,15.3-12.6,73-13.5,115.3c-0.9,42.3,6.3,81.9,8.1,85.5c0,0-13.5,175.6-18,204.4c0,0,23.4,9.9,42.3,7.2
			c18.9-2.7-6.3,0,28.8,0.5c35.1,0.4,36.9,5.9,50.4,0c0.6-0.3,1.3-0.5,1.8-0.8c4.3-1.9,6.2-3,8-3.8c2.8-1.3,5.3-1.8,16.3-3.9
			c18.9-3.6,21.6-9.9,24.3-9.9c1.8,0-10.8-76.3-21-134.5v0c-1.5-8.5-3-16.6-4.3-24.1c-3.2-17.9-5.8-31.7-7.1-37.5
			c0,0,4.3,7.4,10.3,13.4C763.3,485.8,765.6,487.8,768,489.2z M651.9,343.9c-3.1,25.3-22.1,128.3-22.7,131.6
			c0.4-2.9,12.9-96.7,16.4-111.7c3.6-15.3,3.6-46.8,3.6-53.6c0-6.7,2.7-10.4,2.7-10.4S655.1,318.3,651.9,343.9z M681.6,248
			c-19.4-1.1-22.1-6.3-22.1-6.3c-8.3-7.4,2.2-15.3,2.2-15.3c3.3-1.2,5.6-2.6,8-5.3c1.4-1.5,2.7-3.5,4.4-6.2c1.6-2.6,3.4-6,5.7-10.2
			c8.3-15.5,11.5-13.3,15.8-11.9c4.3,1.3,8.1,13.1,8.1,13.1c2.6,6,7.4,10.1,11.9,15.1c3.2,3.6,6.2,7.6,8,13.1
			c4.3,13.1-21.9,14-21.9,14H681.6z M755.9,449.8c0,0-15.8-37.8,1.8-101.8c0,0,9.5-25,21.4-19.6c0,0-8.6,6.6-11.1,13.7
			C768.1,342.1,746.9,397.1,755.9,449.8z"/>
		<path id="XMLID_8_" class="st4" d="M701.7,248c0,0,0.6-0.9,0.5-3.8c-0.1-2.9,0.5-4.2,2.8-5.2c2.4-1,6.3-4.2,6.3-4.2
			c2.7-2,4.4-13.8,4.4-13.8c3.2,3.6,6.2,7.6,8,13.1C727.8,247.1,701.7,248,701.7,248z"/>
		<path id="XMLID_7_" class="st1" d="M707,220c-0.3,1.2-3.9,2-7.3-1c0,0-4.2-3.7,0-6.4c0,0,4.1,0,5.6,2
			C706.8,216.6,707.3,218.8,707,220z"/>
		<path id="XMLID_6_" class="st1" d="M685.6,218.9c-3.4,3.1-6.9,2.2-7.3,1c-0.3-1.2,0.2-3.4,1.7-5.4c1.5-2,5.6-2,5.6-2
			C689.9,215.2,685.6,218.9,685.6,218.9z"/>
		<path id="XMLID_5_" class="st4" d="M683.7,248h-2c-19.4-1.1-22.1-6.3-22.1-6.3c-8.3-7.4,2.2-15.3,2.2-15.3c3.3-1.2,5.6-2.6,8-5.3
			c0.2,1.3,1.8,11.8,4.3,13.7c0,0,3.9,3.2,6.3,4.2c2.4,1,3,2.4,2.8,5.2C683.1,247.1,683.7,248,683.7,248z"/>
		<g id="XMLID_19_">
			<polygon id="XMLID_4_" class="st2" points="809.2,177.2 801.9,176.2 734.4,686.6 741.8,687.6 			"/>
			<path id="XMLID_3_" class="st2" d="M808.3,183.9c0,0,184,35.9,182.3,116.1c0,0-28.9-77.4-184.9-96L808.3,183.9z"/>
		</g>
		<path id="XMLID_2_" class="st1" d="M707,220c-0.3,1.2-3.9,2-7.3-1c0,0-4.2-3.7,0-6.4c0,0,4.1,0,5.6,2
			C706.8,216.6,707.3,218.8,707,220z"/>
		<path id="XMLID_1_" class="st1" d="M685.6,218.9c-3.4,3.1-6.9,2.2-7.3,1c-0.3-1.2,0.2-3.4,1.7-5.4c1.5-2,5.6-2,5.6-2
			C689.9,215.2,685.6,218.9,685.6,218.9z"/>
	</g>
</g>
</svg>
