
<svg xmlns="http://www.w3.org/2000/svg" version="1.1" xmlns:xlink="http://www.w3.org/1999/xlink" preserveAspectRatio="none" x="0px" y="0px" width="1024px" height="1024px" viewBox="0 0 1024 1024">
<defs>
<g id="Layer4_0_FILL">
<path fill="#46D3FF" stroke="none" d="
M 921.6 518.65
Q 921.6 352.85 804.3 235.55 687.1 118.35 521.3 118.35 355.5 118.35 238.2 235.55 121 352.85 121 518.65 121 684.45 238.2 801.7 355.5 918.95 521.3 918.95 687.1 918.95 804.3 801.7 921.6 684.45 921.6 518.65 Z"/>
</g>

<g id="Layer3_0_FILL">
<path fill="#FF8836" stroke="none" d="
M 796 227.45
L 834.25 189.25
Q 703.6732421875 64.3 521.3 64.3 333.1 64.3 200 197.35 66.95 330.45 66.95 518.65 66.95 701.0232421875 191.9 831.6
L 230.1 793.4
Q 121 678.62109375 121 518.65 121 352.85 238.2 235.55 355.5 118.35 521.3 118.35 681.2888671875 118.35 796 227.45 Z"/>

<path fill="#FF6A19" stroke="none" d="
M 842.55 197.35
Q 838.4306640625 193.2306640625 834.25 189.25
L 796 227.45
Q 800.1921875 231.4421875 804.3 235.55 921.6 352.85 921.6 518.65 921.6 684.45 804.3 801.7 687.1 918.95 521.3 918.95 355.5 918.95 238.2 801.7 234.0796875 797.5779296875 230.1 793.4
L 191.9 831.6
Q 195.8806640625 835.7806640625 200 839.9 333.1 973 521.3 973 709.5 973 842.55 839.9 975.65 706.85 975.65 518.65 975.65 330.45 842.55 197.35 Z"/>
</g>

<g id="Layer2_0_FILL">
<path fill="#000000" fill-opacity="0.34901960784313724" stroke="none" d="
M 628 270.4
L 537.6 384.25 453.95 384.25 519.3 512.3 153.2 532.1 520.6 918.95
Q 520.95078125 918.95 521.3 918.95 687.1 918.95 804.3 801.7 913.4740234375 692.5724609375 921 541.4
L 628 270.4 Z"/>
</g>

<g id="Layer1_0_FILL">
<path fill="#FF8835" stroke="none" d="
M 523.05 351.55
Q 522.8 351.5505859375 522.55 351.55 522.45 351.55 522.35 351.55 505.3703125 351.5837890625 487.1 359.25 467.4970703125 299.241796875 416.9 270.4 400.99609375 352.8203125 424.25 411.55 447.5623046875 470.2703125 471.45 481.75 341.2232421875 440.088671875 326.75 375.6 198.4791015625 412.354296875 153.2 532.1 228.865234375 532.1099609375 234.9 581 284.3208984375 553.3755859375 341.85 622.1 440.040625 578.3685546875 457.95 660.85 478.66484375 756.4755859375 523.05 888.15
L 523.05 351.55
M 512.3 424.6
Q 496.225 424.578125 480.3 416.4 471.5685546875 404.5001953125 471.15 393.75 504.2662109375 393.0763671875 512.3 424.6 Z"/>

<path fill="#FF6A19" stroke="none" d="
M 811.2 581
Q 817.25 532.1 892.9 532.1 847.6 412.35 719.35 375.6 704.9 440.1 574.65 481.75 598.55 470.25 621.8 411.55 645.1 352.8 629.2 270.4 578.6 299.25 559 359.25 540.75 351.6 523.75 351.55 523.65 351.55 523.55 351.55 523.3 351.55 523.05 351.55
L 523.05 888.15
Q 567.45 756.5 588.15 660.85 606.05 578.35 704.25 622.1 761.8 553.4 811.2 581
M 565.8 416.4
Q 549.85 424.6 533.8 424.6 541.85 393.1 574.95 393.75 574.55 404.5 565.8 416.4 Z"/>
</g>
</defs>

<g transform="matrix( 1, 0, 0, 1, 0,0) ">
<use xlink:href="#Layer4_0_FILL"/>
</g>

<g transform="matrix( 1, 0, 0, 1, 0,0) ">
<use xlink:href="#Layer3_0_FILL"/>
</g>

<g transform="matrix( 1, 0, 0, 1, 0,0) ">
<use xlink:href="#Layer2_0_FILL"/>
</g>

<g transform="matrix( 1, 0, 0, 1, 0,0) ">
<use xlink:href="#Layer1_0_FILL"/>
</g>
</svg>
