
<svg xmlns="http://www.w3.org/2000/svg" version="1.1" xmlns:xlink="http://www.w3.org/1999/xlink" preserveAspectRatio="none" x="0px" y="0px" width="1024px" height="1024px" viewBox="0 0 1024 1024">
<defs>
<g id="Layer6_0_FILL">
<path fill="#861313" stroke="none" d="
M 921.6 518.65
Q 921.6 352.85 804.3 235.55 687.1 118.35 521.3 118.35 355.5 118.35 238.2 235.55 121 352.85 121 518.65 121 684.45 238.2 801.7 355.5 918.95 521.3 918.95 687.1 918.95 804.3 801.7 921.6 684.45 921.6 518.65 Z"/>
</g>

<g id="Layer5_0_FILL">
<path fill="#FF0000" stroke="none" d="
M 796 227.45
L 834.25 189.25
Q 703.6732421875 64.3 521.3 64.3 333.1 64.3 200 197.35 66.95 330.45 66.95 518.65 66.95 701.0232421875 191.9 831.6
L 230.1 793.4
Q 121 678.62109375 121 518.65 121 352.85 238.2 235.55 355.5 118.35 521.3 118.35 681.2888671875 118.35 796 227.45 Z"/>

<path fill="#D40000" stroke="none" d="
M 842.55 197.35
Q 838.4306640625 193.2306640625 834.25 189.25
L 796 227.45
Q 800.1921875 231.4421875 804.3 235.55 921.6 352.85 921.6 518.65 921.6 684.45 804.3 801.7 687.1 918.95 521.3 918.95 355.5 918.95 238.2 801.7 234.0796875 797.5779296875 230.1 793.4
L 191.9 831.6
Q 195.8806640625 835.7806640625 200 839.9 333.1 973 521.3 973 709.5 973 842.55 839.9 975.65 706.85 975.65 518.65 975.65 330.45 842.55 197.35 Z"/>
</g>

<g id="Layer4_0_FILL">
<path fill="#000000" fill-opacity="0.30196078431372547" stroke="none" d="
M 607.2 321.9
L 537.5 423.35 447.25 382.75 522.6 527.6 229.85 529.4 556.8 917.55 556.95 917.55
Q 699.915234375 906.129296875 804.3 801.7 883.144921875 722.888671875 909 622.15
L 607.2 321.9 Z"/>
</g>

<g id="Layer3_0_FILL">
<path fill="#FF0000" stroke="none" d="
M 523.05 386.25
Q 522.85 386.25 522.65 386.25 522.6 386.25 522.5 386.25 509.05 386.3 494.55 392.35 479.05 344.8 438.9 321.9 426.3 387.25 444.8 433.8 463.2 480.35 482.15 489.45 378.9 456.45 367.45 405.3 265.75 434.45 229.85 529.4 289.85 529.4 294.65 568.15 333.8 546.3 379.4 600.75 457.25 566.05 471.45 631.45 487.85 707.3 523.05 811.65
L 523.05 386.25
M 514.55 444.15
Q 501.8 444.15 489.15 437.65 482.25 428.25 481.9 419.7 508.15 419.2 514.55 444.15 Z"/>

<path fill="#D40000" stroke="none" d="
M 751.5 568.15
Q 756.3 529.4 816.3 529.4 780.35 434.45 678.7 405.3 667.25 456.45 563.95 489.45 582.9 480.35 601.35 433.8 619.85 387.25 607.2 321.9 567.1 344.8 551.55 392.35 537.1 386.3 523.6 386.25 523.55 386.25 523.45 386.25 523.25 386.25 523.05 386.25
L 523.05 811.65
Q 558.25 707.3 574.7 631.45 588.85 566.05 666.7 600.75 712.35 546.3 751.5 568.15
M 531.6 444.15
Q 537.95 419.2 564.2 419.7 563.9 428.25 556.95 437.65 544.3 444.15 531.6 444.15 Z"/>
</g>

<g id="Layer2_0_FILL">
<path fill="#FFCA00" stroke="none" d="
M 744.4 239.65
Q 739.75 231.95 730.6 223.8 721.55 215.75 713.35 211.9 705.2 208.15 702.75 210.9 700.35 213.6 705 221.3 709.65 229.05 718.8 237.15 727.9 245.25 736.05 249
L 747.8 253.75
Q 749.1546875 254.9330078125 750.5 256.1
L 750.5 250.85 744.4 239.65 Z"/>
</g>

<g id="laurel_leaf_0_Layer0_0_FILL">
<path fill="#FFCA00" stroke="none" d="
M 0.2 24.9
L 0.15 24.95
Q 0.073046875 24.9734375 0 25 -0.448828125 24.83671875 -0.85 24.6 -0.927734375 24.568359375 -1 24.5 -2.4892578125 23.58515625 -3.4 21.65 -14.25 -4.35 -30.9 -22.45 -47.55 -40.55 -41.35 -11.05 -35.297265625 17.983203125 -1.1 29.05 -0.926953125 29.1064453125 -0.75 29.15 -0.3794921875 29.28203125 0 29.4 0.1220703125 29.362109375 0.25 29.3 0.286328125 29.313671875 0.3 29.3
L 0.2 24.9 Z"/>

<path fill="#F0B000" stroke="none" d="
M 30.9 -22.45
Q 24.987890625 -16.023046875 19.8 -8.6 16.6771484375 -4.121875 13.8 0.7 8.771484375 9.26875 4.55 18.95 4.3646484375 19.38359375 4.15 19.8 4.1119140625 19.9708984375 4.05 20.1 3.7216796875 20.8791015625 3.4 21.65 3.236328125 21.9978515625 3.05 22.3 2.77421875 22.7923828125 2.45 23.2 1.674609375 24.18359375 0.6 24.7 0.4236328125 24.83046875 0.2 24.9
L 0.3 29.3
Q 0.533203125 29.2376953125 0.75 29.15 1.6779296875 28.8783203125 2.55 28.55 3.133984375 28.3841796875 3.65 28.2 4.021484375 28.0767578125 4.35 27.95 4.5794921875 27.875390625 4.75 27.8 4.8310546875 27.78984375 4.85 27.75 25.371484375 20.1619140625 34.75 5.45 36.92421875 2.0568359375 38.5 -1.75 40.3244140625 -6.130078125 41.35 -11.05 47.55 -40.55 30.9 -22.45 Z"/>
</g>

<g id="Layer1_0_FILL">
<path fill="#F0B000" stroke="none" d="
M 343.45 210.9
Q 341 208.15 332.85 211.9 324.65 215.75 315.6 223.8 306.45 231.95 301.8 239.65
L 295.65 250.8 295.65 250.85
Q 284.7416015625 260.2560546875 274.2 270.75 178.8685546875 366.128125 172.3 498.2 172.1185546875 502.481640625 172 506.8 171.85 512.2947265625 171.85 517.85 171.85 662.6 274.2 765 316.19375 806.952734375 365.3 831.7 430.0015625 864.3068359375 507.05 867.05
L 507.05 863.7
Q 429.921484375 860.9197265625 365.3 827.85 317.7083984375 803.548046875 276.9 762.8 175.65 661.5 175.65 518.3 175.65 512.516015625 175.8 506.8 175.949609375 502.4814453125 176.15 498.2 182.83203125 367.964453125 276.9 273.85 287.3650390625 263.3849609375 298.4 253.75
L 310.15 249
Q 318.3 245.25 327.4 237.15 336.55 229.05 341.2 221.3 345.85 213.6 343.45 210.9
M 750.55 250.85
L 750.5 250.85 750.5 256.1
Q 760.1310546875 264.6810546875 769.3 273.85 863.35 367.95 870 498.2 870.25 502.5 870.35 506.8 870.55 512.5 870.55 518.3 870.55 661.5 769.3 762.8 728.5 803.55 680.9 827.9 616.3 860.9 539.15 863.7
L 539.15 867.05
Q 616.2 864.3 680.9 831.7 730 806.95 772 765 874.35 662.6 874.35 517.85 874.35 512.3 874.2 506.8 874.1 502.5 873.85 498.2 867.35 366.15 772 270.75 761.45 260.25 750.55 250.85 Z"/>
</g>

<g id="Layer0_0_FILL">
<path fill="#FFCA00" stroke="none" d="
M 523.05 134.9
L 505.05 185.85 451.05 187.2 493.95 220.05 478.6 271.75 523.05 241.15 523.05 134.9 Z"/>

<path fill="#F1B002" stroke="none" d="
M 541 185.85
L 523.05 134.9 523.05 241.15 567.45 271.75 552.1 220.05 595 187.2 541 185.85 Z"/>
</g>
</defs>

<g transform="matrix( 1, 0, 0, 1, 0,0) ">
<use xlink:href="#Layer6_0_FILL"/>
</g>

<g transform="matrix( 1, 0, 0, 1, 0,0) ">
<use xlink:href="#Layer5_0_FILL"/>
</g>

<g transform="matrix( 1, 0, 0, 1, 0,0) ">
<use xlink:href="#Layer4_0_FILL"/>
</g>

<g transform="matrix( 1, 0, 0, 1, 0,0) ">
<use xlink:href="#Layer3_0_FILL"/>
</g>

<g transform="matrix( 1, 0, 0, 1, 0,0) ">
<use xlink:href="#Layer2_0_FILL"/>
</g>

<g transform="matrix( 0.114532470703125, -0.87054443359375, 0.87054443359375, 0.114532470703125, 463.85,860.3) ">
<g transform="matrix( 1, 0, 0, 1, 0,0) ">
<use xlink:href="#laurel_leaf_0_Layer0_0_FILL"/>
</g>
</g>

<g transform="matrix( 0.272216796875, -0.8347625732421875, 0.8347625732421875, 0.272216796875, 409.6,846.7) ">
<g transform="matrix( 1, 0, 0, 1, 0,0) ">
<use xlink:href="#laurel_leaf_0_Layer0_0_FILL"/>
</g>
</g>

<g transform="matrix( 0.401336669921875, -0.78094482421875, 0.78094482421875, 0.401336669921875, 361.3,826.7) ">
<g transform="matrix( 1, 0, 0, 1, 0,0) ">
<use xlink:href="#laurel_leaf_0_Layer0_0_FILL"/>
</g>
</g>

<g transform="matrix( 0.5330047607421875, -0.6977386474609375, 0.6977386474609375, 0.5330047607421875, 323.1,803.1) ">
<g transform="matrix( 1, 0, 0, 1, 0,0) ">
<use xlink:href="#laurel_leaf_0_Layer0_0_FILL"/>
</g>
</g>

<g transform="matrix( 0.5863037109375, -0.6535491943359375, 0.6535491943359375, 0.5863037109375, 287.5,773.4) ">
<g transform="matrix( 1, 0, 0, 1, 0,0) ">
<use xlink:href="#laurel_leaf_0_Layer0_0_FILL"/>
</g>
</g>

<g transform="matrix( 0.655487060546875, -0.5841522216796875, 0.5841522216796875, 0.655487060546875, 256.3,739.75) ">
<g transform="matrix( 1, 0, 0, 1, 0,0) ">
<use xlink:href="#laurel_leaf_0_Layer0_0_FILL"/>
</g>
</g>

<g transform="matrix( 0.7303466796875, -0.4873046875, 0.4873046875, 0.7303466796875, 227.7,702.85) ">
<g transform="matrix( 1, 0, 0, 1, 0,0) ">
<use xlink:href="#laurel_leaf_0_Layer0_0_FILL"/>
</g>
</g>

<g transform="matrix( 0.79888916015625, -0.36419677734375, 0.36419677734375, 0.79888916015625, 204.5,659.65) ">
<g transform="matrix( 1, 0, 0, 1, 0,0) ">
<use xlink:href="#laurel_leaf_0_Layer0_0_FILL"/>
</g>
</g>

<g transform="matrix( 0.848907470703125, -0.22406005859375, 0.22406005859375, 0.848907470703125, 187.65,613.9) ">
<g transform="matrix( 1, 0, 0, 1, 0,0) ">
<use xlink:href="#laurel_leaf_0_Layer0_0_FILL"/>
</g>
</g>

<g transform="matrix( 0.867828369140625, -0.1335906982421875, 0.1335906982421875, 0.867828369140625, 177.8,570.55) ">
<g transform="matrix( 1, 0, 0, 1, 0,0) ">
<use xlink:href="#laurel_leaf_0_Layer0_0_FILL"/>
</g>
</g>

<g transform="matrix( 0.87774658203125, 0.0218505859375, -0.021820068359375, 0.87774658203125, 174.4,525.75) ">
<g transform="matrix( 1, 0, 0, 1, 0,0) ">
<use xlink:href="#laurel_leaf_0_Layer0_0_FILL"/>
</g>
</g>

<g transform="matrix( 0.87322998046875, 0.0909423828125, -0.0909271240234375, 0.87322998046875, 177.55,479.5) ">
<g transform="matrix( 1, 0, 0, 1, 0,0) ">
<use xlink:href="#laurel_leaf_0_Layer0_0_FILL"/>
</g>
</g>

<g transform="matrix( 0.857666015625, 0.1876678466796875, -0.187652587890625, 0.857696533203125, 184.5,433.5) ">
<g transform="matrix( 1, 0, 0, 1, 0,0) ">
<use xlink:href="#laurel_leaf_0_Layer0_0_FILL"/>
</g>
</g>

<g transform="matrix( 0.8232421875, 0.305145263671875, -0.305145263671875, 0.8232421875, 199.55,389.7) ">
<g transform="matrix( 1, 0, 0, 1, 0,0) ">
<use xlink:href="#laurel_leaf_0_Layer0_0_FILL"/>
</g>
</g>

<g transform="matrix( 0.7638397216796875, 0.432891845703125, -0.432891845703125, 0.7638397216796875, 220.95,345.6) ">
<g transform="matrix( 1, 0, 0, 1, 0,0) ">
<use xlink:href="#laurel_leaf_0_Layer0_0_FILL"/>
</g>
</g>

<g transform="matrix( 0.67974853515625, 0.5556640625, -0.5556640625, 0.67974853515625, 248.05,305.05) ">
<g transform="matrix( 1, 0, 0, 1, 0,0) ">
<use xlink:href="#laurel_leaf_0_Layer0_0_FILL"/>
</g>
</g>

<g transform="matrix( 0.5845794677734375, 0.655059814453125, -0.655059814453125, 0.5845794677734375, 286.6,263.45) ">
<g transform="matrix( 1, 0, 0, 1, 0,0) ">
<use xlink:href="#laurel_leaf_0_Layer0_0_FILL"/>
</g>
</g>

<g transform="matrix( 0.137725830078125, 0.8671722412109375, -0.8671722412109375, 0.137725830078125, 582.25,859.7) ">
<g transform="matrix( 1, 0, 0, 1, 0,0) ">
<use xlink:href="#laurel_leaf_0_Layer0_0_FILL"/>
</g>
</g>

<g transform="matrix( 0.290924072265625, 0.8284149169921875, -0.8284149169921875, 0.290924072265625, 636.5,845.95) ">
<g transform="matrix( 1, 0, 0, 1, 0,0) ">
<use xlink:href="#laurel_leaf_0_Layer0_0_FILL"/>
</g>
</g>

<g transform="matrix( 0.4362030029296875, 0.7620086669921875, -0.7620086669921875, 0.4362030029296875, 684.35,825.7) ">
<g transform="matrix( 1, 0, 0, 1, 0,0) ">
<use xlink:href="#laurel_leaf_0_Layer0_0_FILL"/>
</g>
</g>

<g transform="matrix( 0.559814453125, 0.6763916015625, -0.6763916015625, 0.559814453125, 722.45,802.35) ">
<g transform="matrix( 1, 0, 0, 1, 0,0) ">
<use xlink:href="#laurel_leaf_0_Layer0_0_FILL"/>
</g>
</g>

<g transform="matrix( 0.62432861328125, 0.617279052734375, -0.617279052734375, 0.62432861328125, 757.7,772.3) ">
<g transform="matrix( 1, 0, 0, 1, 0,0) ">
<use xlink:href="#laurel_leaf_0_Layer0_0_FILL"/>
</g>
</g>

<g transform="matrix( 0.6796722412109375, 0.5557861328125, -0.5557861328125, 0.6796722412109375, 788.95,738.95) ">
<g transform="matrix( 1, 0, 0, 1, 0,0) ">
<use xlink:href="#laurel_leaf_0_Layer0_0_FILL"/>
</g>
</g>

<g transform="matrix( 0.76416015625, 0.43231201171875, -0.43231201171875, 0.76416015625, 816.7,701.75) ">
<g transform="matrix( 1, 0, 0, 1, 0,0) ">
<use xlink:href="#laurel_leaf_0_Layer0_0_FILL"/>
</g>
</g>

<g transform="matrix( 0.822418212890625, 0.307373046875, -0.307373046875, 0.822418212890625, 839.7,658.9) ">
<g transform="matrix( 1, 0, 0, 1, 0,0) ">
<use xlink:href="#laurel_leaf_0_Layer0_0_FILL"/>
</g>
</g>

<g transform="matrix( 0.86279296875, 0.1624755859375, -0.1624755859375, 0.86279296875, 856.5,613.4) ">
<g transform="matrix( 1, 0, 0, 1, 0,0) ">
<use xlink:href="#laurel_leaf_0_Layer0_0_FILL"/>
</g>
</g>

<g transform="matrix( 0.877197265625, 0.0382537841796875, -0.0382537841796875, 0.877197265625, 865.9,570.35) ">
<g transform="matrix( 1, 0, 0, 1, 0,0) ">
<use xlink:href="#laurel_leaf_0_Layer0_0_FILL"/>
</g>
</g>

<g transform="matrix( 0.873870849609375, -0.0852203369140625, 0.0852508544921875, 0.873870849609375, 869.85,525.85) ">
<g transform="matrix( 1, 0, 0, 1, 0,0) ">
<use xlink:href="#laurel_leaf_0_Layer0_0_FILL"/>
</g>
</g>

<g transform="matrix( 0.86328125, -0.159759521484375, 0.1597747802734375, 0.86328125, 866.8,479.8) ">
<g transform="matrix( 1, 0, 0, 1, 0,0) ">
<use xlink:href="#laurel_leaf_0_Layer0_0_FILL"/>
</g>
</g>

<g transform="matrix( 0.8484954833984375, -0.2254638671875, 0.2255096435546875, 0.8485107421875, 858.45,434.8) ">
<g transform="matrix( 1, 0, 0, 1, 0,0) ">
<use xlink:href="#laurel_leaf_0_Layer0_0_FILL"/>
</g>
</g>

<g transform="matrix( 0.797882080078125, -0.3663330078125, 0.3663330078125, 0.797882080078125, 844.85,390.5) ">
<g transform="matrix( 1, 0, 0, 1, 0,0) ">
<use xlink:href="#laurel_leaf_0_Layer0_0_FILL"/>
</g>
</g>

<g transform="matrix( 0.7327880859375, -0.48358154296875, 0.48358154296875, 0.7327880859375, 823.7,346.5) ">
<g transform="matrix( 1, 0, 0, 1, 0,0) ">
<use xlink:href="#laurel_leaf_0_Layer0_0_FILL"/>
</g>
</g>

<g transform="matrix( 0.64776611328125, -0.592620849609375, 0.592620849609375, 0.64776611328125, 796.9,306.05) ">
<g transform="matrix( 1, 0, 0, 1, 0,0) ">
<use xlink:href="#laurel_leaf_0_Layer0_0_FILL"/>
</g>
</g>

<g transform="matrix( 0.554901123046875, -0.68035888671875, 0.68035888671875, 0.554901123046875, 758.7,264.65) ">
<g transform="matrix( 1, 0, 0, 1, 0,0) ">
<use xlink:href="#laurel_leaf_0_Layer0_0_FILL"/>
</g>
</g>

<g transform="matrix( 1, 0, 0, 1, 0,0) ">
<use xlink:href="#Layer1_0_FILL"/>
</g>

<g transform="matrix( 1, 0, 0, 1, 0,0) ">
<use xlink:href="#Layer0_0_FILL"/>
</g>
</svg>
